0
SECTION
2
HEADER
9
$INSUNITS
70
1
9
$ACADVER
1
AC1014
9
$HANDSEED
5
FFFF
0
ENDSEC
0
SECTION
2
TABLES
0
TABLE
2
VPORT
5
8
100
AcDbSymbolTable
0
ENDTAB
0
TABLE
2
LTYPE
5
5
100
AcDbSymbolTable
0
LTYPE
5
14
100
AcDbSymbolTableRecord
100
AcDbLinetypeTableRecord
2
BYBLOCK
70
0
0
LTYPE
5
15
100
AcDbSymbolTableRecord
100
AcDbLinetypeTableRecord
2
BYLAYER
70
0
0
ENDTAB
0
TABLE
2
LAYER
5
2
100
AcDbSymbolTable
70
2
0
LAYER
5
50
100
AcDbSymbolTableRecord
100
AcDbLayerTableRecord
2
0
70
0
6
CONTINUOUS
0
ENDTAB
0
TABLE
2
STYLE
5
3
100
AcDbSymbolTable
70
1
0
STYLE
5
11
100
AcDbSymbolTableRecord
100
AcDbTextStyleTableRecord
2
STANDARD
70
0
0
ENDTAB
0
TABLE
2
VIEW
5
6
100
AcDbSymbolTable
70
0
0
ENDTAB
0
TABLE
2
UCS
5
7
100
AcDbSymbolTable
70
0
0
ENDTAB
0
TABLE
2
APPID
5
9
100
AcDbSymbolTable
70
2
0
APPID
5
12
100
AcDbSymbolTableRecord
100
AcDbRegAppTableRecord
2
ACAD
70
0
0
ENDTAB
0
TABLE
2
DIMSTYLE
5
A
100
AcDbSymbolTable
70
1
0
ENDTAB
0
TABLE
2
BLOCK_RECORD
5
1
100
AcDbSymbolTable
70
1
0
BLOCK_RECORD
5
1F
100
AcDbSymbolTableRecord
100
AcDbBlockTableRecord
2
*MODEL_SPACE
0
BLOCK_RECORD
5
1B
100
AcDbSymbolTableRecord
100
AcDbBlockTableRecord
2
*PAPER_SPACE
0
ENDTAB
0
ENDSEC
0
SECTION
2
BLOCKS
0
BLOCK
5
20
100
AcDbEntity
100
AcDbBlockBegin
2
*MODEL_SPACE
0
ENDBLK
5
21
100
AcDbEntity
100
AcDbBlockEnd
0
BLOCK
5
1C
100
AcDbEntity
100
AcDbBlockBegin
2
*PAPER_SPACE
0
ENDBLK
5
1D
100
AcDbEntity
100
AcDbBlockEnd
0
ENDSEC
0
SECTION
2
ENTITIES
0
LWPOLYLINE
5
100
100
AcDbEntity
8
0
100
AcDbPolyline
90
2
43
0.0
10
0.7453541666666677
20
1.877148563690348
10
0.7464777777777777
20
1.87712356369098
0
LINE
5
101
100
AcDbEntity
8
0
100
AcDbLine
10
0.74647777777777757
20
1.87712356369098
30
0
11
0.93794166666666312
21
1.87712356369098
31
0
0
LWPOLYLINE
5
102
100
AcDbEntity
8
0
100
AcDbPolyline
90
2
43
0.0
10
0.9379416666666632
20
1.87712356369098
10
0.9383291666666638
20
1.877127730357541
0
LWPOLYLINE
5
103
100
AcDbEntity
8
0
100
AcDbPolyline
90
5
43
0.0
10
0.9383291666666638
20
1.877127730357541
10
0.9461898871527767
20
1.8756151218888084
10
0.9527086805555565
20
1.8714122791130365
10
0.9571498697916688
20
1.8650935509740498
10
0.9587777777777797
20
1.857233286415672
0
LWPOLYLINE
5
104
100
AcDbEntity
8
0
100
AcDbPolyline
90
5
43
0.0
10
0.9587777777777797
20
1.857233286415672
10
0.958776388888888
20
1.7020860681127987
10
0.9606109375000002
20
1.6927433383140935
10
0.965056944444446
20
1.6843827699489105
10
0.975437499999998
20
1.6724763466385812
0
LWPOLYLINE
5
105
100
AcDbEntity
8
0
100
AcDbPolyline
90
118
43
0.0
10
0.975437499999998
20
1.6724763466385812
10
0.9881133229364224
20
1.6618086324002423
10
1.002713929179953
20
1.6517697866170584
10
1.0354619099438764
20
1.634395735315698
10
1.0701663264076122
20
1.6217213297902533
10
1.0910198790837784
20
1.6170076412084413
10
1.1105167416650024
20
1.6148378961426124
10
1.1286193753221896
20
1.6150030477956814
10
1.145290241226244
20
1.6172940493705632
10
1.1604918005480707
20
1.621501854070173
10
1.1741874759250208
20
1.6274156947685539
10
1.1971652532365555
20
1.6430623175608818
10
1.2147800130208306
20
1.6609977227966113
10
1.2276816131167942
20
1.6778274759504896
10
1.2372697926839207
20
1.6900503109705585
10
1.2416763970428057
20
1.693279873621881
10
1.2463096786922894
20
1.6939683666390632
10
1.2515333883126596
20
1.6916509152258543
10
1.2576577478089994
20
1.685918887698392
10
1.2644894400961857
20
1.676892128803552
10
1.271559009555517
20
1.6649800364948153
10
1.2783941638830776
20
1.650594974394412
10
1.2845226107749526
20
1.6341493061245704
10
1.2894720579272272
20
1.6160553953075203
10
1.29282415817169
20
1.596709697496738
10
1.2942872061603792
20
1.5555072638169536
10
1.2884781903394706
20
1.512897682308676
10
1.275242113890737
20
1.4709983828894464
10
1.2578976868150946
20
1.4279639207339385
10
1.2496789792395524
20
1.4043521124012583
10
1.2428475737790483
20
1.3784293764196045
10
1.2382144824111625
20
1.3495151420391596
10
1.2363223743594378
20
1.3174318422238263
10
1.237223394444975
20
1.2829189839286714
10
1.2409174808935928
20
1.2468142655055894
10
1.247404571931109
20
1.2099553853064733
10
1.256684605783342
20
1.1731800416832168
10
1.2687526669244527
20
1.1373120871416504
10
1.283462671499218
20
1.102779988728954
10
1.3005092621078644
20
1.0695670666999204
10
1.3195786009024069
20
1.0376327674145347
10
1.362530171657241
20
0.9774378225146406
10
1.4096720393064532
20
0.9216261774984248
10
1.4574178657708725
20
0.8679195872543932
10
1.5017796925420555
20
0.8133104771232811
10
1.521457087173124
20
0.7847505204750098
10
1.5389005806536062
20
0.7550512386838897
10
1.5537435810032745
20
0.7240985874224772
10
1.565619677462041
20
0.691778719453568
10
1.5741624592698182
20
0.6579777875399576
10
1.579005515666519
20
0.622581944444442
10
1.5798171257716702
20
0.5855933709975508
10
1.576405058687989
20
0.5474744259931837
10
1.5686119694448666
20
0.5088036641700397
10
1.5562805130716937
20
0.4701596402668172
10
1.539253344597861
20
0.432120909022215
10
1.5173736216706826
20
0.395266226153369
10
1.490595189351823
20
0.36018940507567737
10
1.4591308443668813
20
0.32751809654191133
10
1.4232311267558853
20
0.2978857503837689
10
1.3831465765588633
20
0.271925816432948
10
1.339127733815843
20
0.25027174452114664
10
1.2914360457978515
20
0.23354609914364005
10
1.240850068965452
20
0.22183662605960097
10
1.188887467875701
20
0.21446647375002062
10
1.137123379772237
20
0.21070022836696053
10
1.0871329418986988
20
0.20980247606248226
10
1.040491291498724
20
0.2110378029886475
10
0.9986736480556218
20
0.2137012359911592
10
0.9612911706058324
20
0.21765793602892433
10
0.926300001984753
20
0.223279417681191
10
0.8915984658364803
20
0.23095481733053413
10
0.8550848858051119
20
0.24107327135952872
10
0.8146575855347448
20
0.25402391615074965
10
0.7684614493563281
20
0.2701630239762687
10
0.7169658935864787
20
0.28953540995447297
10
0.6619136213297584
20
0.3120153605847619
10
0.6050601569076838
20
0.3374754915852526
10
0.5481610246417716
20
0.365788418674062
10
0.49297174885353817
20
0.3968267575693071
10
0.4410820653633074
20
0.43041016932020315
10
0.3932107717291525
20
0.46607926081443074
10
0.349790985026764
20
0.5032834652856263
10
0.3112556381151424
20
0.5414721749768633
10
0.27803766385328815
20
0.5800947821312151
10
0.250569925639578
20
0.6186007895213746
10
0.22916366222401746
20
0.6566310357456906
10
0.2137584055363348
20
0.6944104758078822
10
0.20422292512341314
20
0.7322751379156518
10
0.20042599053213567
20
0.7705610502767024
10
0.20223637130938554
20
0.8096042410987362
10
0.20952112715999033
20
0.8497391943598863
10
0.22197982023428642
20
0.8911487967524588
10
0.23900599773343253
20
0.9337387915359486
10
0.2599605982701585
20
0.9773853662384937
10
0.2842045604571941
20
1.0219647083882313
10
0.31109882290726915
20
1.067353005513299
10
0.36933467697656336
20
1.1602146664141324
10
0.39674171823519494
20
1.2078732796938554
10
0.4197110165505215
20
1.256583635197739
10
0.42875482543712184
20
1.2813884911097557
10
0.43575717458710755
20
1.3065226123690292
10
0.4404073893335493
20
1.3320081089059654
10
0.4423947950095174
20
1.35786709065097
10
0.4414110431300272
20
1.3841209039332292
10
0.4373748483022056
20
1.4107259073661147
10
0.43061931836340184
20
1.437520317004252
10
0.4215216590033641
20
1.464329450309039
10
0.39780877477857873
20
1.5172931577641455
10
0.36925384114583465
20
1.5682195694226102
10
0.33887450362311616
20
1.6157112249756065
10
0.30968840772840833
20
1.6583706641143086
10
0.28440778377850895
20
1.6950168010661173
10
0.2636154130723737
20
1.7259775324208162
10
0.24698744857046223
20
1.7522233485554715
10
0.23419669659932282
20
1.774727114327658
10
0.22491596348550405
20
1.7944616945949508
10
0.21881805555555417
20
1.812399954214924
0
LWPOLYLINE
5
106
100
AcDbEntity
8
0
100
AcDbPolyline
90
18
43
0.0
10
0.21881805555555417
20
1.812399954214924
10
0.21507045135561903
20
1.8367690651916637
10
0.2170288425038768
20
1.8592872598693244
10
0.22435753462241848
20
1.8798458289548305
10
0.236720833333335
20
1.8983360631551067
10
0.2537732630925653
20
1.9145844700251484
10
0.2751337569455534
20
1.9281656519424892
10
0.3004103851029516
20
1.9385896822552988
10
0.3292112177754124
20
1.9453666343117462
10
0.36135904422751425
20
1.9479704185758349
10
0.39753469516619033
20
1.9457296758400109
10
0.43863330296562486
20
1.9379365749451056
10
0.461308444555059
20
1.931736692950758
10
0.4855500000000019
20
1.923883284731952
10
0.5340613971537829
20
1.9052029468875553
10
0.5867469749391641
20
1.8819276918563614
10
0.6421427458105193
20
1.8553142616550136
10
0.6987847222222223
20
1.826619398300156
0
LWPOLYLINE
5
107
100
AcDbEntity
8
0
100
AcDbPolyline
90
5
43
0.0
10
0.6987847222222223
20
1.826619398300156
10
0.7093263888888895
20
1.8235235650450294
10
0.7171618055555564
20
1.823573565043766
10
0.7222909722222227
20
1.8267693982963658
10
0.7247138888888887
20
1.833111064802829
0
LINE
5
108
100
AcDbEntity
8
0
100
AcDbLine
10
0.72471388888888866
20
1.833111064802829
30
0
11
0.72506805555555798
21
1.8564930086565958
31
0
0
LWPOLYLINE
5
109
100
AcDbEntity
8
0
100
AcDbPolyline
90
2
43
0.0
10
0.7250680555555581
20
1.8564930086565958
10
0.7250513888888892
20
1.857233286415672
0
LWPOLYLINE
5
110
100
AcDbEntity
8
0
100
AcDbPolyline
90
5
43
0.0
10
0.7250513888888892
20
1.857233286415672
10
0.7266576822916667
20
1.8650655561830902
10
0.7310600694444452
20
1.8713758207806241
10
0.7375338107638904
20
1.875593637514351
10
0.7453541666666677
20
1.877148563690348
0
ENDSEC
0
SECTION
2
OBJECTS
0
DICTIONARY
5
C
100
AcDbDictionary
3
ACAD_GROUP
350
D
3
ACAD_MLINESTYLE
350
17
0
DICTIONARY
5
D
100
AcDbDictionary
0
DICTIONARY
5
1A
330
C
100
AcDbDictionary
0
DICTIONARY
5
17
100
AcDbDictionary
0
ENDSEC
0
EOF
