  0
SECTION
  2
HEADER
  9
$ACADVER
  1
AC1014
  9
$ACADMAINTVER
 70
     9
  9
$DWGCODEPAGE
  3
ANSI_1252
  9
$INSBASE
 10
0.0
 20
0.0
 30
0.0
  9
$EXTMIN
 10
1.000000000000000E+20
 20
1.000000000000000E+20
 30
1.000000000000000E+20
  9
$EXTMAX
 10
-1.000000000000000E+20
 20
-1.000000000000000E+20
 30
-1.000000000000000E+20
  9
$LIMMIN
 10
0.0
 20
0.0
  9
$LIMMAX
 10
12.0
 20
9.0
  9
$ORTHOMODE
 70
     0
  9
$REGENMODE
 70
     1
  9
$FILLMODE
 70
     1
  9
$QTEXTMODE
 70
     0
  9
$MIRRTEXT
 70
     1
  9
$DRAGMODE
 70
     2
  9
$LTSCALE
 40
1.0
  9
$OSMODE
 70
    37
  9
$ATTMODE
 70
     1
  9
$TEXTSIZE
 40
0.2
  9
$TRACEWID
 40
0.05
  9
$TEXTSTYLE
  7
STANDARD
  9
$CLAYER
  8
0
  9
$CELTYPE
  6
BYLAYER
  9
$CECOLOR
 62
   256
  9
$CELTSCALE
 40
1.0
  9
$DELOBJ
 70
     1
  9
$DISPSILH
 70
     0
  9
$DIMSCALE
 40
1.0
  9
$DIMASZ
 40
0.18
  9
$DIMEXO
 40
0.0625
  9
$DIMDLI
 40
0.38
  9
$DIMRND
 40
0.0
  9
$DIMDLE
 40
0.0
  9
$DIMEXE
 40
0.18
  9
$DIMTP
 40
0.0
  9
$DIMTM
 40
0.0
  9
$DIMTXT
 40
0.18
  9
$DIMCEN
 40
0.09
  9
$DIMTSZ
 40
0.0
  9
$DIMTOL
 70
     0
  9
$DIMLIM
 70
     0
  9
$DIMTIH
 70
     1
  9
$DIMTOH
 70
     1
  9
$DIMSE1
 70
     0
  9
$DIMSE2
 70
     0
  9
$DIMTAD
 70
     0
  9
$DIMZIN
 70
     0
  9
$DIMBLK
  1

  9
$DIMASO
 70
     1
  9
$DIMSHO
 70
     1
  9
$DIMPOST
  1

  9
$DIMAPOST
  1

  9
$DIMALT
 70
     0
  9
$DIMALTD
 70
     2
  9
$DIMALTF
 40
25.4
  9
$DIMLFAC
 40
1.0
  9
$DIMTOFL
 70
     0
  9
$DIMTVP
 40
0.0
  9
$DIMTIX
 70
     0
  9
$DIMSOXD
 70
     0
  9
$DIMSAH
 70
     0
  9
$DIMBLK1
  1

  9
$DIMBLK2
  1

  9
$DIMSTYLE
  2
STANDARD_ACAD
  9
$DIMCLRD
 70
     0
  9
$DIMCLRE
 70
     0
  9
$DIMCLRT
 70
     0
  9
$DIMTFAC
 40
1.0
  9
$DIMGAP
 40
0.09
  9
$DIMJUST
 70
     0
  9
$DIMSD1
 70
     0
  9
$DIMSD2
 70
     0
  9
$DIMTOLJ
 70
     1
  9
$DIMTZIN
 70
     0
  9
$DIMALTZ
 70
     0
  9
$DIMALTTZ
 70
     0
  9
$DIMFIT
 70
     5
  9
$DIMUPT
 70
     0
  9
$DIMUNIT
 70
     2
  9
$DIMDEC
 70
     4
  9
$DIMTDEC
 70
     4
  9
$DIMALTU
 70
     2
  9
$DIMALTTD
 70
     2
  9
$DIMTXSTY
  7
STANDARD
  9
$DIMAUNIT
 70
     0
  9
$LUNITS
 70
     2
  9
$LUPREC
 70
     2
  9
$SKETCHINC
 40
0.1
  9
$FILLETRAD
 40
0.5
  9
$AUNITS
 70
     0
  9
$AUPREC
 70
     0
  9
$MENU
  1
.
  9
$ELEVATION
 40
0.0
  9
$PELEVATION
 40
0.0
  9
$THICKNESS
 40
0.0
  9
$LIMCHECK
 70
     0
  9
$CHAMFERA
 40
0.0
  9
$CHAMFERB
 40
0.0
  9
$CHAMFERC
 40
0.0
  9
$CHAMFERD
 40
0.0
  9
$SKPOLY
 70
     0
  9
$TDCREATE
 40
2459936.483134549
  9
$TDUPDATE
 40
2459936.484759618
  9
$TDINDWG
 40
0.0000000116
  9
$TDUSRTIMER
 40
0.0000000116
  9
$USRTIMER
 70
     1
  9
$ANGBASE
 50
0.0
  9
$ANGDIR
 70
     0
  9
$PDMODE
 70
     0
  9
$PDSIZE
 40
0.0
  9
$PLINEWID
 40
0.0
  9
$COORDS
 70
     1
  9
$SPLFRAME
 70
     0
  9
$SPLINETYPE
 70
     6
  9
$SPLINESEGS
 70
     8
  9
$ATTDIA
 70
     0
  9
$ATTREQ
 70
     1
  9
$HANDLING
 70
     1
  9
$HANDSEED
  5
B1E
  9
$SURFTAB1
 70
     6
  9
$SURFTAB2
 70
     6
  9
$SURFTYPE
 70
     6
  9
$SURFU
 70
     6
  9
$SURFV
 70
     6
  9
$UCSNAME
  2

  9
$UCSORG
 10
0.0
 20
0.0
 30
0.0
  9
$UCSXDIR
 10
1.0
 20
0.0
 30
0.0
  9
$UCSYDIR
 10
0.0
 20
1.0
 30
0.0
  9
$PUCSNAME
  2

  9
$PUCSORG
 10
0.0
 20
0.0
 30
0.0
  9
$PUCSXDIR
 10
1.0
 20
0.0
 30
0.0
  9
$PUCSYDIR
 10
0.0
 20
1.0
 30
0.0
  9
$USERI1
 70
     0
  9
$USERI2
 70
     0
  9
$USERI3
 70
     0
  9
$USERI4
 70
     0
  9
$USERI5
 70
     0
  9
$USERR1
 40
0.0
  9
$USERR2
 40
0.0
  9
$USERR3
 40
0.0
  9
$USERR4
 40
0.0
  9
$USERR5
 40
0.0
  9
$WORLDVIEW
 70
     1
  9
$SHADEDGE
 70
     3
  9
$SHADEDIF
 70
    70
  9
$TILEMODE
 70
     1
  9
$MAXACTVP
 70
    64
  9
$PINSBASE
 10
0.0
 20
0.0
 30
0.0
  9
$PLIMCHECK
 70
     0
  9
$PEXTMIN
 10
1.000000000000000E+20
 20
1.000000000000000E+20
 30
1.000000000000000E+20
  9
$PEXTMAX
 10
-1.000000000000000E+20
 20
-1.000000000000000E+20
 30
-1.000000000000000E+20
  9
$PLIMMIN
 10
0.0
 20
0.0
  9
$PLIMMAX
 10
12.0
 20
9.0
  9
$UNITMODE
 70
     0
  9
$VISRETAIN
 70
     1
  9
$PLINEGEN
 70
     0
  9
$PSLTSCALE
 70
     1
  9
$TREEDEPTH
 70
  3020
  9
$PICKSTYLE
 70
     1
  9
$CMLSTYLE
  2
STANDARD
  9
$CMLJUST
 70
     0
  9
$CMLSCALE
 40
1.0
  9
$PROXYGRAPHICS
 70
     1
  9
$MEASUREMENT
 70
     1
  0
ENDSEC
  0
SECTION
  2
CLASSES
  0
CLASS
  1
ACDBDICTIONARYWDFLT
  2
AcDbDictionaryWithDefault
  3
ObjectDBX Classes
 90
        0
280
     0
281
     0
  0
CLASS
  1
VISUALSTYLE
  2
AcDbVisualStyle
  3
ObjectDBX Classes
 90
     4095
280
     0
281
     0
  0
CLASS
  1
MATERIAL
  2
AcDbMaterial
  3
ObjectDBX Classes
 90
     1153
280
     0
281
     0
  0
CLASS
  1
SCALE
  2
AcDbScale
  3
ObjectDBX Classes
 90
     1153
280
     0
281
     0
  0
CLASS
  1
TABLESTYLE
  2
AcDbTableStyle
  3
ObjectDBX Classes
 90
     4095
280
     0
281
     0
  0
CLASS
  1
MLEADERSTYLE
  2
AcDbMLeaderStyle
  3
ACDB_MLEADERSTYLE_CLASS
 90
     4095
280
     0
281
     0
  0
CLASS
  1
SUN
  2
AcDbSun
  3
SCENEOE
 90
     1153
280
     0
281
     0
  0
CLASS
  1
DICTIONARYVAR
  2
AcDbDictionaryVar
  3
ObjectDBX Classes
 90
        0
280
     0
281
     0
  0
CLASS
  1
XRECORD
  2
AcDbXrecord
  3
ObjectDBX Classes
 90
        0
280
     0
281
     0
  0
CLASS
  1
LWPOLYLINE
  2
AcDbPolyline
  3
ObjectDBX Classes
 90
        0
280
     0
281
     1
  0
CLASS
  1
HATCH
  2
AcDbHatch
  3
ObjectDBX Classes
 90
        0
280
     0
281
     1
  0
CLASS
  1
ACDBPLACEHOLDER
  2
AcDbPlaceHolder
  3
ObjectDBX Classes
 90
        0
280
     0
281
     0
  0
CLASS
  1
LAYOUT
  2
AcDbLayout
  3
ObjectDBX Classes
 90
        0
280
     0
281
     0
  0
ENDSEC
  0
SECTION
  2
TABLES
  0
TABLE
  2
VPORT
  5
8
102
{ACAD_XDICTIONARY
360
B13
102
}
330
0
100
AcDbSymbolTable
 70
     1
  0
VPORT
  5
29
330
8
100
AcDbSymbolTableRecord
100
AcDbViewportTableRecord
  2
*ACTIVE
 70
     0
 10
0.0
 20
0.0
 11
1.0
 21
1.0
 12
10.42990654205607
 22
4.5
 13
0.0
 23
0.0
 14
0.5
 24
0.5
 15
0.5
 25
0.5
 16
0.0
 26
0.0
 36
1.0
 17
0.0
 27
0.0
 37
0.0
 40
9.0
 41
1.972972972850329
 42
50.0
 43
0.0
 44
0.0
 50
0.0
 51
0.0
 71
     0
 72
   100
 73
     1
 74
     3
 75
     0
 76
     0
 77
     0
 78
     0
  0
ENDTAB
  0
TABLE
  2
LTYPE
  5
5
330
0
100
AcDbSymbolTable
 70
     1
  0
LTYPE
  5
14
330
5
100
AcDbSymbolTableRecord
100
AcDbLinetypeTableRecord
  2
BYBLOCK
 70
     0
  3

 72
    65
 73
     0
 40
0.0
  0
LTYPE
  5
15
330
5
100
AcDbSymbolTableRecord
100
AcDbLinetypeTableRecord
  2
BYLAYER
 70
     0
  3

 72
    65
 73
     0
 40
0.0
  0
LTYPE
  5
16
330
5
100
AcDbSymbolTableRecord
100
AcDbLinetypeTableRecord
  2
CONTINUOUS
 70
     0
  3
Solid line
 72
    65
 73
     0
 40
0.0
  0
ENDTAB
  0
TABLE
  2
LAYER
  5
2
330
0
100
AcDbSymbolTable
 70
     2
  0
LAYER
  5
10
330
2
100
AcDbSymbolTableRecord
100
AcDbLayerTableRecord
  2
0
 70
     0
 62
     7
  6
CONTINUOUS
  0
LAYER
  5
6F
330
2
100
AcDbSymbolTableRecord
100
AcDbLayerTableRecord
  2
ACCESSORIES$BACK_PICKGUARD
 70
     0
 62
    18
  6
CONTINUOUS
  0
ENDTAB
  0
TABLE
  2
STYLE
  5
3
330
0
100
AcDbSymbolTable
 70
     1
  0
STYLE
  5
11
330
3
100
AcDbSymbolTableRecord
100
AcDbTextStyleTableRecord
  2
STANDARD
 70
     0
 40
0.0
 41
1.0
 50
0.0
 71
     0
 42
0.2
  3
txt
  4

  0
ENDTAB
  0
TABLE
  2
VIEW
  5
6
330
0
100
AcDbSymbolTable
 70
     0
  0
ENDTAB
  0
TABLE
  2
UCS
  5
7
330
0
100
AcDbSymbolTable
 70
     0
  0
ENDTAB
  0
TABLE
  2
APPID
  5
9
330
0
100
AcDbSymbolTable
 70
     3
  0
APPID
  5
12
330
9
100
AcDbSymbolTableRecord
100
AcDbRegAppTableRecord
  2
ACAD
 70
     0
  0
APPID
  5
6E
330
9
100
AcDbSymbolTableRecord
100
AcDbRegAppTableRecord
  2
RHINO
 70
     0
  0
APPID
  5
B1D
330
9
100
AcDbSymbolTableRecord
100
AcDbRegAppTableRecord
  2
ACAD_MLEADERVER
 70
     0
  0
ENDTAB
  0
TABLE
  2
DIMSTYLE
  5
A
330
0
100
AcDbSymbolTable
 70
     1
  0
DIMSTYLE
105
27
330
A
100
AcDbSymbolTableRecord
100
AcDbDimStyleTableRecord
  2
STANDARD_ACAD
 70
     0
  3

  4

  5

  6

  7

 40
1.0
 41
0.18
 42
0.0625
 43
0.38
 44
0.18
 45
0.0
 46
0.0
 47
0.0
 48
0.0
140
0.18
141
0.09
142
0.0
143
25.4
144
1.0
145
0.0
146
1.0
147
0.09
 71
     0
 72
     0
 73
     1
 74
     1
 75
     0
 76
     0
 77
     0
 78
     0
170
     0
171
     2
172
     0
173
     0
174
     0
175
     0
176
     0
177
     0
178
     0
270
     2
271
     4
272
     4
273
     2
274
     2
340
11
275
     0
280
     0
281
     0
282
     0
283
     1
284
     0
285
     0
286
     0
287
     3
288
     0
  0
ENDTAB
  0
TABLE
  2
BLOCK_RECORD
  5
1
330
0
100
AcDbSymbolTable
 70
     0
  0
BLOCK_RECORD
  5
1F
330
1
100
AcDbSymbolTableRecord
100
AcDbBlockTableRecord
  2
*MODEL_SPACE
  0
BLOCK_RECORD
  5
1B
330
1
100
AcDbSymbolTableRecord
100
AcDbBlockTableRecord
  2
*PAPER_SPACE
  0
ENDTAB
  0
ENDSEC
  0
SECTION
  2
BLOCKS
  0
BLOCK
  5
20
330
1F
100
AcDbEntity
  8
0
100
AcDbBlockBegin
  2
*MODEL_SPACE
 70
     0
 10
0.0
 20
0.0
 30
0.0
  3
*MODEL_SPACE
  1

  0
ENDBLK
  5
21
330
1F
100
AcDbEntity
  8
0
100
AcDbBlockEnd
  0
BLOCK
  5
1C
330
1B
100
AcDbEntity
 67
     1
  8
0
100
AcDbBlockBegin
  2
*PAPER_SPACE
 70
     0
 10
0.0
 20
0.0
 30
0.0
  3
*PAPER_SPACE
  1

  0
ENDBLK
  5
1D
330
1B
100
AcDbEntity
 67
     1
  8
0
100
AcDbBlockEnd
  0
ENDSEC
  0
SECTION
  2
ENTITIES
  0
LWPOLYLINE
  5
70
330
1F
100
AcDbEntity
  8
ACCESSORIES$BACK_PICKGUARD
100
AcDbPolyline
 90
      845
 70
     1
 43
0.0
 38
-41.99999999999999
 10
15.82856711014547
 20
170.0690019487232
 10
15.70743015200927
 20
169.8549498795239
 10
15.58943947459204
 20
169.6382231132086
 10
15.47457734173812
 20
169.4188430066419
 10
15.36282601729181
 20
169.1968309166884
 10
15.25416776509745
 20
168.9722082002125
 10
15.14858484899935
 20
168.7449962140789
 10
15.04605953284181
 20
168.5152163151519
 10
14.94657408046918
 20
168.2828898602962
 10
14.85011075572575
 20
168.0480382063762
 10
14.75665182245586
 20
167.8106827102566
 10
14.66617954450382
 20
167.5708447288018
 10
14.57867618571395
 20
167.3285456188763
 10
14.49412400993056
 20
167.0838067373446
 10
14.41250528099798
 20
166.8366494410714
 10
14.33380226276052
 20
166.5870950869211
 10
14.2579972190625
 20
166.3351650317583
 10
14.18507241374824
 20
166.0808806324474
 10
14.11501011066207
 20
165.824263245853
 10
14.04779257364829
 20
165.5653342288397
 10
13.98340206655122
 20
165.3041149382719
 10
13.92182085321519
 20
165.0406267310142
 10
13.86303119748451
 20
164.7748909639311
 10
13.8070153632035
 20
164.5069289938871
 10
13.75375561421648
 20
164.2367621777468
 10
13.70323421436777
 20
163.9644118723746
 10
13.65543342750168
 20
163.6898994346352
 10
13.61033551746254
 20
163.4132462213931
 10
13.56792274809466
 20
163.1344735895126
 10
13.52817738324237
 20
162.8536028958585
 10
13.49108168674997
 20
162.5706554972951
 10
13.45661792246179
 20
162.2856527506872
 10
13.42476835422215
 20
161.998616012899
 10
13.39551524587536
 20
161.7095666407953
 10
13.36884086126575
 20
161.4185259912405
 10
13.34472746423763
 20
161.1255154210992
 10
13.32315731863532
 20
160.8305562872358
 10
13.30411268830313
 20
160.5336699465149
 10
13.2875758370854
 20
160.234877755801
 10
13.27352902882643
 20
159.9342010719587
 10
13.26195452737054
 20
159.6316612518524
 10
13.25283459656206
 20
159.3272796523468
 10
13.2461515002453
 20
159.0210776303063
 10
13.24188750226458
 20
158.7130765425954
 10
13.24002486646421
 20
158.4032977460787
 10
13.24054585668852
 20
158.0917625976207
 10
13.24343273678183
 20
157.7784924540859
 10
13.24866777058845
 20
157.4635086723389
 10
13.2562332219527
 20
157.1468326092443
 10
13.2661113547189
 20
156.8284856216663
 10
13.27828443273137
 20
156.5084890664698
 10
13.29273471983443
 20
156.1868643005191
 10
13.30944447987239
 20
155.8636326806788
 10
13.32839597668957
 20
155.5388155638133
 10
13.3495714741303
 20
155.2124343067874
 10
13.37295323603889
 20
154.8845102664654
 10
13.39852352625966
 20
154.5550647997119
 10
13.42626460863692
 20
154.2241192633913
 10
13.456158747015
 20
153.8916950143684
 10
13.52233524715088
 20
153.2224958056732
 10
13.59691113742184
 20
152.5476380285426
 10
13.67974452858244
 20
151.8672925378926
 10
13.77069353138722
 20
151.1816301886395
 10
13.86961625659072
 20
150.4908218356995
 10
13.9763708149475
 20
149.7950383339889
 10
14.0908153172121
 20
149.0944505384238
 10
14.21280787413906
 20
148.3892293039204
 10
14.34220659648295
 20
147.679545485395
 10
14.47886959499829
 20
146.9655699377637
 10
14.62265498043965
 20
146.2474735159428
 10
14.77342086356157
 20
145.5254270748484
 10
14.93102535511859
 20
144.7996014693969
 10
15.09532656586527
 20
144.0701675545043
 10
15.26618260655615
 20
143.3372961850869
 10
15.44345158794577
 20
142.6011582160609
 10
15.6269916207887
 20
141.8619245023426
 10
15.81666081583946
 20
141.119765898848
 10
16.01231728385262
 20
140.3748532604935
 10
16.21381913558271
 20
139.6273574421953
 10
16.42102448178429
 20
138.8774492988694
 10
16.6337914332119
 20
138.1252996854323
 10
16.85197810062009
 20
137.3710794568
 10
17.07544259476342
 20
136.6149594678888
 10
17.30404302639641
 20
135.8571105736148
 10
17.53763750627363
 20
135.0977036288944
 10
17.77608414514962
 20
134.3369094886436
 10
18.01924105377892
 20
133.5748990077788
 10
18.2669663429161
 20
132.811843041216
 10
18.51911812331568
 20
132.0479124438716
 10
18.77555450573222
 20
131.2832780706617
 10
19.03613360092027
 20
130.5181107765026
 10
19.30071351963438
 20
129.7525814163104
 10
19.56915237262908
 20
128.9868608450014
 10
19.84130827065894
 20
128.2211199174917
 10
20.1170626268813
 20
127.4555047181232
 10
20.39639006406473
 20
126.69006224894
 10
20.67928850738058
 20
125.9248147414118
 10
20.96575588200025
 20
125.1597844270084
 10
21.2557901130951
 20
124.3949935371996
 10
21.54938912583648
 20
123.6304643034549
 10
21.84655084539579
 20
122.8662189572443
 10
22.14727319694438
 20
122.1022797300373
 10
22.45155410565363
 20
121.3386688533038
 10
22.7593914966949
 20
120.5754085585135
 10
23.07078329523956
 20
119.8125210771361
 10
23.385727426459
 20
119.0500286406413
 10
23.70422181552457
 20
118.2879534804989
 10
24.02626438760764
 20
117.5263178281786
 10
24.35185306787959
 20
116.7651439151501
 10
24.68098578151178
 20
116.0044539728833
 10
25.01366045367559
 20
115.2442702328477
 10
25.34987500954239
 20
114.4846149265132
 10
25.68962737428353
 20
113.7255102853494
 10
26.0329154730704
 20
112.9669785408262
 10
26.37973723107437
 20
112.2090419244132
 10
26.73009057346679
 20
111.4517226675802
 10
27.08397342541905
 20
110.6950430017968
 10
27.44138371210252
 20
109.939025158533
 10
27.80231935868856
 20
109.1836913692583
 10
28.16677829034854
 20
108.4290638654425
 10
28.53475843225384
 20
107.6751648785554
 10
28.90625770957581
 20
106.9220166400666
 10
29.28127404748584
 20
106.169641381446
 10
29.6598053711553
 20
105.4180613341632
 10
30.04184960575554
 20
104.667298729688
 10
30.42740467645795
 20
103.9173757994901
 10
30.81646850843389
 20
103.1683147750392
 10
31.20903902685473
 20
102.4201378878051
 10
31.60511415689184
 20
101.6728673692575
 10
32.0046918237166
 20
100.9265254508662
 10
32.40776995250036
 20
100.1811343641009
 10
32.81434646841451
 20
99.43671634043125
 10
33.22441929663042
 20
98.69329361132705
 10
33.63798636231944
 20
97.95088840825804
 10
34.05504559065295
 20
97.20952296269394
 10
34.47559490680232
 20
96.46921950610448
 10
34.89963223593893
 20
95.73000026995942
 10
35.32715550323414
 20
94.99188748572845
 10
35.75816263385931
 20
94.25490338488133
 10
36.19265155298582
 20
93.5190701988878
 10
36.63062018578505
 20
92.7844101592176
 10
37.07206645742835
 20
92.05094549734042
 10
37.5169882930871
 20
91.31869844472604
 10
37.96538361793267
 20
90.58769123284416
 10
38.41725035713644
 20
89.85794609316454
 10
38.87258643586976
 20
89.12948525715689
 10
39.33138977930402
 20
88.40233095629094
 10
39.79365831261057
 20
87.67650542203646
 10
40.25938996096079
 20
86.95203088586315
 10
40.72858264952605
 20
86.22892957924077
 10
41.20123430347771
 20
85.50722373363904
 10
41.67734284798716
 20
84.78693558052768
 10
42.15690620822575
 20
84.06808735137643
 10
42.63992230936486
 20
83.35070127765505
 10
43.12638907657587
 20
82.63479959083324
 10
43.61630443503012
 20
81.92040452238075
 10
44.10966630989901
 20
81.20753830376731
 10
44.60647262635389
 20
80.49622316646263
 10
45.10672046171624
 20
79.7864813837365
 10
45.61040350190787
 20
79.07833539605856
 10
46.11751458500071
 20
78.37180768569856
 10
46.62804654906668
 20
77.66692073492618
 10
47.1419922321777
 20
76.96369702601113
 10
47.65934447240569
 20
76.26215904122311
 10
48.18009610782258
 20
75.56232926283184
 10
48.70423997650028
 20
74.86423017310703
 10
49.2317689165107
 20
74.16788425431837
 10
49.76267576592579
 20
73.47331398873554
 10
50.29695336281745
 20
72.78054185862827
 10
50.83459454525761
 20
72.08959034626628
 10
51.37559215131818
 20
71.40048193391925
 10
51.91993901907109
 20
70.71323910385689
 10
52.46762798658826
 20
70.02788433834891
 10
53.01865189194161
 20
69.344440119665
 10
53.57300357320305
 20
68.66292893007487
 10
54.13067586844453
 20
67.98337325184823
 10
54.69166161573794
 20
67.3057955672548
 10
55.25595365315522
 20
66.63021835856425
 10
55.82354481876827
 20
65.9566641080463
 10
56.39442795064903
 20
65.28515529797065
 10
56.96859588686941
 20
64.61571441060701
 10
57.54604146550134
 20
63.94836392822509
 10
58.12675752461674
 20
63.28312633309459
 10
58.71073690228751
 20
62.62002410748521
 10
59.29797243658561
 20
61.95907973366664
 10
59.88845696558293
 20
61.30031569390861
 10
60.4821833273514
 20
60.64375447048081
 10
61.07914435996294
 20
59.98941854565295
 10
61.67933290148947
 20
59.33733040169473
 10
62.28274179000291
 20
58.68751252087586
 10
62.88936386357518
 20
58.03998738546603
 10
63.49919196027821
 20
57.39477747773496
 10
64.11221891818391
 20
56.75190527995235
 10
64.72843757536421
 20
56.11139327438791
 10
65.34784076989104
 20
55.47326394331132
 10
65.97042133983628
 20
54.83753976899231
 10
66.59617212327188
 20
54.20424323370059
 10
67.22508595826977
 20
53.57339681970583
 10
67.85715568290185
 20
52.94502300927776
 10
68.49237413524006
 20
52.31914428468609
 10
69.1307341533563
 20
51.6957831282005
 10
69.7722285753225
 20
51.0749620220907
 10
70.41685023921059
 20
50.45670344862641
 10
71.06459198309247
 20
49.84102989007733
 10
71.71544664504007
 20
49.22796382871315
 10
72.36940706312532
 20
48.61752774680359
 10
73.02646607542015
 20
48.00974412661834
 10
73.68661651999645
 20
47.40463545042712
 10
74.34985123492618
 20
46.80222420049962
 10
75.01616305828122
 20
46.20253285910555
 10
75.6855448281335
 20
45.60558390851461
 10
76.35798938255496
 20
45.01139983099651
 10
77.03348955961751
 20
44.42000310882096
 10
77.71203819739307
 20
43.83141622425765
 10
78.39362813395356
 20
43.24566165957629
 10
79.0782522073709
 20
42.66276189704659
 10
79.765903255717
 20
42.08273941893825
 10
80.45657411706382
 20
41.50561670752097
 10
81.15025762948325
 20
40.93141624506445
 10
81.84694663104722
 20
40.36016051383842
 10
82.54663395982763
 20
39.79187199611255
 10
83.24931245389641
 20
39.22657317415657
 10
83.95495402375724
 20
38.66429849695801
 10
84.66344686964082
 20
38.10513028037575
 10
85.37465826420957
 20
37.5491628069865
 10
86.08845548012593
 20
36.996490359367
 10
86.80470579005232
 20
36.44720722009396
 10
87.52327646665121
 20
35.90140767174408
 10
88.24403478258502
 20
35.3591859968941
 10
88.96684801051617
 20
34.82063647812073
 10
89.69158342310712
 20
34.2858533980007
 10
90.4181082930203
 20
33.7549310391107
 10
91.14628989291813
 20
33.22796368402747
 10
91.87599549546309
 20
32.70504561532773
 10
92.60709237331758
 20
32.18627111558818
 10
93.33944779914405
 20
31.67173446738555
 10
94.07292904560495
 20
31.16152995329656
 10
94.80740338536269
 20
30.65575185589793
 10
95.54273809107974
 20
30.15449445776637
 10
96.27880043541847
 20
29.6578520414786
 10
97.01545769104138
 20
29.16591888961133
 10
97.7525771306109
 20
28.6787892847413
 10
98.49002602678945
 20
28.1965575094452
 10
99.22767165223948
 20
27.71931784629977
 10
99.96538127962341
 20
27.24716457788173
 10
100.7030221816037
 20
26.78019198676778
 10
101.4404616308428
 20
26.31849435553464
 10
102.1775669000031
 20
25.86216596675904
 10
102.914205261747
 20
25.4113011030177
 10
103.650243988737
 20
24.96599404688732
 10
104.3855503536356
 20
24.52633908094464
 10
105.1199916291052
 20
24.09243048776636
 10
105.8534350878081
 20
23.66436254992921
 10
106.5857480024069
 20
23.2422295500099
 10
107.316797645564
 20
22.82612577058514
 10
108.0464512899418
 20
22.41614549423167
 10
108.7745762082027
 20
22.0123830035262
 10
109.5010396730092
 20
21.61493258104544
 10
110.2257089570238
 20
21.22388850936611
 10
110.9484513329088
 20
20.83934507106493
 10
111.6691340733267
 20
20.46139654871862
 10
112.38762445094
 20
20.09013722490391
 10
113.1037897384111
 20
19.7256613821975
 10
113.8174972084023
 20
19.36806330317611
 10
114.5286141335762
 20
19.01743727041645
 10
115.2370077865952
 20
18.67387756649526
 10
115.9425454401217
 20
18.33747847398925
 10
116.6450943668182
 20
18.00833427547513
 10
117.3445218393471
 20
17.68653925352962
 10
118.0406951303708
 20
17.37218769072945
 10
118.7334815125517
 20
17.06537386965132
 10
119.4227482585524
 20
16.76619207287196
 10
120.1083626410353
 20
16.47473658296808
 10
120.7901919326627
 20
16.19110168251642
 10
121.4681034060971
 20
15.91538165409367
 10
122.141964334001
 20
15.64767078027656
 10
122.8116419890368
 20
15.38806334364181
 10
123.4770036438669
 20
15.13665362676613
 10
124.1379165711538
 20
14.89353591222624
 10
124.7942480435598
 20
14.65880448259887
 10
125.4458653337476
 20
14.43255362046073
 10
126.0926357143794
 20
14.21487760838853
 10
126.7344264581177
 20
14.005870728959
 10
127.3711048376249
 20
13.80562726474885
 10
128.0025381255636
 20
13.61424149833481
 10
128.6285935945961
 20
13.43180771229358
 10
129.2491718389374
 20
13.25839108714437
 10
129.8643067390133
 20
13.09394039517637
 10
130.474065496802
 20
12.9383753066212
 10
131.0785153142817
 20
12.79161549171054
 10
131.6777233934306
 20
12.65358062067602
 10
132.2717569362271
 20
12.52419036374931
 10
132.8606831446494
 20
12.40336439116206
 10
133.4445692206757
 20
12.29102237314592
 10
134.0234823662843
 20
12.18708397993254
 10
134.5974897834535
 20
12.09146888175359
 10
135.1666586741614
 20
12.00409674884071
 10
135.7310562403864
 20
11.92488725142555
 10
136.2907496841067
 20
11.85376005973977
 10
136.8458062073005
 20
11.79063484401503
 10
137.3962930119462
 20
11.73543127448297
 10
137.9422773000219
 20
11.68806902137525
 10
138.483826273506
 20
11.64846775492353
 10
139.0210071343766
 20
11.61654714535945
 10
139.5538870846121
 20
11.59222686291468
 10
140.0825333261906
 20
11.57542657782085
 10
140.6070130610904
 20
11.56606596030964
 10
141.1273934912899
 20
11.56406468061269
 10
141.6437418187672
 20
11.56934240896165
 10
142.1561252455006
 20
11.58181881558818
 10
142.6646109734683
 20
11.60141357072393
 10
143.1692662046486
 20
11.62804634460056
 10
143.6701581410198
 20
11.66163680744971
 10
144.1673539845601
 20
11.70210462950305
 10
144.6609209372477
 20
11.74936948099223
 10
145.150926201061
 20
11.80335103214889
 10
145.6374369779782
 20
11.8639689532047
 10
146.1205204699774
 20
11.9311429143913
 10
146.600243879037
 20
12.00479258594035
 10
147.0766744071353
 20
12.08483763808351
 10
147.5498792562504
 20
12.17119774105242
 10
148.0199256283607
 20
12.26379256507875
 10
148.4868807254444
 20
12.36254178039414
 10
148.9508117494797
 20
12.46736505723024
 10
149.4117859024449
 20
12.57818206581872
 10
149.8698703863183
 20
12.69491247639121
 10
150.325132403078
 20
12.81747595917939
 10
150.7776391547025
 20
12.9457921844149
 10
151.2274578431698
 20
13.0797808223294
 10
151.6746556704583
 20
13.21936154315453
 10
152.1192998385462
 20
13.36445401712196
 10
152.5614575494118
 20
13.51497791446333
 10
153.0011960050333
 20
13.6708529054103
 10
153.438582407389
 20
13.83199866019452
 10
153.8736839584571
 20
13.99833484904765
 10
154.3065678602159
 20
14.16978114220134
 10
154.7373013146437
 20
14.34625720988724
 10
155.1659515237186
 20
14.52768272233701
 10
155.592585689419
 20
14.7139773497823
 10
156.017271013723
 20
14.90506076245476
 10
156.4400746986091
 20
15.10085263058605
 10
156.8610639460553
 20
15.30127262440782
 10
157.28030595804
 20
15.50624041415172
 10
157.6978679365414
 20
15.71567567004942
 10
158.1138170835378
 20
15.92949806233255
 10
158.5282206010074
 20
16.14762726123278
 10
158.9411456909285
 20
16.36998293698175
 10
159.3526595552793
 20
16.59648475981113
 10
159.7628293960381
 20
16.82705239995256
 10
160.1717224151831
 20
17.06160552763771
 10
160.5793919221693
 20
17.30006915397289
 10
160.9858356563585
 20
17.54238965356313
 10
161.3910374645892
 20
17.78851874188813
 10
161.7949811936998
 20
18.03840813442758
 10
162.1976506905289
 20
18.29200954666118
 10
162.599029801915
 20
18.54927469406864
 10
162.9991023746965
 20
18.81015529212964
 10
163.3978522557119
 20
19.07460305632388
 10
163.7952632917997
 20
19.34256970213107
 10
164.1913193297985
 20
19.61400694503089
 10
164.5860042165467
 20
19.88886650050306
 10
164.9793017988828
 20
20.16710008402725
 10
165.3711959236452
 20
20.44865941108318
 10
165.7616704376726
 20
20.73349619715054
 10
166.1507091878034
 20
21.02156215770903
 10
166.538296020876
 20
21.31280900823834
 10
166.924414783729
 20
21.60718846421817
 10
167.3090493232008
 20
21.90465224112822
 10
167.69218348613
 20
22.20515205444819
 10
168.0738011193551
 20
22.50863961965777
 10
168.4538860697144
 20
22.81506665223667
 10
168.8324221840466
 20
23.12438486766457
 10
169.2093933091901
 20
23.43654598142118
 10
169.5847832919835
 20
23.75150170898619
 10
169.9585759792652
 20
24.0692037658393
 10
170.3307552178736
 20
24.38960386746022
 10
170.7013048546474
 20
24.71265372932862
 10
171.0702087364249
 20
25.03830506692423
 10
171.4374507100447
 20
25.36650959572673
 10
171.8030146223452
 20
25.69721903121581
 10
172.1668843201651
 20
26.03038508887118
 10
172.5290436503426
 20
26.36595948417253
 10
172.8894764597164
 20
26.70389393259956
 10
173.248166595125
 20
27.04414014963198
 10
173.6050979034068
 20
27.38664985074946
 10
173.9602542314003
 20
27.73137475143173
 10
174.313619425944
 20
28.07826656715847
 10
174.6651773338764
 20
28.42727701340937
 10
175.0149118020361
 20
28.77835780566414
 10
175.3628066772614
 20
29.13146065940247
 10
175.7088458063909
 20
29.48653729010406
 10
176.0530130362631
 20
29.84353941324861
 10
176.3952922137164
 20
30.20241874431581
 10
176.7356671855894
 20
30.56312699878537
 10
177.0741217987206
 20
30.92561589213699
 10
177.4106398999484
 20
31.28983713985034
 10
177.7452053361113
 20
31.65574245740515
 10
178.0778019540479
 20
32.02328356028109
 10
178.4084136005966
 20
32.39241216395789
 10
178.7370241225959
 20
32.7630799839152
 10
179.0636173668843
 20
33.13523873563277
 10
179.3881771803003
 20
33.50884013459026
 10
179.7106874096825
 20
33.88383589626738
 10
180.0311319018691
 20
34.26017773614383
 10
180.3494945036989
 20
34.63781736969931
 10
180.6657590620102
 20
35.01670651241351
 10
180.9799094236417
 20
35.39679687976613
 10
181.2919294354316
 20
35.77804018723686
 10
181.6018029442186
 20
36.16038815030542
 10
181.9095137968411
 20
36.54379248445149
 10
182.2150458401377
 20
36.92820490515476
 10
182.5183829209468
 20
37.31357712789494
 10
182.8195088861069
 20
37.69986086815173
 10
183.1184075824565
 20
38.08700784140483
 10
183.4150630824167
 20
38.47497754320751
 10
183.7094603607384
 20
38.86376058940745
 10
184.0015846177552
 20
39.25335537592589
 10
184.2914210538005
 20
39.64376029868409
 10
184.5789548692082
 20
40.0349737536033
 10
184.8641712643115
 20
40.42699413660478
 10
185.1470554394442
 20
40.81981984360976
 10
185.4275925949396
 20
41.21344927053952
 10
185.7057679311314
 20
41.6078808133153
 10
185.9815666483532
 20
42.00311286785836
 10
186.2549739469385
 20
42.39914383008994
 10
186.5259750272207
 20
42.7959720959313
 10
186.7945550895335
 20
43.19359606130371
 10
187.0606993342105
 20
43.59201412212839
 10
187.3243929615851
 20
43.99122467432662
 10
187.585621171991
 20
44.39122611381963
 10
187.8443691657615
 20
44.79201683652869
 10
188.1006221432305
 20
45.19359523837504
 10
188.3543653047312
 20
45.59595971527995
 10
188.6055838505974
 20
45.99910866316466
 10
188.8542629811625
 20
46.40304047795043
 10
189.1003878967601
 20
46.80775355555849
 10
189.3439437977237
 20
47.21324629191012
 10
189.584915884387
 20
47.61951708292658
 10
189.8232893570834
 20
48.02656432452909
 10
190.0590494161464
 20
48.43438641263893
 10
190.2921812619097
 20
48.84298174317733
 10
190.5226700947068
 20
49.25234871206557
 10
190.7505011148713
 20
49.66248571522488
 10
190.9756595227365
 20
50.07339114857652
 10
191.1981305186363
 20
50.48506340804174
 10
191.4178993029039
 20
50.8975008895418
 10
191.6349510758731
 20
51.31070198899793
 10
191.8492710378774
 20
51.72466510233143
 10
192.0608443892503
 20
52.13938862546351
 10
192.2696563303253
 20
52.55487095431545
 10
192.4756920614361
 20
52.97111048480848
 10
192.6789367829161
 20
53.38810561286387
 10
192.879375695099
 20
53.80585473440286
 10
193.0769939983181
 20
54.2243562453467
 10
193.2717768929072
 20
54.64360854161666
 10
193.4637095791997
 20
55.06361001913399
 10
193.6527772575292
 20
55.48435907381993
 10
193.8389651282293
 20
55.90585410159575
 10
194.0222583916334
 20
56.32809349838269
 10
194.2026422480752
 20
56.75107566010199
 10
194.3801018978881
 20
57.17479898267493
 10
194.5546225414058
 20
57.59926186202274
 10
194.7261893789618
 20
58.0244626940667
 10
194.8947876108896
 20
58.45039987472803
 10
195.0604024375228
 20
58.877071799928
 10
195.2230190591949
 20
59.30447686558787
 10
195.3826226762394
 20
59.73261346762889
 10
195.53919848899
 20
60.16148000197229
 10
195.6927316977801
 20
60.59107486453936
 10
195.8432075029434
 20
61.02139645125132
 10
195.9906111048132
 20
61.45244315802944
 10
196.1349277037234
 20
61.88421338079498
 10
196.2761425000073
 20
62.31670551546916
 10
196.4142406939984
 20
62.74991795797327
 10
196.5492074860304
 20
63.18384910422854
 10
196.6810280764368
 20
63.61849735015622
 10
196.8096876655511
 20
64.05386109167758
 10
196.935171453707
 20
64.48993872471387
 10
197.0574481786049
 20
64.92673197329472
 10
197.1764207274135
 20
65.36425587388334
 10
197.2919755246685
 20
65.80252879105126
 10
197.4039989949057
 20
66.24156908937005
 10
197.5123775626606
 20
66.68139513341131
 10
197.6169976524689
 20
67.12202528774662
 10
197.7177456888664
 20
67.56347791694753
 10
197.8145080963888
 20
68.0057713855856
 10
197.9071712995717
 20
68.44892405823242
 10
197.9956217229507
 20
68.89295429945957
 10
198.0797457910617
 20
69.3378804738386
 10
198.1594299284402
 20
69.78372094594107
 10
198.234560559622
 20
70.23049408033859
 10
198.3050241091427
 20
70.67821824160268
 10
198.3707070015381
 20
71.12691179430496
 10
198.4314956613438
 20
71.57659310301696
 10
198.4872765130955
 20
72.02728053231029
 10
198.5379359813289
 20
72.47899244675648
 10
198.5833604905796
 20
72.93174721092714
 10
198.6234364653834
 20
73.38556318939379
 10
198.6580503302759
 20
73.84045874672805
 10
198.6870885097929
 20
74.29645224750148
 10
198.71043742847
 20
74.75356205628563
 10
198.7279835108428
 20
75.21180653765211
 10
198.7396131814472
 20
75.67120405617244
 10
198.7452128648187
 20
76.13177297641822
 10
198.7446689854931
 20
76.59353166296103
 10
198.737867968006
 20
77.05649848037241
 10
198.7246962368932
 20
77.52069179322396
 10
198.7050402166902
 20
77.98612996608725
 10
198.6787863319328
 20
78.45283136353382
 10
198.6458210071567
 20
78.92081435013526
 10
198.6060306668976
 20
79.39009729046313
 10
198.5593017356911
 20
79.86069854908904
 10
198.505520638073
 20
80.33263649058452
 10
198.4445737985789
 20
80.80592947952115
 10
198.3763476417445
 20
81.28059588047051
 10
198.3007285921054
 20
81.75665405800416
 10
198.2176030741975
 20
82.23412237669368
 10
198.1268575125563
 20
82.71301920111063
 10
198.0283783317175
 20
83.19336289582658
 10
197.9220519562169
 20
83.67517182541312
 10
197.8077648105901
 20
84.15846435444179
 10
197.6854033193728
 20
84.64325884748419
 10
197.5548539071007
 20
85.12957366911188
 10
197.4160029983095
 20
85.61742718389642
 10
197.2687370175348
 20
86.10683775640942
 10
197.1129423893123
 20
86.59782375122239
 10
196.9485055381778
 20
87.09040353290695
 10
196.7753128886669
 20
87.58459546603464
 10
196.5932508653153
 20
88.08041791517705
 10
196.4022058926587
 20
88.57788924490575
 10
196.2020643952327
 20
89.0770278197923
 10
195.9927127975731
 20
89.57785200440827
 10
195.7740375242155
 20
90.08038016332526
 10
195.5459249996957
 20
90.58463066111479
 10
195.3082616485492
 20
91.09062186234846
 10
195.0609338953119
 20
91.59837213159784
 10
194.8038281645193
 20
92.10789983343452
 10
194.5368308807072
 20
92.61922333243004
 10
194.2598284684112
 20
93.13236099315597
 10
193.9727073521672
 20
93.6473311801839
 10
193.6753539565105
 20
94.16415225808538
 10
193.3676547059771
 20
94.682842591432
 10
193.0495405884488
 20
95.20340569408012
 10
192.7211208451918
 20
95.7257856770253
 10
192.3825492808186
 20
96.24991180054788
 10
192.0339796999417
 20
96.7757133249282
 10
191.6755659071736
 20
97.30311951044665
 10
191.3074617071268
 20
97.83205961738354
 10
190.9298209044136
 20
98.36246290601923
 10
190.5427973036467
 20
98.89425863663405
 10
190.1465447094385
 20
99.42737606950837
 10
189.7412169264014
 20
99.96174446492255
 10
189.3269677591479
 20
100.4972930831569
 10
188.9039510122904
 20
101.0339511844919
 10
188.4723204904415
 20
101.5716480292077
 10
188.0322299982137
 20
102.1103128775847
 10
187.5838333402194
 20
102.6498749899034
 10
187.127284321071
 20
103.190263626444
 10
186.6627367453812
 20
103.7314080474869
 10
186.1903444177621
 20
104.2732375133125
 10
185.7102611428265
 20
104.815681284201
 10
185.2226407251868
 20
105.3586686204329
 10
184.7276369694554
 20
105.9021287822885
 10
184.2254036802448
 20
106.4459910300481
 10
183.7160946621674
 20
106.9901846239921
 10
183.1998637198359
 20
107.5346388244008
 10
182.6768646578626
 20
108.0792828915547
 10
182.1472512808599
 20
108.624046085734
 10
181.6111773934404
 20
109.168857667219
 10
181.0687968002166
 20
109.7136468962902
 10
180.5202633058009
 20
110.2583430332279
 10
179.9657307148058
 20
110.8028753383125
 10
179.4053528318437
 20
111.3471730718242
 10
178.8392834615271
 20
111.8911654940434
 10
178.2676764084685
 20
112.4347818652506
 10
177.6906854772805
 20
112.9779514457259
 10
177.1084644725754
 20
113.5206034957499
 10
176.5211671989657
 20
114.0626672756028
 10
175.9289474610638
 20
114.604072045565
 10
175.3319590634824
 20
115.1447470659168
 10
174.7303558108338
 20
115.6846215969386
 10
174.1242915077305
 20
116.2236248989107
 10
173.513919958785
 20
116.7616862321135
 10
172.8993949686097
 20
117.2987348568274
 10
172.2808703418172
 20
117.8347000333326
 10
171.6584998830198
 20
118.3695110219095
 10
171.0324373968301
 20
118.9030970828385
 10
170.4028366878606
 20
119.4353874764
 10
169.7698515607237
 20
119.9663114628742
 10
169.1336358200319
 20
120.4957983025416
 10
168.4943432703976
 20
121.0237772556824
 10
167.8521277164334
 20
121.550177582577
 10
167.2071429627516
 20
122.0749285435059
 10
166.5595428139649
 20
122.5979593987493
 10
165.9094810746855
 20
123.1191994085875
 10
165.2571115495261
 20
123.6385778333009
 10
164.6025880430992
 20
124.15602393317
 10
163.946064360017
 20
124.6714669684749
 10
163.2876943048923
 20
125.1848361994961
 10
162.6276316823373
 20
125.696060886514
 10
161.9660302969646
 20
126.2050702898088
 10
161.3030439533866
 20
126.7117936696609
 10
160.6388264562159
 20
127.2161602863507
 10
159.9735316100649
 20
127.7180994001586
 10
159.307313219546
 20
128.2175402713648
 10
158.6403250892718
 20
128.7144121602497
 10
157.9726828127505
 20
129.2086626322302
 10
157.3043491390738
 20
129.7003124732701
 10
156.6352486062292
 20
130.1894007744694
 10
155.965305752204
 20
130.6759666269283
 10
155.2944451149858
 20
131.1600491217469
 10
154.6225912325621
 20
131.6416873500255
 10
153.9496686429202
 20
132.1209204028642
 10
153.2756018840476
 20
132.5977873713633
 10
152.6003154939318
 20
133.0723273466228
 10
151.9237340105603
 20
133.5445794197429
 10
151.2457819719205
 20
134.0145826818239
 10
150.5663839159999
 20
134.4823762239658
 10
149.8854643807859
 20
134.9479991372691
 10
149.202947904266
 20
135.4114905128336
 10
148.5187590244277
 20
135.8728894417596
 10
147.8328222792584
 20
136.3322350151473
 10
147.1450622067456
 20
136.789566324097
 10
146.4554033448767
 20
137.2449224597087
 10
145.7637702316392
 20
137.6983425130826
 10
145.0700874050205
 20
138.149865575319
 10
144.3742794030082
 20
138.5995307375179
 10
143.6762707635896
 20
139.0473770907796
 10
142.9759860247523
 20
139.4934437262042
 10
142.2733497244837
 20
139.937769734892
 10
141.5682864007713
 20
140.380394207943
 10
140.8607205916024
 20
140.8213562364575
 10
140.1505768349647
 20
141.2606949115357
 10
139.4377796688455
 20
141.6984493242776
 10
138.7222536312323
 20
142.1346585657836
 10
138.0039232601125
 20
142.5693617271538
 10
137.2827130934737
 20
143.0025978994883
 10
136.5585476693032
 20
143.4344061738873
 10
135.8313515255886
 20
143.864825641451
 10
135.1010492003173
 20
144.2938953932796
 10
134.3675652314768
 20
144.7216545204733
 10
133.6308241570544
 20
145.1481421141321
 10
132.8907505150378
 20
145.5733972653564
 10
132.1472688434143
 20
145.9974590652462
 10
131.4003036801714
 20
146.4203666049019
 10
130.6497795632965
 20
146.8421589754234
 10
129.8956210307771
 20
147.2628752679111
 10
129.1377526206008
 20
147.682554573465
 10
128.3760988707549
 20
148.1012359831854
 10
127.6105843192269
 20
148.5189585881724
 10
126.8411335040042
 20
148.9357614795263
 10
126.0676709630744
 20
149.3516837483471
 10
125.2901212344249
 20
149.7667644857351
 10
124.5084088560431
 20
150.1810427827905
 10
123.7224583659165
 20
150.5945577306133
 10
122.9321943020325
 20
151.0073484203039
 10
122.1375412023787
 20
151.4194539429623
 10
121.3384236049425
 20
151.8309133896887
 10
120.5347660477113
 20
152.2417658515834
 10
119.7264930686726
 20
152.6520504197465
 10
118.9135292058139
 20
153.0618061852782
 10
118.0957989971226
 20
153.4710722392786
 10
117.2732269805861
 20
153.8798876728479
 10
116.4457376941921
 20
154.2882915770863
 10
115.6132556759278
 20
154.696323043094
 10
114.7757054637808
 20
155.1040211619711
 10
113.9330115957385
 20
155.5114250248179
 10
113.0850986097884
 20
155.9185737227345
 10
112.2318910439179
 20
156.325506346821
 10
111.3733134361146
 20
156.7322619881778
 10
110.5093327528482
 20
157.1388539452606
 10
109.6400856745183
 20
157.5451923459487
 10
108.7657513100069
 20
157.951161525477
 10
107.8865087681959
 20
158.3566458190803
 10
107.0025371579674
 20
158.7615295619937
 10
106.1140155882031
 20
159.1656970894519
 10
105.2211231677851
 20
159.5690327366899
 10
104.3240390055954
 20
159.9714208389427
 10
103.4229422105159
 20
160.3727457314452
 10
102.5180118914285
 20
160.7728917494322
 10
101.6094271572152
 20
161.1717432281387
 10
100.697367116758
 20
161.5691845027996
 10
99.7820108789388
 20
161.9650999086498
 10
98.86353755263957
 20
162.3593737809243
 10
97.94212624674225
 20
162.7518904548579
 10
97.0179560701288
 20
163.1425342656856
 10
96.09120613168118
 20
163.5311895486422
 10
95.16205554028134
 20
163.9177406389628
 10
94.23068340481124
 20
164.3020718718821
 10
93.29726883415282
 20
164.6840675826352
 10
92.36199093718807
 20
165.0636121064569
 10
91.42502882279888
 20
165.4405897785822
 10
90.48656159986726
 20
165.8148849342459
 10
89.54676837727513
 20
166.186381908683
 10
88.60582826390448
 20
166.5549650371284
 10
87.66392036863724
 20
166.920518654817
 10
86.72122380035535
 20
167.2829270969838
 10
85.7779176679408
 20
167.6420746988636
 10
84.83418108027553
 20
167.9978457956913
 10
83.89019314624147
 20
168.350124722702
 10
82.9461329747206
 20
168.6987958151304
 10
82.00217967459487
 20
169.0437434082115
 10
81.05851235474623
 20
169.3848518371803
 10
80.11531012405663
 20
169.7220054372716
 10
79.17275209140803
 20
170.0550885437203
 10
78.2310173656824
 20
170.3839854917614
 10
77.29028505576167
 20
170.7085806166298
 10
76.3507342705278
 20
171.0287582535604
 10
75.41254411886274
 20
171.3444027377881
 10
74.47589370964845
 20
171.6553984045478
 10
73.54096215176688
 20
171.9616295890745
 10
72.60792855409998
 20
172.262980626603
 10
71.67697202552972
 20
172.5593358523683
 10
70.74827167493805
 20
172.8505796016053
 10
69.82200661120692
 20
173.1365962095489
 10
68.89835594321828
 20
173.4172700114341
 10
67.97749877985409
 20
173.6924853424956
 10
67.05961422999628
 20
173.9621265379685
 10
66.14488140252683
 20
174.2260779330877
 10
65.2334794063277
 20
174.484223863088
 10
64.32558735028084
 20
174.7364486632045
 10
63.42138434326819
 20
174.9826366686719
 10
62.52104949417171
 20
175.2226722147253
 10
61.62476191187336
 20
175.4564396365996
 10
60.73270070525508
 20
175.6838232695295
 10
59.84504498319883
 20
175.9047074487502
 10
58.96197385458657
 20
176.1189765094964
 10
58.08366642830026
 20
176.3265147870032
 10
57.21030181322184
 20
176.5272066165053
 10
56.34205911823327
 20
176.7209363332378
 10
55.47911745221649
 20
176.9075882724356
 10
54.62165592405347
 20
177.0870467693335
 10
53.76985364262617
 20
177.2591961591665
 10
52.92388971681653
 20
177.4239207771695
 10
52.08393069205484
 20
177.5811157886962
 10
51.25009285996461
 20
177.7307196795759
 10
50.42247994871772
 20
177.8726817657565
 10
49.60119568648604
 20
178.0069513631861
 10
48.7863438014414
 20
178.1334777878127
 10
47.9780280217557
 20
178.2522103555843
 10
47.17635207560078
 20
178.3630983824489
 10
46.38141969114848
 20
178.4660911843546
 10
45.59333459657068
 20
178.5611380772494
 10
44.81220052003926
 20
178.6481883770813
 10
44.03812118972604
 20
178.7271913997982
 10
43.2712003338029
 20
178.7980964613484
 10
42.5115416804417
 20
178.8608528776796
 10
41.75924895781431
 20
178.9154099647401
 10
41.01442589409257
 20
178.9617170384778
 10
40.27717621744836
 20
178.9997234148406
 10
39.91142381433402
 20
179.0155980027403
 10
39.54760365605351
 20
179.0293784097767
 10
39.18572870862832
 20
179.0410583004435
 10
38.82581193807992
 20
179.0506313392341
 10
38.46786631042978
 20
179.0580911906421
 10
38.11190479169942
 20
179.0634315191608
 10
37.75794034791028
 20
179.0666459892839
 10
37.40598594508388
 20
179.0677282655048
 10
37.05605454924168
 20
179.066672012317
 10
36.70815912640516
 20
179.063470894214
 10
36.36231264259581
 20
179.0581185756895
 10
36.01852806383512
 20
179.0506087212367
 10
35.67681835614455
 20
179.0409349953493
 10
35.33719648554562
 20
179.0290910625207
 10
34.99967541805977
 20
179.0150705872445
 10
34.66426811970851
 20
178.9988672340141
 10
34.33098755651332
 20
178.9804746673231
 10
33.99984669449567
 20
178.9598865516649
 10
33.67085849967705
 20
178.9370965515331
 10
33.34403593807895
 20
178.9120983314211
 10
33.01939197572283
 20
178.8848855558225
 10
32.69693957863021
 20
178.8554518892307
 10
32.37669171282253
 20
178.8237909961394
 10
32.0586613443213
 20
178.7898965410419
 10
31.742861439148
 20
178.7537621884318
 10
31.4293049633241
 20
178.7153816028025
 10
31.11800488287109
 20
178.6747484486477
 10
30.80897416381045
 20
178.6318563904607
 10
30.50222577216367
 20
178.586699092735
 10
30.19777267395223
 20
178.5392702199643
 10
29.89562783519761
 20
178.489563436642
 10
29.59580422192129
 20
178.4375724072615
 10
29.29831480014475
 20
178.3832907963164
 10
29.00317253588949
 20
178.3267122683003
 10
28.71039039517697
 20
178.2678304877065
 10
28.41998134402868
 20
178.2066391190287
 10
28.13195834846611
 20
178.1431318267602
 10
27.84633437451074
 20
178.0773022753947
 10
27.56312238818405
 20
178.0091441294255
 10
27.28233535550752
 20
177.9386510533463
 10
27.00398624250263
 20
177.8658167116504
 10
26.72808801519087
 20
177.7906347688316
 10
26.45465363959372
 20
177.7130988893831
 10
26.18369608173267
 20
177.6332027377985
 10
25.91522830762919
 20
177.5509399785714
 10
25.64926328330477
 20
177.4663042761952
 10
25.38581397478089
 20
177.3792892951634
 10
25.12489334807903
 20
177.2898886999695
 10
24.86651436922067
 20
177.1980961551071
 10
24.61069000422731
 20
177.1039053250696
 10
24.35743321912041
 20
177.0073098743506
 10
24.10675697992146
 20
176.9083034674435
 10
23.85867425265196
 20
176.8068797688419
 10
23.61319800333336
 20
176.7030324430392
 10
23.37034119798717
 20
176.5967551545289
 10
23.13011680263487
 20
176.4880415678046
 10
22.89253778329793
 20
176.3768853473597
 10
22.65761710599783
 20
176.2632801576879
 10
22.42536773675606
 20
176.1472196632824
 10
22.19580264159411
 20
176.028697528637
 10
21.96893478653345
 20
175.907707418245
 10
21.74477713759557
 20
175.7842429965999
 10
21.52334266080195
 20
175.6582979281954
 10
21.30464432217408
 20
175.5298658775248
 10
21.08869508773343
 20
175.3989405090816
 10
20.87550792350148
 20
175.2655154873595
 10
20.66509579549973
 20
175.1295844768518
 10
20.45747166974964
 20
174.9911411420522
 10
20.25264851227272
 20
174.850179147454
 10
20.05063928909043
 20
174.7066921575508
 10
19.85145696622426
 20
174.5606738368361
 10
19.6551145096957
 20
174.4121178498034
 10
19.46162488552622
 20
174.2610178609462
 10
19.27100105973731
 20
174.107367534758
 10
19.08325599835045
 20
173.9511605357322
 10
18.89840266738712
 20
173.7923905283625
 10
18.7164540328688
 20
173.6310511771424
 10
18.53742306081699
 20
173.4671361465652
 10
18.36132271725315
 20
173.3006391011245
 10
18.18816596819878
 20
173.1315537053138
 10
18.01796577967535
 20
172.9598736236267
 10
17.85073511770435
 20
172.7855925205566
 10
17.68648694830726
 20
172.6087040605969
 10
17.52523423750556
 20
172.4292019082413
 10
17.36698995132074
 20
172.2470797279833
 10
17.21176705577428
 20
172.0623311843163
 10
17.05957851688765
 20
171.8749499417338
 10
16.91043730068235
 20
171.6849296647293
 10
16.76435637317986
 20
171.4922640177964
 10
16.62134870040165
 20
171.2969466654285
 10
16.48142724836921
 20
171.0989712721192
 10
16.34460498310403
 20
170.8983315023619
 10
16.21089487062758
 20
170.6950210206501
 10
16.08030987696135
 20
170.4890334914775
 10
15.95286296812682
 20
170.2803625793373
  0
LWPOLYLINE
  5
3BE
330
1F
100
AcDbEntity
  8
ACCESSORIES$BACK_PICKGUARD
100
AcDbPolyline
 90
      794
 70
     1
 43
0.0
 38
-42.0
 10
21.89186514522578
 20
166.5709429243795
 10
21.81670400424282
 20
166.4376999396706
 10
21.74408375991532
 20
166.303058254379
 10
21.67394378182141
 20
166.1670996948279
 10
21.60622343953922
 20
166.0299060873404
 10
21.54086210264686
 20
165.8915592582397
 10
21.47779914072245
 20
165.7521410338489
 10
21.41697392334412
 20
165.6117332404912
 10
21.35832582008999
 20
165.4704177044896
 10
21.29218855536573
 20
165.3035031381829
 10
21.22887189606406
 20
165.1355206695018
 10
21.16828102836097
 20
164.966540081344
 10
21.11032113843245
 20
164.7966311566074
 10
21.0548974124545
 20
164.6258636781899
 10
21.00191503660312
 20
164.4543074289893
 10
20.95127919705429
 20
164.2820321919035
 10
20.90289507998402
 20
164.1091077498302
 10
20.84931055925018
 20
163.9071389412778
 10
20.79856851905352
 20
163.7044392723969
 10
20.75059048396233
 20
163.5010625551292
 10
20.70529797854488
 20
163.2970626014166
 10
20.66261252736946
 20
163.092493223201
 10
20.62245565500433
 20
162.8874082324241
 10
20.58474888601779
 20
162.6818614410278
 10
20.54941374497811
 20
162.4759066609539
 10
20.4987513962263
 20
162.153248498694
 10
20.45344785804044
 20
161.8298166013544
 10
20.41325835943258
 20
161.5057027053887
 10
20.37793812941472
 20
161.1809985472504
 10
20.34724239699886
 20
160.8557958633932
 10
20.32092639119703
 20
160.5301863902706
 10
20.29874534102124
 20
160.2042618643362
 10
20.28045447548351
 20
159.8781140220436
 10
20.26734479600554
 20
159.5896582502839
 10
20.257015760946
 20
159.3011161446046
 10
20.24939887466245
 20
159.0125042097794
 10
20.24442564151246
 20
158.7238389505822
 10
20.2420275658536
 20
158.4351368717868
 10
20.24213615204344
 20
158.1464144781672
 10
20.24468290443956
 20
157.8576882744972
 10
20.2495993273995
 20
157.5689747655507
 10
20.25681692528086
 20
157.2802904561015
 10
20.26626720244119
 20
156.9916518509236
 10
20.27788166323807
 20
156.7030754547907
 10
20.29159181202906
 20
156.4145777724768
 10
20.32502519102366
 20
155.8378845684014
 10
20.36601937428554
 20
155.2617042768881
 10
20.39311616024032
 20
154.9270638020217
 10
20.4225309024384
 20
154.5926448652799
 10
20.45421197685403
 20
154.2584510812684
 10
20.48810775946149
 20
153.9244860645928
 10
20.52416662623502
 20
153.5907534298591
 10
20.56233695314887
 20
153.2572567916728
 10
20.60256711617732
 20
152.9239997646398
 10
20.64480549129462
 20
152.5909859633659
 10
20.7351003816928
 20
151.9257024965181
 10
20.83280863213749
 20
151.2614353079754
 10
20.93751725042273
 20
150.5982133145839
 10
21.04881324434262
 20
149.9360654331895
 10
21.17989389169248
 20
149.2008112590068
 10
21.31831091132855
 20
148.4669165266519
 10
21.46376089697614
 20
147.7343758621445
 10
21.6159404423606
 20
147.0031838915044
 10
21.77454614120725
 20
146.2733352407514
 10
21.93927458724144
 20
145.5448245359052
 10
22.10982237418849
 20
144.8176464029857
 10
22.28588609577373
 20
144.0917954680127
 10
22.48114930776142
 20
143.3123492620174
 10
22.68224660843678
 20
142.534412147118
 10
22.88897862769618
 20
141.7579632140202
 10
23.10114599543598
 20
140.9829815534299
 10
23.31854934155255
 20
140.2094462560529
 10
23.54098929594225
 20
139.437336412595
 10
23.76826648850147
 20
138.666631113762
 10
24.00018154912657
 20
137.8973094502597
 10
24.24789439771371
 20
137.0928629557936
 10
24.50032193261806
 20
136.2898852590046
 10
24.75730815391616
 20
135.4883497392975
 10
25.01869706168454
 20
134.6882297760766
 10
25.28433265599976
 20
133.8894987487467
 10
25.55405893693835
 20
133.0921300367122
 10
25.82771990457687
 20
132.2960970193778
 10
26.10515955899185
 20
131.501373076148
 10
26.33150211219944
 20
130.8615667330517
 10
26.56019087713779
 20
130.2225998458874
 10
26.79121718846141
 20
129.5844782295649
 10
27.02457238082479
 20
128.9472076989942
 10
27.26024778888242
 20
128.3107940690853
 10
27.4982347472888
 20
127.6752431547482
 10
27.73852459069843
 20
127.0405607708929
 10
27.98110865376582
 20
126.4067527324293
 10
28.22597827114544
 20
125.7738248542674
 10
28.47312477749182
 20
125.1417829513173
 10
28.72253950745943
 20
124.5106328384888
 10
28.97421379570278
 20
123.880380330692
 10
29.22813897687637
 20
123.2510312428368
 10
29.48430638563469
 20
122.6225913898333
 10
29.74270735663223
 20
121.9950665865913
 10
30.00333322452352
 20
121.3684626480209
 10
30.34476573588408
 20
120.5569035516274
 10
30.68991623334994
 20
119.7469186140023
 10
31.03877237336402
 20
118.9385222199213
 10
31.39132181236925
 20
118.1317287541601
 10
31.74755220680856
 20
117.3265526014944
 10
32.1074512131249
 20
116.5230081467
 10
32.47100648776117
 20
115.7211097745525
 10
32.83820568716033
 20
114.9208718698278
 10
33.20903646776527
 20
114.1223088173015
 10
33.58348648601897
 20
113.3254350017493
 10
33.96154339836433
 20
112.5302648079471
 10
34.34319486124429
 20
111.7368126206704
 10
34.72842853110177
 20
110.9450928246951
 10
35.11723206437971
 20
110.1551198047969
 10
35.50959311752105
 20
109.3669079457514
 10
35.9054993469687
 20
108.5804716323345
 10
36.31557349765576
 20
107.7750538977085
 10
36.72936027889882
 20
106.9715385730703
 10
37.14684974124309
 20
106.1699420014417
 10
37.56803193523375
 20
105.370280525845
 10
37.992896911416
 20
104.5725704893022
 10
38.42143472033501
 20
103.7768282348352
 10
38.85363541253597
 20
102.9830701054662
 10
39.28948903856408
 20
102.1913124442172
 10
39.72898564896452
 20
101.4015715941103
 10
40.17211529428248
 20
100.6138638981674
 10
40.61886802506314
 20
99.82820569941067
 10
41.0692338918517
 20
99.04461334086213
 10
41.52320294519334
 20
98.26310316554381
 10
41.98076523563325
 20
97.4836915164778
 10
42.44191081371662
 20
96.70639473668611
 10
42.90662972998864
 20
95.9312291691908
 10
43.37491203499449
 20
95.15821115701391
 10
43.84674777927936
 20
94.38735704317747
 10
44.32212701338844
 20
93.61868317070358
 10
44.80103978786693
 20
92.85220588261424
 10
45.28347615325999
 20
92.08794152193153
 10
45.76942616011283
 20
91.32590643167748
 10
46.25887985897063
 20
90.56611695487413
 10
46.75182730037857
 20
89.80858943454352
 10
47.24825853488186
 20
89.05334021370771
 10
47.74816361302567
 20
88.30038563538878
 10
48.25153258535519
 20
87.54974204260873
 10
48.75835550241561
 20
86.80142577838961
 10
49.26862241475212
 20
86.0554531857535
 10
49.78232337290991
 20
85.31184060772243
 10
50.29944842743416
 20
84.57060438731844
 10
50.81998762887007
 20
83.83176086756359
 10
51.35831702359179
 20
83.07520674438445
 10
51.90022736140707
 20
82.32121251262
 10
52.4457065170447
 20
81.56979536200149
 10
52.99474236523348
 20
80.82097248226017
 10
53.5473227807022
 20
80.07476106312731
 10
54.10343563817963
 20
79.33117829433415
 10
54.66306881239457
 20
78.59024136561193
 10
55.22621017807582
 20
77.85196746669192
 10
55.79284760995215
 20
77.11637378730536
 10
56.36296898275236
 20
76.38347751718351
 10
56.93656217120525
 20
75.6532958460576
 10
57.51361505003958
 20
74.9258459636589
 10
58.09411549398417
 20
74.20114505971867
 10
58.67805137776779
 20
73.47921032396815
 10
59.26541057611924
 20
72.76005894613857
 10
59.8561809637673
 20
72.04370811596121
 10
60.45035041544077
 20
71.33017502316731
 10
61.04790680586842
 20
70.61947685748814
 10
61.64883800977906
 20
69.9116308086549
 10
62.25313190190148
 20
69.20665406639888
 10
62.86077635696446
 20
68.50456382045132
 10
63.47175924969679
 20
67.80537726054351
 10
64.08606845482726
 20
67.10911157640663
 10
64.70369184708466
 20
66.41578395777199
 10
65.32461730119778
 20
65.72541159437083
 10
65.9488326918954
 20
65.03801167593437
 10
66.57632589390633
 20
64.3536013921939
 10
67.20708478195934
 20
63.67219793288064
 10
67.84109723078322
 20
62.99381848772585
 10
68.47835111510679
 20
62.31848024646079
 10
69.1188343096588
 20
61.6462003988167
 10
69.76253468916805
 20
60.97699613452485
 10
70.35532870697892
 20
60.36635823589447
 10
70.95080574699651
 20
59.75833334999634
 10
71.5489564206968
 20
59.15293640520446
 10
72.1497713395558
 20
58.55018232989282
 10
72.7532411150495
 20
57.9500860524354
 10
73.35935635865394
 20
57.3526625012062
 10
73.96810768184508
 20
56.75792660457921
 10
74.57948569609893
 20
56.16589329092842
 10
75.1934810128915
 20
55.57657748862781
 10
75.8100842436988
 20
54.98999412605137
 10
76.42928599999681
 20
54.4061581315731
 10
77.05107689326152
 20
53.82508443356699
 10
77.67544753496898
 20
53.24678796040701
 10
78.30238853659512
 20
52.67128364046717
 10
78.93189050961601
 20
52.09858640212146
 10
79.56394406550761
 20
51.52871117374385
 10
80.19853981574596
 20
50.96167288370835
 10
80.835668371807
 20
50.39748646038895
 10
81.47532034516678
 20
49.83616683215962
 10
82.11748634730128
 20
49.27772892739436
 10
82.7621569896865
 20
48.72218767446716
 10
83.40932288379848
 20
48.16955800175202
 10
84.05897464111317
 20
47.61985483762291
 10
84.7111028731066
 20
47.07309311045384
 10
85.36569819125475
 20
46.52928774861878
 10
86.02275120703364
 20
45.98845368049174
 10
86.68225253191925
 20
45.4506058344467
 10
87.3441927773876
 20
44.91575913885763
 10
88.00856255491469
 20
44.38392852209856
 10
88.67535247597652
 20
43.85512891254344
 10
89.34455315204909
 20
43.32937523856627
 10
90.01615519460839
 20
42.80668242854107
 10
90.76308660371016
 20
42.23112883379625
 10
91.51293900288303
 20
41.65937342831606
 10
92.2656968072907
 20
41.0914383236983
 10
93.0213444320969
 20
40.52734563154081
 10
93.77986629246537
 20
39.9671174634414
 10
94.54124680355983
 20
39.41077593099791
 10
95.305470380544
 20
38.85834314580813
 10
96.07252143858163
 20
38.30984121946991
 10
96.84238439283644
 20
37.76529226358105
 10
97.61504365847213
 20
37.22471838973939
 10
98.39048365065246
 20
36.68814170954275
 10
99.16868878454115
 20
36.15558433458894
 10
99.94964347530193
 20
35.62706837647578
 10
100.7333321380985
 20
35.10261594680111
 10
101.5197391880946
 20
34.58224915716274
 10
102.308849040454
 20
34.06599011915849
 10
102.921999171734
 20
33.66890613698881
 10
103.5367792448594
 20
33.27435664343788
 10
104.1532065746265
 20
32.88239775345725
 10
104.7712984758317
 20
32.49308558199854
 10
105.3910722632712
 20
32.10647624401332
 10
106.0125452517413
 20
31.72262585445315
 10
106.6357347560384
 20
31.34159052826964
 10
107.2606580909588
 20
30.96342638041438
 10
107.8873325712989
 20
30.58818952583894
 10
108.5157755118548
 20
30.21593607949491
 10
109.146004227423
 20
29.84672215633387
 10
109.7780360327998
 20
29.48060387130741
 10
110.4118882427815
 20
29.11763733936711
 10
111.0475781721644
 20
28.75787867546455
 10
111.6851231357448
 20
28.40138399455132
 10
112.324540448319
 20
28.048209411579
 10
113.0589533044784
 20
27.64800619995487
 10
113.7958675489214
 20
27.25237309985153
 10
114.5353074511886
 20
26.86145441949067
 10
115.2772972808206
 20
26.47539446709395
 10
116.0218613073578
 20
26.09433755088307
 10
116.7690238003408
 20
25.71842797907969
 10
117.5188090293101
 20
25.34781005990551
 10
118.2712412638064
 20
24.98262810158218
 10
118.9692465928596
 20
24.64999534969774
 10
119.6695873962766
 20
24.32234911096113
 10
120.3723160064773
 20
23.99990643597657
 10
121.0774847558817
 20
23.68288437534829
 10
121.7851459769097
 20
23.37149997968052
 10
122.4953520019811
 20
23.06597029957749
 10
123.2081551635159
 20
22.76651238564342
 10
123.9236077939339
 20
22.47334328848255
 10
124.5693371527721
 20
22.21526645897966
 10
125.2172919427629
 20
21.9627698544827
 10
125.8675124271374
 20
21.71617187238681
 10
126.5200388691266
 20
21.47579091008713
 10
127.1749115319613
 20
21.24194536497878
 10
127.8321706788726
 20
21.01495363445689
 10
128.4918565730916
 20
20.79513411591661
 10
128.822622132701
 20
20.68801343532555
 10
129.154009477849
 20
20.58280520675306
 10
129.7339206012766
 20
20.40389284557803
 10
130.3157358394815
 20
20.2312564239342
 10
130.8994497001645
 20
20.06522433195705
 10
131.4850566910263
 20
19.90612495978208
 10
132.0725513197678
 20
19.75428669754478
 10
132.6619280940897
 20
19.61003793538063
 10
132.9573205694997
 20
19.54086223874333
 10
133.2531815216926
 20
19.47370706342512
 10
133.549510264131
 20
19.40861345819295
 10
133.8463061102774
 20
19.34562247181375
 10
134.3673494134329
 20
19.24046187842609
 10
134.8897449173665
 20
19.14207861334663
 10
135.4134134521948
 20
19.05067138142794
 10
135.9382758480344
 20
18.9664388875226
 10
136.464252935002
 20
18.8895798364832
 10
136.9912655432141
 20
18.82029293316232
 10
137.5192345027875
 20
18.75877688241255
 10
137.7835528737461
 20
18.73099502201826
 10
138.0480806438388
 20
18.70523038908646
 10
138.5200126328616
 20
18.66439547049107
 10
138.992476981576
 20
18.63021642578532
 10
139.4653723545538
 20
18.60286277204877
 10
139.9385974163671
 20
18.58250402636099
 10
140.4120508315876
 20
18.56930970580157
 10
140.8856312647873
 20
18.56344932745006
 10
141.3592373805381
 20
18.56509240838604
 10
141.8327678434119
 20
18.57440846568908
 10
142.2677162663102
 20
18.58986149980854
 10
142.7024011013229
 20
18.61196628869522
 10
143.1367081922795
 20
18.64075314823479
 10
143.5705233830093
 20
18.67625239431295
 10
144.0037325173416
 20
18.71849434281538
 10
144.4362214391059
 20
18.76750930962775
 10
144.8678759921315
 20
18.82332761063578
 10
145.2985820202477
 20
18.88597956172512
 10
145.7095617286001
 20
18.95231759783139
 10
146.1194807424618
 20
19.02489729274716
 10
146.5282506073671
 20
19.10368050735471
 10
146.9357828688504
 20
19.18862910253632
 10
147.341989072446
 20
19.27970493917424
 10
147.7467807636882
 20
19.37686987815076
 10
148.1500694881113
 20
19.48008578034815
 10
148.5517667912496
 20
19.58931450664868
 10
148.9504206520638
 20
19.70409672188384
 10
149.3473631676297
 20
19.82468300280128
 10
149.7425513482894
 20
19.95094370296692
 10
150.1359422043846
 20
20.08274917594667
 10
150.5274927462573
 20
20.21996977530647
 10
150.9171599842493
 20
20.36247585461224
 10
151.3049009287026
 20
20.5101377674299
 10
151.690672589959
 20
20.66282586732537
 10
152.0860132944402
 20
20.82524610590005
 10
152.4792314966845
 20
20.99269824411498
 10
152.870340489999
 20
21.16501706847379
 10
153.2593535676912
 20
21.34203736548009
 10
153.6462840230683
 20
21.5235939216375
 10
154.0311451494376
 20
21.70952152344963
 10
154.4139502401063
 20
21.89965495742011
 10
154.7947125883819
 20
22.09382901005254
 10
155.0750965206383
 20
22.23998796899611
 10
155.3543770381315
 20
22.38822794367652
 10
155.6325614709971
 20
22.5385088882337
 10
155.909657149371
 20
22.69079075680761
 10
156.1856714033888
 20
22.84503350353817
 10
156.4606115631862
 20
23.00119708256533
 10
156.734484958899
 20
23.15924144802903
 10
157.0072989206628
 20
23.31912655406921
 10
157.2790607786135
 20
23.48081235482581
 10
157.5497778628866
 20
23.64425880443876
 10
158.0881070309433
 20
23.97627346679349
 10
158.6223450659188
 20
24.31485017425293
 10
159.1525506088986
 20
24.65966855993659
 10
159.5494219731177
 20
24.92342663072117
 10
159.9440470498884
 20
25.19048909352421
 10
160.3364356683626
 20
25.46079857135975
 10
160.7265976576919
 20
25.73429768724186
 10
161.1145428470281
 20
26.01092906418457
 10
161.5002810655229
 20
26.29063532520194
 10
161.8838221423282
 20
26.57335909330803
 10
162.2651759065955
 20
26.85904299151689
 10
162.6443521874767
 20
27.14762964284255
 10
163.0213608141235
 20
27.43906167029909
 10
163.3962116156876
 20
27.73328169690054
 10
163.7689144213207
 20
28.03023234566097
 10
164.1394790601747
 20
28.32985623959442
 10
164.5079153614012
 20
28.63209600171493
 10
164.874233154152
 20
28.93689425503658
 10
165.2384422675788
 20
29.2441936225734
 10
165.6150579905339
 20
29.56643563119705
 10
165.9894151918874
 20
29.89127941214524
 10
166.3615262446567
 20
30.21868268539548
 10
166.7314035218591
 20
30.54860317092525
 10
167.0990593965122
 20
30.88099858871207
 10
167.4645062416331
 20
31.21582665873342
 10
167.8277564302394
 20
31.55304510096682
 10
168.1888223353483
 20
31.89261163538976
 10
168.5477163299773
 20
32.23448398197974
 10
168.9044507871438
 20
32.57861986071426
 10
169.2590380798651
 20
32.92497699157082
 10
169.6114905811585
 20
33.27351309452693
 10
169.9618206640416
 20
33.62418588956008
 10
170.3100407015316
 20
33.97695309664778
 10
170.6561630666459
 20
34.33177243576752
 10
171.000200132402
 20
34.6886016268968
 10
171.3468506861109
 20
35.05234797372809
 10
171.6913789554577
 20
35.41809049208732
 10
172.0337929749524
 20
35.78580330590064
 10
172.3741007791051
 20
36.15546053909425
 10
172.7123104024257
 20
36.52703631559432
 10
173.0484298794242
 20
36.90050475932703
 10
173.3824672446107
 20
37.27583999421857
 10
173.7144305324952
 20
37.65301614419511
 10
174.0443277775877
 20
38.03200733318283
 10
174.3721670143983
 20
38.41278768510791
 10
174.6979562774368
 20
38.79533132389652
 10
175.0217036012133
 20
39.17961237347486
 10
175.343417020238
 20
39.5656049577691
 10
175.6631045690207
 20
39.9532832007054
 10
175.9807742820714
 20
40.34262122620996
 10
176.2964341939003
 20
40.73359315820895
 10
176.6048707783243
 20
41.11961485006738
 10
176.911348446822
 20
41.50719195882989
 10
177.215843816278
 20
41.8963250770437
 10
177.5183335035771
 20
42.28701479725602
 10
177.8187941256041
 20
42.67926171201408
 10
178.1172022992438
 20
43.0730664138651
 10
178.4135346413808
 20
43.46842949535628
 10
178.7077677689
 20
43.86535154903486
 10
178.999878298686
 20
44.26383316744804
 10
179.2898428476237
 20
44.66387494314304
 10
179.5776380325977
 20
45.06547746866708
 10
179.863240470493
 20
45.46864133656738
 10
180.1466267781941
 20
45.87336713939116
 10
180.4277735725859
 20
46.27965546968564
 10
180.706657470553
 20
46.68750691999802
 10
180.9832550889804
 20
47.09692208287554
 10
181.2475187617933
 20
47.49279684541098
 10
181.5096021043483
 20
47.89012594058698
 10
181.7694680905184
 20
48.28891206844248
 10
182.0270796941765
 20
48.68915792901642
 10
182.2823998891954
 20
49.09086622234776
 10
182.5353916494479
 20
49.4940396484754
 10
182.786017948807
 20
49.8986809074383
 10
183.0342417611454
 20
50.30479269927541
 10
183.2800260603361
 20
50.71237772402566
 10
183.5233338202518
 20
51.12143868172797
 10
183.7641280147654
 20
51.53197827242131
 10
184.0023716177499
 20
51.94399919614459
 10
184.238027603078
 20
52.35750415293676
 10
184.4710589446226
 20
52.77249584283678
 10
184.7014286162566
 20
53.18897696588356
 10
184.9290995918529
 20
53.60695022211605
 10
185.1460297434822
 20
54.01137411978643
 10
185.3603822776119
 20
54.41718033068932
 10
185.5721229303476
 20
54.82436144744884
 10
185.7812174377949
 20
55.23291006268914
 10
185.9876315360594
 20
55.64281876903438
 10
186.1913309612469
 20
56.05408015910869
 10
186.392281449463
 20
56.46668682553621
 10
186.5904487368132
 20
56.88063136094108
 10
186.7857985594034
 20
57.29590635794746
 10
186.9782966533391
 20
57.71250440917947
 10
187.1679087547261
 20
58.13041810726128
 10
187.3546005996698
 20
58.54964004481702
 10
187.5383379242761
 20
58.97016281447084
 10
187.7190864646506
 20
59.39197900884687
 10
187.8968119568988
 20
59.81508122056925
 10
188.0714801371266
 20
60.23946204226215
 10
188.2310564060295
 20
60.63504913879537
 10
188.3879303634747
 20
61.03172195582667
 10
188.5420705405058
 20
61.42946800956891
 10
188.6934454681665
 20
61.82827481623501
 10
188.8420236775004
 20
62.22812989203782
 10
188.9877736995513
 20
62.62902075319024
 10
189.1306640653628
 20
63.03093491590515
 10
189.2706633059785
 20
63.43385989639545
 10
189.4077399524422
 20
63.83778321087401
 10
189.5418625357974
 20
64.2426923755537
 10
189.6729995870879
 20
64.64857490664744
 10
189.8011196373573
 20
65.05541832036809
 10
189.9261912176493
 20
65.46321013292855
 10
190.0481828590076
 20
65.87193786054169
 10
190.1670630924758
 20
66.28158901942041
 10
190.2828004490976
 20
66.69215112577757
 10
190.3962970357805
 20
67.10716113170812
 10
190.5064011469796
 20
67.52308734584943
 10
190.6129495566813
 20
67.93993197284107
 10
190.7157790388726
 20
68.35769721732262
 10
190.8147263675401
 20
68.77638528393372
 10
190.9096283166707
 20
69.19599837731394
 10
191.0003216602511
 20
69.61653870210287
 10
191.0866431722681
 20
70.03800846294011
 10
191.1654388497253
 20
70.44450917917155
 10
191.2398857274259
 20
70.85183800224564
 10
191.3098355337034
 20
71.25996012099053
 10
191.3751399968916
 20
71.6688407242344
 10
191.4356508453241
 20
72.0784450008054
 10
191.4912198073345
 20
72.48873813953173
 10
191.5416986112565
 20
72.89968532924155
 10
191.5869389854236
 20
73.31125175876302
 10
191.6258928425448
 20
73.71337283622545
 10
191.6596032059682
 20
74.11597755172124
 10
191.6879546418254
 20
74.51899317588992
 10
191.7108317162485
 20
74.92234697937097
 10
191.7281189953695
 20
75.32596623280389
 10
191.7397010453201
 20
75.72977820682817
 10
191.7454624322324
 20
76.13371017208333
 10
191.7452877222382
 20
76.53768939920883
 10
191.7390503206135
 20
76.94266331484472
 10
191.7266889441213
 20
77.3475085572697
 10
191.7081619046429
 20
77.7521220501976
 10
191.6834275140598
 20
78.15640071734222
 10
191.6524440842534
 20
78.56024148241741
 10
191.6151699271053
 20
78.96354126913698
 10
191.5715633544968
 20
79.36619700121476
 10
191.5215826783096
 20
79.76810560236456
 10
191.4627855797507
 20
80.18537009652349
 10
191.397094348062
 20
80.60160791543515
 10
191.3245602108854
 20
81.01671276844587
 10
191.2452343958635
 20
81.43057836490188
 10
191.1591681306382
 20
81.84309841414942
 10
191.0664126428518
 20
82.25416662553478
 10
190.9670191601466
 20
82.6636767084042
 10
190.8610389101648
 20
83.07152237210393
 10
190.7388401212942
 20
83.51146718338357
 10
190.6091312429783
 20
83.94925827784056
 10
190.4720759845951
 20
84.38482104331982
 10
190.3278380555226
 20
84.81808086766634
 10
190.1765811651389
 20
85.24896313872506
 10
190.018469022822
 20
85.67739324434095
 10
189.8536653379499
 20
86.10329657235897
 10
189.6823338199007
 20
86.52659851062408
 10
189.5835994612566
 20
86.76248092900951
 10
189.4828973119325
 20
86.99752067397847
 10
189.380255299811
 20
87.23171423660123
 10
189.2757013527748
 20
87.46505810794804
 10
189.1692633987063
 20
87.69754877908916
 10
189.0609693654883
 20
87.92918274109488
 10
188.8389247731344
 20
88.38986650198113
 10
188.6097909987739
 20
88.84708131916895
 10
188.3737914654681
 20
89.30079912122045
 10
188.1311495962779
 20
89.7509918366978
 10
187.8820888142644
 20
90.19763139416314
 10
187.7359531867704
 20
90.45301925368965
 10
187.5878177922377
 20
90.70723923013745
 10
187.4377342424568
 20
90.96030921565426
 10
187.285754149218
 20
91.21224710238775
 10
187.1319291243118
 20
91.46307078248569
 10
186.9763107795286
 20
91.71279814809577
 10
186.659900577493
 20
92.20903550444325
 10
186.3369364374344
 20
92.70110230861192
 10
186.0078312536762
 20
93.18914169778351
 10
185.6729979205419
 20
93.67329680913977
 10
185.3328493323548
 20
94.15371077986242
 10
184.9369988250648
 20
94.69980992277819
 10
184.5349905759737
 20
95.24132769560705
 10
184.1271045402233
 20
95.77840756535619
 10
183.7136206729555
 20
96.31119299903273
 10
183.294818929312
 20
96.83982746364384
 10
182.8709792644349
 20
97.36445442619663
 10
182.4423816334658
 20
97.88521735369832
 10
182.0093059915466
 20
98.40225971315601
 10
181.5256049144175
 20
98.96971917856061
 10
181.0369768493094
 20
99.5329305449393
 10
180.5436260683996
 20
100.0920179838752
 10
180.0457568438653
 20
100.6471056669512
 10
179.5435734478838
 20
101.1983177657505
 10
179.0372801526323
 20
101.7457784518562
 10
178.5270812302882
 20
102.2896118968512
 10
178.0131809530286
 20
102.8299422723186
 10
177.3903402564179
 20
103.4754555331411
 10
176.7626323241233
 20
104.116216298906
 10
176.1302505406445
 20
104.7523616698025
 10
175.4933882904806
 20
105.3840287460202
 10
174.8522389581313
 20
106.0113546277485
 10
174.2069959280959
 20
106.6344764151766
 10
173.5578525848738
 20
107.2535312084939
 10
172.9050023129644
 20
107.8686561078899
 10
172.2746288707534
 20
108.4558877027296
 10
171.6410950545899
 20
109.0396853945347
 10
171.0044817947031
 20
109.6201141968991
 10
170.3648700213224
 20
110.1972391234169
 10
169.722340664677
 20
110.7711251876821
 10
169.0769746549964
 20
111.3418374032888
 10
168.4288529225097
 20
111.9094407838309
 10
167.7780563974464
 20
112.4740003429025
 10
167.1246660100357
 20
113.0355810940976
 10
166.4687626905069
 20
113.5942480510101
 10
165.8104273690894
 20
114.1500662272343
 10
165.1497409760125
 20
114.7031006363639
 10
164.4867844415055
 20
115.2534162919932
 10
163.8216386957977
 20
115.801078207716
 10
163.1543846691184
 20
116.3461513971265
 10
162.4851032916969
 20
116.8887008738186
 10
161.7939017917729
 20
117.4447865617403
 10
161.100661771405
 20
117.9982889731898
 10
160.4054084577387
 20
118.5492317372211
 10
159.7081670779198
 20
119.0976384828883
 10
159.0089628590939
 20
119.6435328392453
 10
158.3078210284066
 20
120.1869384353463
 10
157.6047668130036
 20
120.7278789002451
 10
156.8998254400304
 20
121.2663778629958
 10
156.1946318537609
 20
121.8012361718
 10
155.4875974430549
 20
122.3336833202447
 10
154.7787348427469
 20
122.86371502056
 10
154.0680566876716
 20
123.3913269849763
 10
153.3555756126635
 20
123.9165149257237
 10
152.6413042525572
 20
124.4392745550325
 10
151.9252552421872
 20
124.9596015851327
 10
151.2074412163882
 20
125.4774917282547
 10
150.4928016001365
 20
125.9894202776996
 10
149.7764339131435
 20
126.4989228384244
 10
149.0583385697245
 20
127.005981308492
 10
148.3385159841945
 20
127.5105775859654
 10
147.6169665708687
 20
128.0126935689075
 10
146.8936907440622
 20
128.5123111553811
 10
146.1686889180903
 20
129.0094122434491
 10
145.4419615072679
 20
129.5039787311745
 10
144.7135089259102
 20
129.99599251662
 10
143.9833315883325
 20
130.4854354978486
 10
143.2514299088499
 20
130.9722895729232
 10
142.5178043017774
 20
131.4565366399066
 10
141.7824551814302
 20
131.9381585968618
 10
141.0453829621235
 20
132.4171373418516
 10
140.3065880581724
 20
132.8934547729389
 10
139.566070883892
 20
133.3670927881866
 10
138.80766824456
 20
133.8482536046447
 10
138.0474881603377
 20
134.3266083704455
 10
137.2855507768767
 20
134.8021672009771
 10
136.5218762398288
 20
135.2749402116277
 10
135.7564846948455
 20
135.7449375177855
 10
134.9893962875785
 20
136.2121692348386
 10
134.2206311636796
 20
136.6766454781753
 10
133.4502094688003
 20
137.1383763631838
 10
132.6781513485924
 20
137.5973720052521
 10
131.9044769487075
 20
138.0536425197686
 10
131.1292064147973
 20
138.5071980221214
 10
130.3523598925134
 20
138.9580486276986
 10
129.5739575275076
 20
139.4062044518884
 10
128.7940194654313
 20
139.8516756100791
 10
128.0125658519365
 20
140.2944722176588
 10
127.2296168326747
 20
140.7346043900156
 10
126.3991423187464
 20
141.1976606170927
 10
125.567041424631
 20
141.6577726450088
 10
124.7333411485112
 20
142.1149710686449
 10
123.8980684885699
 20
142.5692864828822
 10
123.0612504429899
 20
143.0207494826017
 10
122.222914009954
 20
143.4693906626843
 10
121.3830861876449
 20
143.9152406180112
 10
120.5417939742456
 20
144.3583299434634
 10
119.6990643679388
 20
144.798689233922
 10
118.8549243669072
 20
145.236349084268
 10
118.0094009693339
 20
145.6713400893824
 10
117.1625211734014
 20
146.1036928441463
 10
116.3143119772926
 20
146.5334379434408
 10
115.4648003791904
 20
146.9606059821468
 10
114.6140133772776
 20
147.3852275551454
 10
113.7619779697368
 20
147.8073332573177
 10
112.8549980030193
 20
148.2532716729831
 10
111.9466653168651
 20
148.6964405226379
 10
111.0370071218863
 20
149.1368780723105
 10
110.1260506286953
 20
149.5746225880294
 10
109.2138230479042
 20
150.0097123358229
 10
108.3003515901252
 20
150.4421855817194
 10
107.3856634659707
 20
150.8720805917473
 10
106.4697858860527
 20
151.299435631935
 10
105.5158851670221
 20
151.7412931042819
 10
104.5607327540576
 20
152.1804367531596
 10
103.6043344363861
 20
152.6168594563605
 10
102.6466960032347
 20
153.0505540916772
 10
101.6878232438303
 20
153.4815135369021
 10
100.7277219474
 20
153.9097306698277
 10
99.76639790317083
 20
154.3351983682464
 10
98.80385690036972
 20
154.7579095099507
 10
97.8156915644366
 20
155.1884456299466
 10
96.82624740648471
 20
155.616035241978
 10
95.83551886673894
 20
156.0406372022562
 10
94.84350038542424
 20
156.4622103669921
 10
93.8501864027655
 20
156.8807135923968
 10
92.85557135898765
 20
157.2961057346813
 10
91.8596496943156
 20
157.7083456500568
 10
90.86241584897431
 20
158.1173921947342
 10
89.86386426318865
 20
158.5232042249246
 10
88.86398937718354
 20
158.925740596839
 10
87.86278563118391
 20
159.3249601666886
 10
86.8602474654147
 20
159.7208217906843
 10
85.85636932010081
 20
160.1132843250372
 10
84.85114563546715
 20
160.5023066259583
 10
83.84457085173864
 20
160.8878475496588
 10
82.83663940914019
 20
161.2698659523496
 10
81.84947040183135
 20
161.6400569738747
 10
80.86098178080357
 20
162.0067348972256
 10
79.87115711706879
 20
162.369795851938
 10
78.87997998163898
 20
162.7291359675477
 10
77.88743394552611
 20
163.0846513735905
 10
76.8935025797421
 20
163.4362381996021
 10
75.89816945529896
 20
163.7837925751182
 10
74.90141814320862
 20
164.1272106296747
 10
73.90323221448304
 20
164.4663884928074
 10
72.9035952401342
 20
164.8012222940519
 10
71.90249079117405
 20
165.131608162944
 10
70.89990243861453
 20
165.4574422290195
 10
69.89581375346765
 20
165.7786206218141
 10
68.89020830674531
 20
166.0950394708637
 10
67.88306966945952
 20
166.4065949057039
 10
66.87438141262221
 20
166.7131830558706
 10
65.9242191945668
 20
166.9969037448631
 10
64.97265222776807
 20
167.2759441760082
 10
64.01966117482395
 20
167.550110309902
 10
63.0652266983324
 20
167.8192081071404
 10
62.10932946089136
 20
168.0830435283193
 10
61.15195012509877
 20
168.3414225340348
 10
60.19306935355259
 20
168.5941510848829
 10
59.23266780885076
 20
168.8410351414595
 10
58.33450503822434
 20
169.0660957794297
 10
57.43498082905691
 20
169.2856204973135
 10
56.53407654025735
 20
169.4993382747292
 10
55.63177353073451
 20
169.7069780912949
 10
54.72805315939727
 20
169.908268926629
 10
53.82289678515449
 20
170.1029397603497
 10
52.91628576691504
 20
170.2907195720754
 10
52.00820146358778
 20
170.4713373414241
 10
51.15503790093695
 20
170.6339990160207
 10
50.30058382655689
 20
170.7898209447729
 10
49.44486148653417
 20
170.9385037933993
 10
48.58789312695534
 20
171.0797482276186
 10
47.729700993907
 20
171.2132549131492
 10
47.30015296423382
 20
171.2770130581934
 10
46.87030733347572
 20
171.3387245157099
 10
46.44016688239354
 20
171.3983518689136
 10
46.00973439174808
 20
171.4558577010192
 10
45.57901264230019
 20
171.5112045952416
 10
45.14800441481067
 20
171.5643551347957
 10
44.39948939199997
 20
171.6512238630015
 10
43.6501763080988
 20
171.7309828300506
 10
42.90012121139567
 20
171.8032473485822
 10
42.52483292333355
 20
171.8364489748536
 10
42.14938015017913
 20
171.8676327312353
 10
41.77376989796849
 20
171.8967505318071
 10
41.39800917273768
 20
171.9237542906488
 10
41.02210498052278
 20
171.9485959218405
 10
40.64606432735985
 20
171.971227339462
 10
40.26989421928496
 20
171.9916004575931
 10
39.89360166233418
 20
172.0096671903136
 10
39.51719366254356
 20
172.0253794517037
 10
39.14067722594918
 20
172.0386891558429
 10
38.48574298568492
 20
172.0559389611234
 10
38.15820149149971
 20
172.0616495496083
 10
37.83063208691436
 20
172.0653449442386
 10
37.50305102615529
 20
172.0669709067008
 10
37.17547456344894
 20
172.0664731986818
 10
36.84791895302172
 20
172.0637975818683
 10
36.52040044910007
 20
172.0588898179469
 10
36.1929353059104
 20
172.0516956686043
 10
35.86553977767915
 20
172.0421608955273
 10
35.53823011863274
 20
172.0302312604025
 10
35.21102258299759
 20
172.0158525249167
 10
34.88393342500014
 20
171.9989704507565
 10
34.55697889886682
 20
171.9795307996086
 10
34.23017525882403
 20
171.9574793331598
 10
33.90353875909822
 20
171.9327618130968
 10
33.43505940480682
 20
171.8924834203999
 10
32.96711351096467
 20
171.8462408324355
 10
32.49985672857425
 20
171.793673902831
 10
32.03344470863802
 20
171.7344224852137
 10
31.56803310215843
 20
171.6681264332109
 10
31.10377756013797
 20
171.5944256004502
 10
30.87213195423818
 20
171.5546858455441
 10
30.64083373357909
 20
171.5129598405588
 10
30.409902354536
 20
171.4692025671977
 10
30.17935727348424
 20
171.4233690071642
 10
29.94226457512316
 20
171.3739262991831
 10
29.70565122121962
 20
171.3221641759721
 10
29.46956587243879
 20
171.2680148596072
 10
29.23405718944582
 20
171.2114105721641
 10
28.99917383290591
 20
171.1522835357185
 10
28.7649644634842
 20
171.0905659723463
 10
28.53147774184588
 20
171.0261901041232
 10
28.29876232865611
 20
170.9590881531252
 10
28.09284798710686
 20
170.897171918665
 10
27.88763659318309
 20
170.8329802551375
 10
27.68318481047457
 20
170.7664398012575
 10
27.4795493025711
 20
170.6974771957399
 10
27.27678673306247
 20
170.6260190772997
 10
27.07495376553846
 20
170.5519920846519
 10
26.87410706358886
 20
170.4753228565113
 10
26.67430329080345
 20
170.3959380315929
 10
26.49940126967725
 20
170.3237792025243
 10
26.32541815129097
 20
170.2494052492986
 10
26.15242143843957
 20
170.1727605006407
 10
25.980478633918
 20
170.0937892852751
 10
25.80965724052123
 20
170.0124359319266
 10
25.6400247610442
 20
169.9286447693198
 10
25.47164869828187
 20
169.8423601261794
 10
25.3045965550292
 20
169.7535263312301
 10
25.15896317978586
 20
169.6733206437331
 10
25.01448031413521
 20
169.5910570277223
 10
24.87122419118723
 20
169.5066886624344
 10
24.72927104405193
 20
169.4201687271058
 10
24.5886971058393
 20
169.3314504009734
 10
24.44957860965934
 20
169.2404868632737
 10
24.31199178862205
 20
169.1472312932433
 10
24.17601287583744
 20
169.0516368701189
 10
24.05590280602866
 20
168.9641833292681
 10
23.93720131698682
 20
168.8748143922211
 10
23.81997164060738
 20
168.7835204194503
 10
23.70427700878577
 20
168.6902917714277
 10
23.59018065341742
 20
168.5951188086253
 10
23.47774580639779
 20
168.4979918915152
 10
23.3670356996223
 20
168.3989013805695
 10
23.2581135649864
 20
168.2978376362602
 10
23.15835480942169
 20
168.2019521283611
 10
23.06025998021462
 20
168.1043569752357
 10
22.9638879250146
 20
168.0050617732966
 10
22.86929749147106
 20
167.9040761189564
 10
22.77654752723343
 20
167.8014096086278
 10
22.68569687995113
 20
167.6970718387233
 10
22.5968043972736
 20
167.5910724056557
 10
22.50992892685025
 20
167.4834209058376
 10
22.42540280328863
 20
167.3745056003485
 10
22.34294347426049
 20
167.2640127395242
 10
22.2625558497646
 20
167.151996180719
 10
22.18424483979972
 20
167.0385097812871
 10
22.10801535436462
 20
166.9236073985829
 10
22.03387230345809
 20
166.8073428899608
 10
21.96182059707888
 20
166.6897701127749
  0
LWPOLYLINE
  5
6D9
330
1F
100
AcDbEntity
  8
ACCESSORIES$BACK_PICKGUARD
100
AcDbPolyline
 90
      916
 70
     1
 43
0.0
 38
-42.00001058795817
 10
9.765269075095034
 20
173.5670609730765
 10
9.572008735698098
 20
173.2249731496603
 10
9.384906554628762
 20
172.8794932660222
 10
9.203924497532089
 20
172.5307665190322
 10
9.029024530053144
 20
172.1789381055598
 10
8.860168617836987
 20
171.8241532224749
 10
8.697318726528685
 20
171.4665570666473
 10
8.5404368217733
 20
171.1062948349468
 10
8.389484869215893
 20
170.7435117242429
 10
8.24586185713759
 20
170.382064072391
 10
8.107945836771412
 20
170.0184051226703
 10
7.975670797908572
 20
169.6526513112174
 10
7.848970730340289
 20
169.284919074169
 10
7.727779623857781
 20
168.9153248476616
 10
7.612031468252265
 20
168.5439850678318
 10
7.501660253314959
 20
168.1710161708162
 10
7.396599968837084
 20
167.7965345927514
 10
7.297052976447821
 20
167.4217097627203
 10
7.20262636871592
 20
167.0455788528197
 10
7.113225057600724
 20
166.6682241888897
 10
7.028753955061572
 20
166.2897280967701
 10
6.949117973057806
 20
165.910172902301
 10
6.874222023548766
 20
165.5296409313224
 10
6.803971018493794
 20
165.1482145096741
 10
6.73826986985223
 20
164.7659759631963
 10
6.696335937263678
 20
164.506845309313
 10
6.656417837833513
 20
164.2473972160143
 10
6.582529603619864
 20
163.7276162289693
 10
6.516406097554304
 20
163.2067680376587
 10
6.457848249979859
 20
162.6849876776799
 10
6.406656991239552
 20
162.1624101846302
 10
6.362633251676406
 20
161.639170594107
 10
6.325577961633445
 20
161.1154039417078
 10
6.295292051453693
 20
160.5912452630299
 10
6.276590889465449
 20
160.1905316774537
 10
6.26165090414764
 20
159.7896918785817
 10
6.250396869147066
 20
159.3887497099335
 10
6.242753558110525
 20
158.9877290150288
 10
6.238645744684817
 20
158.5866536373871
 10
6.23799820251674
 20
158.1855474205284
 10
6.240735705253097
 20
157.7844342079721
 10
6.246783026540683
 20
157.3833378432381
 10
6.256064940026301
 20
156.9822821698459
 10
6.268506219356746
 20
156.5812910313152
 10
6.284031638178822
 20
156.1803882711658
 10
6.302565970139326
 20
155.7795977329173
 10
6.324033988885057
 20
155.3789432600894
 10
6.348360468062817
 20
154.9784486962018
 10
6.375470181319401
 20
154.5781378847741
 10
6.405287902301612
 20
154.1780346693261
 10
6.439149086465685
 20
153.761534842949
 10
6.475812791512945
 20
153.3452928381166
 10
6.515225216725026
 20
152.9293153861584
 10
6.557332561383562
 20
152.5136092184036
 10
6.602081024770188
 20
152.098181066182
 10
6.649416806166537
 20
151.6830376608227
 10
6.699286104854243
 20
151.2681857336555
 10
6.751635120114942
 20
150.8536320160096
 10
6.806410051230269
 20
150.4393832392145
 10
6.863557097481856
 20
150.0254461345998
 10
6.923022458151339
 20
149.6118274334948
 10
6.984752332520351
 20
149.1985338672291
 10
7.048692919870529
 20
148.785572167132
 10
7.114790419483504
 20
148.3729490645331
 10
7.182991030640913
 20
147.9606712907617
 10
7.253240952624388
 20
147.5487455771474
 10
7.328486543284416
 20
147.1203542784273
 10
7.405857579628077
 20
146.6923520976377
 10
7.485317448383656
 20
146.2647394158424
 10
7.566829536279439
 20
145.8375166141053
 10
7.65035723004371
 20
145.4106840734901
 10
7.735863916404756
 20
144.9842421750608
 10
7.912667813830312
 20
144.1325318290153
 10
8.096948322382392
 20
143.2823886244797
 10
8.288412535887275
 20
142.4338156099647
 10
8.48676754817125
 20
141.5868158339812
 10
8.691720453060595
 20
140.7413923450402
 10
8.909972562349013
 20
139.8701153610207
 10
9.134732098555475
 20
139.0005050879204
 10
9.365784539240543
 20
138.1325444560945
 10
9.602915361964774
 20
137.2662163958987
 10
9.845910044288733
 20
136.4015038376883
 10
10.09455406377299
 20
135.5383897118188
 10
10.34863289797809
 20
134.6768569486456
 10
10.60793202446461
 20
133.8168884785242
 10
10.87758631852195
 20
132.9413105501814
 10
11.15229803942829
 20
132.0673175642351
 10
11.43191657766527
 20
131.1948847215183
 10
11.71629132371453
 20
130.3239872228641
 10
12.00527166805773
 20
129.4546002691052
 10
12.29870700117651
 20
128.5866990610745
 10
12.59644671355251
 20
127.7202587996049
 10
12.89834019566739
 20
126.8552546855294
 10
13.1414591092782
 20
126.1679161159531
 10
13.38710328530189
 20
125.4814776530695
 10
13.63526293358511
 20
124.7959456492004
 10
13.88592826397454
 20
124.1113264566676
 10
14.13908948631684
 20
123.4276264277929
 10
14.39473681045867
 20
122.7448519148981
 10
14.65286044624671
 20
122.0630092703051
 10
14.9134506035276
 20
121.3821048463355
 10
15.17649749214802
 20
120.7021449953113
 10
15.44199132195463
 20
120.0231360695542
 10
15.7099223027941
 20
119.3450844213861
 10
15.98028064451309
 20
118.6679964031287
 10
16.25305655695826
 20
117.9918783671039
 10
16.52824024997627
 20
117.3167366656333
 10
16.8058219334138
 20
116.642577651039
 10
17.08579181711751
 20
115.9694076756426
 10
17.4519023493907
 20
115.0990974742751
 10
17.82199002855767
 20
114.2304726637099
 10
18.19604302223563
 20
113.363549201827
 10
18.57404949804177
 20
112.4983430465066
 10
18.9559976235933
 20
111.634870155629
 10
19.34187556650742
 20
110.7731464870742
 10
19.73167149440133
 20
109.9131879987224
 10
20.12537357489222
 20
109.0550106484539
 10
20.52296997559731
 20
108.1986303941487
 10
20.92444886413379
 20
107.3440631936871
 10
21.32979840811886
 20
106.4913250049492
 10
21.73900677516972
 20
105.6404317858153
 10
22.15206213290358
 20
104.7913994941654
 10
22.56895264893762
 20
103.9442440878797
 10
22.98966649088907
 20
103.0989815248385
 10
23.41419182637512
 20
102.2556277629218
 10
23.85350495941132
 20
101.3927364136057
 10
24.29680322652963
 20
100.5318866867654
 10
24.744075557619
 20
99.67309588489157
 10
25.19531088256835
 20
98.81638131047505
 10
25.65049813126664
 20
97.96176026600659
 10
26.1096262336028
 20
97.10925005397701
 10
26.57268411946577
 20
96.25886797687701
 10
27.03966071874449
 20
95.41063133719743
 10
27.51054496132791
 20
94.56455743742902
 10
27.98532577710496
 20
93.72066358006259
 10
28.46399209596459
 20
92.87896706758889
 10
28.94653284779574
 20
92.03948520249868
 10
29.43293696248733
 20
91.20223528728278
 10
29.92319336992833
 20
90.36723462443192
 10
30.41729100000765
 20
89.53450051643692
 10
30.91521878261426
 20
88.70405026578854
 10
31.41696564763708
 20
87.87590117497756
 10
31.92252052496506
 20
87.05007054649475
 10
32.43187234448713
 20
86.2265756828309
 10
32.94501003609224
 20
85.40543388647677
 10
33.46192252966932
 20
84.58666245992315
 10
33.98259875510733
 20
83.77027870566081
 10
34.5070276422952
 20
82.95629992618053
 10
35.03519812112187
 20
82.1447434239731
 10
35.56709912147628
 20
81.33562650152928
 10
36.10271957324737
 20
80.52896646133985
 10
36.64204840632408
 20
79.7247806058956
 10
37.18507455059535
 20
78.92308623768727
 10
37.73178693595011
 20
78.12390065920569
 10
38.28217449227732
 20
77.3272411729416
 10
38.83622614946592
 20
76.53312508138579
 10
39.39393083740482
 20
75.74156968702903
 10
39.97090289079574
 20
74.93074013316986
 10
40.55170887608796
 20
74.12265203368969
 10
41.13633587960853
 20
73.31732381334707
 10
41.72477098768451
 20
72.51477389690055
 10
42.31700128664294
 20
71.71502070910869
 10
42.91301386281089
 20
70.91808267473003
 10
43.51279580251538
 20
70.12397821852312
 10
44.1163341920835
 20
69.33272576524651
 10
44.72361611784227
 20
68.54434373965873
 10
45.33462866611875
 20
67.75885056651836
 10
45.94935892323998
 20
66.97626467058393
 10
46.56779397553304
 20
66.19660447661397
 10
47.18992090932494
 20
65.41988840936705
 10
47.81572681094276
 20
64.64613489360173
 10
48.44519876671352
 20
63.87536235407654
 10
49.07832386296431
 20
63.10758921555002
 10
49.71508918602215
 20
62.34283390278073
 10
50.3554818222141
 20
61.58111484052721
 10
50.99948885786722
 20
60.82245045354802
 10
51.64709737930854
 20
60.0668591666017
 10
52.29829447286512
 20
59.31435940444679
 10
52.95306722486401
 20
58.56496959184184
 10
53.61140272163226
 20
57.81870815354542
 10
54.27328804949691
 20
57.07559351431605
 10
54.93871029478504
 20
56.3356440989123
 10
55.60765654382367
 20
55.5988783320927
 10
56.28011388293986
 20
54.86531463861581
 10
56.95606939846066
 20
54.13497144324016
 10
57.63551017671313
 20
53.40786717072432
 10
58.31842330402429
 20
52.68402024582683
 10
59.00479586672123
 20
51.96344909330624
 10
59.69461495113098
 20
51.24617213792108
 10
60.39926628312366
 20
50.52052656903135
 10
61.10745240282387
 20
49.79832632014162
 10
61.81916093850456
 20
49.07959453904468
 10
62.53437951843871
 20
48.36435437353335
 10
63.25309577089929
 20
47.65262897140041
 10
63.97529732415925
 20
46.94444148043868
 10
64.70097180649157
 20
46.23981504844097
 10
65.43010684616921
 20
45.53877282320006
 10
66.16269007146514
 20
44.84133795250878
 10
66.8987091106523
 20
44.1475335841599
 10
67.63815159200371
 20
43.45738286594625
 10
68.3810051437923
 20
42.77090894566062
 10
69.12725739429104
 20
42.08813497109583
 10
69.87689597177288
 20
41.40908409004466
 10
70.62990850451081
 20
40.73377945029992
 10
71.38628262077779
 20
40.06224419965442
 10
71.99908971413002
 20
39.52310381489683
 10
72.61406716966306
 20
38.98644082811271
 10
73.2312043827001
 20
38.45226298239652
 10
73.85049074856428
 20
37.9205780208427
 10
74.47191566257885
 20
37.39139368654571
 10
75.09546852006694
 20
36.86471772259996
 10
75.72113871635179
 20
36.34055787209994
 10
76.34891564675655
 20
35.81892187814005
 10
76.97878870660443
 20
35.29981748381475
 10
77.61074729121862
 20
34.78325243221848
 10
78.24478079592231
 20
34.2692344664457
 10
78.88087861603867
 20
33.75777132959082
 10
79.5190301468909
 20
33.24887076474833
 10
80.15922478380219
 20
32.74254051501264
 10
80.80145192209574
 20
32.2387883234782
 10
81.44570095709472
 20
31.73762193323945
 10
82.24947757718607
 20
31.11816035584334
 10
83.05635326004139
 20
30.50273928759119
 10
83.86631820578376
 20
29.89139038503514
 10
84.67936261453623
 20
29.2841453047273
 10
85.49547668642195
 20
28.68103570321979
 10
86.31465062156398
 20
28.08209323706472
 10
87.13687462008542
 20
27.48734956281421
 10
87.96213888210933
 20
26.89683633702037
 10
88.79043360775884
 20
26.31058521623532
 10
89.62174899715701
 20
25.72862785701117
 10
90.45607525042693
 20
25.15099591590005
 10
91.2934025676917
 20
24.57772104945406
 10
92.13372114907439
 20
24.00883491422532
 10
92.97702119469812
 20
23.44436916676595
 10
93.82329290468596
 20
22.88435546362806
 10
94.67252647916098
 20
22.32882546136377
 10
95.34063056705429
 20
21.8962990433759
 10
96.0105615773448
 20
21.46660097379451
 10
96.68233063992574
 20
21.03978223899349
 10
97.3559488846903
 20
20.61589382534674
 10
98.03142744153175
 20
20.19498671922815
 10
98.70877744034328
 20
19.77711190701161
 10
99.38801001101815
 20
19.36232037507101
 10
100.0691362834496
 20
18.95066310978024
 10
100.7521673875307
 20
18.54219109751321
 10
101.4371144531549
 20
18.1369553246438
 10
102.1239886102153
 20
17.73500677754589
 10
102.8128009886051
 20
17.3363964425934
 10
103.5035627182176
 20
16.9411753061602
 10
104.196284928946
 20
16.54939435462018
 10
104.8909787506834
 20
16.16110457434725
 10
105.5876553133233
 20
15.77635695171529
 10
106.4046936733001
 20
15.33110922447771
 10
107.2244908138046
 20
14.89093355398236
 10
108.0470801548146
 20
14.45599063913891
 10
108.8724951163076
 20
14.02644117885704
 10
109.7007691182615
 20
13.60244587204641
 10
110.5319355806538
 20
13.1841654176167
 10
111.3660279234622
 20
12.77176051447757
 10
112.2030795666644
 20
12.36539186153871
 10
113.0021030966963
 20
11.98459505867963
 10
113.8038723886527
 20
11.60961913576467
 10
114.6084251637488
 20
11.24067750248269
 10
115.4157991431995
 20
10.87798356852256
 10
116.2260320482198
 20
10.52175074357315
 10
117.0391616000246
 20
10.17219243732331
 10
117.8552255198291
 20
9.82952205946193
 10
118.6742615288481
 20
9.49395301967786
 10
119.4493536369146
 20
9.184242144305038
 10
120.22715755119
 20
8.881375586262363
 10
121.0077087185762
 20
8.585693301984428
 10
121.3990255993428
 20
8.440652498893048
 10
121.7910425859754
 20
8.297535247905822
 10
122.1837641093367
 20
8.156384043577075
 10
122.5771946002895
 20
8.017241380461133
 10
122.9713384896965
 20
7.880149753112319
 10
123.3662002084205
 20
7.745151656084956
 10
123.7617841873243
 20
7.612289583933368
 10
124.1580948572706
 20
7.481606031211879
 10
124.5551366491222
 20
7.353143492474812
 10
124.9529139937417
 20
7.226944462276492
 10
125.3257294385238
 20
7.110964775510514
 10
125.6991875938919
 20
6.997042802034021
 10
126.0732834747651
 20
6.885217848040148
 10
126.4480120960625
 20
6.775529219722031
 10
126.823368472703
 20
6.668016223272804
 10
127.1993476196058
 20
6.562718164885602
 10
127.5759445516899
 20
6.459674350753559
 10
127.9531542838743
 20
6.358924087069812
 10
128.3309718310781
 20
6.260506680027492
 10
128.7093922082202
 20
6.164461435819737
 10
129.0884104302199
 20
6.07082766063968
 10
129.468021511996
 20
5.979644660680457
 10
129.8482204684677
 20
5.890951742135202
 10
130.2290023145539
 20
5.80478821119705
 10
130.6103620651738
 20
5.721193374059136
 10
130.9922947352463
 20
5.640206536914593
 10
131.3487129071189
 20
5.567119484856439
 10
131.70561008603
 20
5.496359660813821
 10
132.0629721036412
 20
5.427955459888773
 10
132.4207847916141
 20
5.361935277183335
 10
132.7790339816102
 20
5.298327507799539
 10
133.1377055052912
 20
5.237160546839423
 10
133.4967851943186
 20
5.178462789405025
 10
133.8562588803541
 20
5.122262630598376
 10
134.2161123950591
 20
5.068588465521517
 10
134.5763315700953
 20
5.017468689276482
 10
134.9369022371242
 20
4.968931696965308
 10
135.2978102278075
 20
4.923005883690031
 10
135.6590413738066
 20
4.879719644552686
 10
136.0205815067833
 20
4.839101374655312
 10
136.3824164583991
 20
4.801179469099944
 10
136.7445320603155
 20
4.765982322988616
 10
137.0860262608311
 20
4.73533148994775
 10
137.427738085622
 20
4.707143740990308
 10
137.7696485005999
 20
4.681437127735578
 10
138.1117384716767
 20
4.658229701802851
 10
138.4539889647643
 20
4.637539514811415
 10
138.7963809457747
 20
4.619384618380563
 10
139.1388953806196
 20
4.603783064129582
 10
139.4815132352109
 20
4.590752903677759
 10
139.8242154754606
 20
4.580312188644388
 10
140.1669830672805
 20
4.572478970648756
 10
140.5097969765825
 20
4.567271301310154
 10
140.8526381692784
 20
4.564707232247869
 10
141.1954876112802
 20
4.564804815081192
 10
141.5383262684997
 20
4.567582101429414
 10
141.8811351068488
 20
4.573057142911822
 10
142.2238950922394
 20
4.581247991147706
 10
142.550193459038
 20
4.591585948835147
 10
142.8764093866091
 20
4.604408645456751
 10
143.2025219825489
 20
4.619722286731457
 10
143.5285103544539
 20
4.637533078378202
 10
143.8543536099205
 20
4.657847226115924
 10
144.180030856545
 20
4.680670935663557
 10
144.505521201924
 20
4.70601041274004
 10
144.8308037536536
 20
4.733871863064309
 10
145.1558576193303
 20
4.764261492355299
 10
145.4806619065505
 20
4.79718550633195
 10
145.8051957229105
 20
4.832650110713196
 10
146.1294381760069
 20
4.870661511217975
 10
146.4533683734359
 20
4.911225913565223
 10
146.7769654227938
 20
4.954349523473877
 10
147.1002084316772
 20
5.000038546662875
 10
147.4230765076824
 20
5.048299188851152
 10
147.7329126956654
 20
5.097093244623777
 10
148.0423669594615
 20
5.148258001877771
 10
148.3514227681642
 20
5.201784526751302
 10
148.660063590867
 20
5.257663885382542
 10
148.9682728966636
 20
5.315887143909661
 10
149.2760341546476
 20
5.376445368470831
 10
149.5833308339124
 20
5.439329625204221
 10
149.8901464035516
 20
5.504530980248002
 10
150.1964643326589
 20
5.572040499740345
 10
150.5022680903277
 20
5.641849249819419
 10
150.8075411456517
 20
5.713948296623398
 10
151.1122669677244
 20
5.78832870629045
 10
151.4164290256394
 20
5.864981544958746
 10
151.7200107884902
 20
5.943897878766457
 10
152.0229957253704
 20
6.025068773851753
 10
152.3253673053736
 20
6.108485296352805
 10
152.617570849984
 20
6.191392705977393
 10
152.9091732445939
 20
6.276382769167396
 10
153.2001639917524
 20
6.363440767884612
 10
153.4905325940086
 20
6.452551984090833
 10
153.7802685539116
 20
6.543701699747859
 10
154.0693613740107
 20
6.636875196817487
 10
154.357800556855
 20
6.732057757261513
 10
154.6455756049934
 20
6.829234663041733
 10
154.9326760209754
 20
6.928391196119945
 10
155.2190913073499
 20
7.029512638457944
 10
155.504810966666
 20
7.132584272017529
 10
155.7898245014731
 20
7.237591378760495
 10
156.0741214143201
 20
7.344519240648639
 10
156.3576912077563
 20
7.453353139643758
 10
156.6405233843307
 20
7.564078357707649
 10
156.9226074465925
 20
7.676680176802108
 10
157.4705131622705
 20
7.901590437182357
 10
158.015532301307
 20
8.13338942323801
 10
158.5576631260951
 20
8.37188551600283
 10
159.0969038990279
 20
8.616887096510588
 10
159.6332528824987
 20
8.868202545795045
 10
160.1667083389005
 20
9.125640244889967
 10
160.6972685306267
 20
9.38900857482912
 10
161.2249317200703
 20
9.65811591664627
 10
161.586395441117
 20
9.84655826316384
 10
161.9464889770111
 20
10.0375881649596
 10
162.3052151112758
 20
10.23116569192419
 10
162.6625766274347
 20
10.42725091394829
 10
163.0185763090111
 20
10.62580390092254
 10
163.3732169395284
 20
10.82678472273761
 10
163.7265013025099
 20
11.03015344928415
 10
164.0784321814791
 20
11.23587015045283
 10
164.4290123599593
 20
11.4438948961343
 10
164.778244621474
 20
11.65418775621922
 10
165.1261317495464
 20
11.86670880059825
 10
165.4726765277001
 20
12.08141809916204
 10
165.8178817394583
 20
12.29827572180126
 10
166.1617501683445
 20
12.51724173840657
 10
166.5042845978821
 20
12.73827621886862
 10
166.8454878115943
 20
12.96133923307807
 10
167.3319282247373
 20
13.28432791517335
 10
167.8156488947426
 20
13.61133362517475
 10
168.2966558823199
 20
13.94229298475303
 10
168.774955248179
 20
14.27714261557899
 10
169.2505530530296
 20
14.6158191393234
 10
169.7234553575816
 20
14.95825917765705
 10
170.1936682225447
 20
15.30439935225071
 10
170.6611977086285
 20
15.65417628477517
 10
171.1260498765431
 20
16.0075265969012
 10
171.588230786998
 20
16.36438691029958
 10
172.0477465007031
 20
16.7246938466411
 10
172.504603078368
 20
17.08838402759654
 10
172.9588065807027
 20
17.45539407483667
 10
173.4103630684168
 20
17.82566061003227
 10
173.8592786022202
 20
18.19912025485413
 10
174.3055592428225
 20
18.57570963097303
 10
174.7499379465604
 20
18.9559943096218
 10
175.191688991759
 20
19.33931035644326
 10
175.6308221920361
 20
19.72561270906404
 10
176.0673473610096
 20
20.11485630511083
 10
176.5012743122973
 20
20.50699608221026
 10
176.9326128595168
 20
20.90198697798901
 10
177.3613728162862
 20
21.29978393007372
 10
177.7875639962232
 20
21.70034187609106
 10
178.2111962129455
 20
22.10361575366768
 10
178.6322792800711
 20
22.50956050043023
 10
179.0508230112177
 20
22.91813105400539
 10
179.4668372200032
 20
23.32928235201979
 10
179.8803317200453
 20
23.7429693321001
 10
180.2913163249618
 20
24.15914693187298
 10
180.6998008483707
 20
24.57777008896508
 10
181.1057951038896
 20
24.99879374100307
 10
181.5056509922921
 20
25.41831604810598
 10
181.9030774899747
 20
25.84012406740669
 10
182.2980807640574
 20
26.26419071205973
 10
182.6906669816599
 20
26.69048889521962
 10
183.0808423099018
 20
27.11899153004091
 10
183.468612915903
 20
27.54967152967811
 10
183.8539849667832
 20
27.98250180728578
 10
184.2369646296621
 20
28.41745527601843
 10
184.6175580716594
 20
28.8545048490306
 10
184.9957714598949
 20
29.29362343947682
 10
185.3716109614884
 20
29.73478396051162
 10
185.7450827435595
 20
30.17795932528954
 10
186.1161929732281
 20
30.62312244696511
 10
186.4849478176137
 20
31.07024623869286
 10
186.8513534438363
 20
31.51930361362731
 10
187.2154160190155
 20
31.97026748492301
 10
187.5701464829298
 20
32.41431821402217
 10
187.9226056724924
 20
32.86017440485436
 10
188.2727694698798
 20
33.3078342717663
 10
188.6206137572689
 20
33.75729602910465
 10
188.9661144168364
 20
34.20855789121615
 10
189.309247330759
 20
34.66161807244746
 10
189.6499883812135
 20
35.11647478714531
 10
189.9883134503765
 20
35.5731262496564
 10
190.3241984204249
 20
36.0315706743274
 10
190.6576191735353
 20
36.49180627550503
 10
190.9885515918845
 20
36.95383126753599
 10
191.3169715576492
 20
37.41764386476697
 10
191.6428549530061
 20
37.88324228154468
 10
191.966177660132
 20
38.35062473221581
 10
192.2869155612036
 20
38.81978943112706
 10
192.6050445383977
 20
39.29073459262514
 10
192.9159286390651
 20
39.75651116981605
 10
193.2242172230323
 20
40.22401533543575
 10
193.5298711289518
 20
40.6932478042754
 10
193.8328511954762
 20
41.16420929112618
 10
194.1331182612581
 20
41.63690051077922
 10
194.4306331649501
 20
42.11132217802569
 10
194.7253567452046
 20
42.58747500765675
 10
195.0172498406745
 20
43.06535971446357
 10
195.3062732900121
 20
43.54497701323729
 10
195.5923879318702
 20
44.02632761876906
 10
195.8755546049012
 20
44.50941224585006
 10
196.1557341477578
 20
44.99423160927144
 10
196.4328873990925
 20
45.48078642382435
 10
196.7069751975579
 20
45.96907740429995
 10
196.9779583818067
 20
46.45910526548941
 10
197.2457977904913
 20
46.95087072218388
 10
197.5076653419083
 20
47.43913072798012
 10
197.7663813390626
 20
47.92908051445802
 10
198.0219100260004
 20
48.42070821868162
 10
198.2742156467677
 20
48.91400197771497
 10
198.5232624454105
 20
49.40894992862211
 10
198.7690146659749
 20
49.90554020846712
 10
199.0114365525068
 20
50.40376095431402
 10
199.2504923490525
 20
50.9036003032269
 10
199.4861462996578
 20
51.40504639226978
 10
199.7183626483689
 20
51.90808735850674
 10
199.9471056392317
 20
52.41271133900182
 10
200.1723395162923
 20
52.91890647081908
 10
200.3940285235968
 20
53.42666089102256
 10
200.6121369051912
 20
53.93596273667633
 10
200.8266289051215
 20
54.44680014484443
 10
201.0374687674339
 20
54.95916125259091
 10
201.2348591497195
 20
55.44857654009321
 10
201.4288703921002
 20
55.93934617813083
 10
201.6194690347304
 20
56.43145296960396
 10
201.8066216177643
 20
56.92487971741279
 10
201.9902946813563
 20
57.4196092244575
 10
202.1704547656607
 20
57.91562429363827
 10
202.3470684108318
 20
58.41290772785531
 10
202.5201021570237
 20
58.91144233000879
 10
202.689522544391
 20
59.41121090299889
 10
202.8552961130877
 20
59.91219624972581
 10
203.0173894032684
 20
60.41438117308974
 10
203.1757689550872
 20
60.91774847599083
 10
203.3304013086984
 20
61.42228096132931
 10
203.4812530042563
 20
61.92796143200536
 10
203.6282905819153
 20
62.43477269091915
 10
203.7714805818297
 20
62.94269754097086
 10
203.9193428423889
 20
63.4835630332876
 10
204.0626527854568
 20
64.02565788236626
 10
204.2012392975098
 20
64.56897375381062
 10
204.3349312650246
 20
65.11350231322439
 10
204.4635575744775
 20
65.65923522621134
 10
204.5869471123453
 20
66.2061641583752
 10
204.7049287651044
 20
66.75428077531973
 10
204.8173314192314
 20
67.30357674264866
 10
204.9271798780136
 20
67.87099462288413
 10
205.0307718299437
 20
68.43959845173927
 10
205.1279602452088
 20
69.00932997683415
 10
205.2185980939959
 20
69.58013094578874
 10
205.3025383464923
 20
70.15194310622309
 10
205.379633972885
 20
70.72470820575722
 10
205.4497379433612
 20
71.29836799201115
 10
205.5127032281079
 20
71.8728642126049
 10
205.5701956760821
 20
72.46817038510343
 10
205.5959795890294
 20
72.76610137259178
 10
205.6197690882788
 20
73.06419918070227
 10
205.6415495190771
 20
73.36244997428199
 10
205.6613062266708
 20
73.66083991817797
 10
205.6790245563064
 20
73.95935517723731
 10
205.6946898532305
 20
74.25798191630709
 10
205.7082874626897
 20
74.55670630023434
 10
205.7198027299304
 20
74.85551449386614
 10
205.7292210001995
 20
75.15439266204956
 10
205.7365276187432
 20
75.45332696963166
 10
205.7417079308083
 20
75.75230358145953
 10
205.7447472816413
 20
76.05130866238021
 10
205.7456310164888
 20
76.35032837724077
 10
205.7443444805973
 20
76.64934889088832
 10
205.7406935995623
 20
76.96011401532765
 10
205.734677834591
 20
77.27084586824512
 10
205.7262924542603
 20
77.58152525997752
 10
205.7155327271472
 20
77.89213300086166
 10
205.7023939218287
 20
78.20264990123431
 10
205.6868713068817
 20
78.51305677143228
 10
205.6689601508832
 20
78.82333442179232
 10
205.6486557224102
 20
79.13346366265127
 10
205.6259532900395
 20
79.44342530434588
 10
205.6008481223483
 20
79.75320015721294
 10
205.5733354879133
 20
80.06276903158927
 10
205.5434106553117
 20
80.37211273781163
 10
205.5110688931203
 20
80.68121208621682
 10
205.4763054699162
 20
80.99004788714163
 10
205.4391156542762
 20
81.29860095092286
 10
205.3994947147773
 20
81.60685208789727
 10
205.3554725754554
 20
81.92875701175291
 10
205.3087966602584
 20
82.25029007205893
 10
205.2594752886979
 20
82.57143034675221
 10
205.2075167802854
 20
82.89215691376961
 10
205.1529294545327
 20
83.21244885104798
 10
205.0957216309513
 20
83.5322852365242
 10
205.0359016290529
 20
83.8516451481351
 10
204.9734777683492
 20
84.17050766381759
 10
204.9084583683517
 20
84.4888518615085
 10
204.8408517485722
 20
84.80665681914468
 10
204.7706662285222
 20
85.12390161466301
 10
204.6979101277134
 20
85.44056532600035
 10
204.6225917656574
 20
85.75662703109356
 10
204.5447194618659
 20
86.0720658078795
 10
204.4643015358504
 20
86.38686073429503
 10
204.3813463071227
 20
86.700990888277
 10
204.2912895702396
 20
87.03093397686484
 10
204.1984519334108
 20
87.36010070323243
 10
204.1028550279198
 20
87.6884745679534
 10
204.0045204850501
 20
88.0160390716014
 10
203.9034699360848
 20
88.34277771475007
 10
203.7997250123076
 20
88.66867399797306
 10
203.6933073450018
 20
88.99371142184401
 10
203.5842385654509
 20
89.31787348693656
 10
203.4725403049381
 20
89.64114369382435
 10
203.3582341947471
 20
89.96350554308103
 10
203.241341866161
 20
90.28494253528024
 10
203.1218849504635
 20
90.6054381709956
 10
202.9998850789378
 20
90.92497595080077
 10
202.8753638828674
 20
91.24353937526939
 10
202.7483429935357
 20
91.56111194497512
 10
202.6188440422261
 20
91.87767716049157
 10
202.4785448697068
 20
92.21294651096795
 10
202.3355044279649
 20
92.5470508841876
 10
202.1897551775251
 20
92.87998140847282
 10
202.0413295789118
 20
93.21172921214588
 10
201.8902600926496
 20
93.54228542352902
 10
201.7365791792629
 20
93.87164117094456
 10
201.5803192992764
 20
94.19978758271472
 10
201.4215129132144
 20
94.52671578716178
 10
201.2601924816015
 20
94.852416912608
 10
201.0963904649622
 20
95.17688208737567
 10
200.9301393238212
 20
95.50010243978707
 10
200.7614715187027
 20
95.82206909816443
 10
200.5904195101314
 20
96.14277319083004
 10
200.4170157586318
 20
96.46220584610614
 10
200.2412927247284
 20
96.78035819231502
 10
200.0632828689457
 20
97.09722135777895
 10
199.8712065089744
 20
97.43329074469085
 10
199.6766227988474
 20
97.76789969875566
 10
199.4795818580378
 20
98.1010603681037
 10
199.2801338060186
 20
98.43278490086531
 10
199.0783287622628
 20
98.76308544517087
 10
198.8742168462433
 20
99.0919741491507
 10
198.6678481774331
 20
99.41946316093518
 10
198.4592728753053
 20
99.74556462865462
 10
198.2485410593329
 20
100.0702907004394
 10
198.0357028489888
 20
100.3936535244198
 10
197.820808363746
 20
100.7156652487263
 10
197.6039077230775
 20
101.0363380214891
 10
197.3850510464563
 20
101.3556839908387
 10
197.1642884533555
 20
101.6737153049053
 10
196.9416700632479
 20
101.9904441118193
 10
196.7172459956066
 20
102.3058825597111
 10
196.4792248928586
 20
102.6363869175486
 10
196.2393013662775
 20
102.9654959271121
 10
195.9975163655384
 20
103.2932291982773
 10
195.7539108403164
 20
103.6196063409199
 10
195.5085257402866
 20
103.9446469649158
 10
195.2614020151243
 20
104.2683706801405
 10
195.0125806145045
 20
104.5907970964699
 10
194.7621024881025
 20
104.9119458237796
 10
194.5100085855934
 20
105.2318364719454
 10
194.2563398566522
 20
105.5504886508431
 10
193.7444417181746
 20
106.1841560403366
 10
193.2267356700707
 20
106.8131048712661
 10
192.7035493097418
 20
107.4374920226374
 10
192.1492602265656
 20
108.0876181655402
 10
191.589492521045
 20
108.7330053826226
 10
191.0244356550508
 20
109.3737601123694
 10
190.4542790904538
 20
110.0099887932652
 10
189.8792122891247
 20
110.6417978637947
 10
189.2994247129343
 20
111.2692937624429
 10
188.7151058237534
 20
111.8925829276943
 10
188.1264450834527
 20
112.5117717980337
 10
187.4374763858586
 20
113.2259754540359
 10
186.7431159130443
 20
113.9349341865746
 10
186.0435742126393
 20
114.6387915056348
 10
185.339061832273
 20
115.3376909212016
 10
184.6297893195748
 20
116.0317759432598
 10
183.9159672221741
 20
116.7211900817944
 10
183.1978060877003
 20
117.4060768467905
 10
182.4755164637829
 20
118.0865797482331
 10
181.7980731665455
 20
118.7176482634579
 10
181.1172982418507
 20
119.3450882900906
 10
180.4332705322143
 20
119.968962460849
 10
179.746068880152
 20
120.5893334084506
 10
179.0557721281794
 20
121.2062637656134
 10
178.3624591188124
 20
121.8198161650549
 10
177.6662086945665
 20
122.4300532394928
 10
176.9670996979576
 20
123.0370376216448
 10
176.2652109715013
 20
123.6408319442287
 10
175.5606213577134
 20
124.2414988399622
 10
174.8534096991095
 20
124.8391009415628
 10
174.1436548382054
 20
125.4337008817485
 10
173.4314356175168
 20
126.0253612932368
 10
172.7168308795594
 20
126.6141448087454
 10
171.999919466849
 20
127.200114060992
 10
171.2807802219012
 20
127.7833316826945
 10
170.5524802748014
 20
128.3694664325282
 10
169.8220133381619
 20
128.9528741534564
 10
169.0894032771452
 20
129.5335691994073
 10
168.3546739569138
 20
130.1115659243087
 10
167.6178492426299
 20
130.6868786820888
 10
166.8789529994563
 20
131.2595218266756
 10
166.1380090925552
 20
131.8295097119971
 10
165.3950413870891
 20
132.3968566919814
 10
164.6500737482204
 20
132.9615771205564
 10
163.9031300411118
 20
133.5236853516502
 10
163.1542341309254
 20
134.0831957391909
 10
162.4034098828238
 20
134.6401226371065
 10
161.6506811619695
 20
135.194480399325
 10
160.8960718335248
 20
135.7462833797745
 10
160.1396057626523
 20
136.2955459323829
 10
159.3813068145144
 20
136.8422824110784
 10
158.6264691814308
 20
137.3827370545685
 10
157.8698442691295
 20
137.9206897316197
 10
157.1114288195219
 20
138.4561154970995
 10
156.3512195745192
 20
138.9889894058752
 10
155.5892132760324
 20
139.5192865128145
 10
154.8254066659729
 20
140.0469818727847
 10
154.0597964862518
 20
140.5720505406533
 10
153.2923794787803
 20
141.094467571288
 10
152.5231523854696
 20
141.614208019556
 10
151.7521119482309
 20
142.131246940325
 10
150.9792549089754
 20
142.6455593884623
 10
150.2045780096142
 20
143.1571204188356
 10
149.4280779920587
 20
143.6659050863122
 10
148.6497515982199
 20
144.1718884457596
 10
147.8695955700091
 20
144.6750455520454
 10
147.0876066493375
 20
145.1753514600369
 10
146.2873664433164
 20
145.6831645673272
 10
145.4852352001316
 20
146.1879928642031
 10
144.6812356720548
 20
146.68984929711
 10
143.8753906113581
 20
147.1887468124929
 10
143.0677227703133
 20
147.6846983567972
 10
142.2582549011921
 20
148.1777168764681
 10
141.4470097562665
 20
148.6678153179509
 10
140.6340100878084
 20
149.1550066276906
 10
139.8192786480896
 20
149.6393037521327
 10
139.0028381893821
 20
150.1207196377222
 10
138.1847114639576
 20
150.5992672309044
 10
137.364921224088
 20
151.0749594781246
 10
136.5434902220452
 20
151.5478093258279
 10
135.7204412101011
 20
152.0178297204597
 10
134.8957969405274
 20
152.4850336084651
 10
134.0695801655962
 20
152.9494339362894
 10
133.1993757873351
 20
153.4346136466127
 10
132.3274848367361
 20
153.916737775494
 10
131.453933310222
 20
154.3958345346136
 10
130.5787472042156
 20
154.8719321356517
 10
129.7019525151395
 20
155.3450587902888
 10
128.8235752394167
 20
155.8152427102052
 10
127.9436413734697
 20
156.2825121070811
 10
127.0621769137215
 20
156.7468951925969
 10
126.1792078565947
 20
157.2084201784328
 10
125.2947601985122
 20
157.6671152762693
 10
124.4088599358966
 20
158.1230086977865
 10
123.5215330651708
 20
158.576128654665
 10
122.6328055827574
 20
159.0265033585849
 10
121.7427034850794
 20
159.4741610212265
 10
120.8512527685593
 20
159.9191298542702
 10
119.95847942962
 20
160.3614380693964
 10
119.0151359906199
 20
160.8252527705143
 10
118.0703802266986
 20
161.2861815102586
 10
117.1242431815263
 20
161.7442686498721
 10
116.1767558987729
 20
162.1995585505972
 10
115.2279494221086
 20
162.6520955736766
 10
114.2778547952034
 20
163.1019240803528
 10
113.3265030617273
 20
163.5490884318685
 10
112.3739252653504
 20
163.9936329894663
 10
111.3835318667801
 20
164.4524966022485
 10
110.3918517687481
 20
164.9085667075499
 10
109.3988867443096
 20
165.3618266353963
 10
108.4046385665197
 20
165.8122597158133
 10
107.4091090084334
 20
166.2598492788267
 10
106.4122998431058
 20
166.704578654462
 10
105.414212843592
 20
167.1464311727449
 10
104.4148497829471
 20
167.5853901637012
 10
103.3851266430883
 20
168.0340584340331
 10
102.3540511024353
 20
168.4796090836134
 10
101.3216201530353
 20
168.9220062119686
 10
100.2878307869354
 20
169.3612139186256
 10
99.2526799961827
 20
169.7971963031109
 10
98.21616477282424
 20
170.2299174649514
 10
97.17828210890713
 20
170.6593415036736
 10
96.13902899647842
 20
171.0854325188044
 10
95.09840242758523
 20
171.5081546098704
 10
94.05639939427465
 20
171.9274718763982
 10
93.01301688859377
 20
172.3433484179147
 10
91.96825190258966
 20
172.7557483339465
 10
90.92210142830942
 20
173.1646357240203
 10
89.87456245780012
 20
173.5699746876628
 10
88.82563198310886
 20
173.9717293244008
 10
87.77530699628272
 20
174.3698637337608
 10
86.73302203387266
 20
174.7608076267946
 10
85.68934724019721
 20
175.1480515653532
 10
84.64426534563688
 20
175.5314864276834
 10
83.59775908057216
 20
175.9110030920321
 10
82.54981117538352
 20
176.2864924366462
 10
81.50040436045148
 20
176.6578453397725
 10
80.4495213661565
 20
177.0249526796577
 10
79.3971449228791
 20
177.3877053345489
 10
78.34325776099973
 20
177.7459941826927
 10
77.28784261089893
 20
178.0997101023361
 10
76.23088220295718
 20
178.4487439717259
 10
75.17235926755495
 20
178.7929866691089
 10
74.11225653507275
 20
179.132329072732
 10
73.05055673589105
 20
179.4666620608419
 10
71.98724260039035
 20
179.7958765116857
 10
70.92229685895114
 20
180.11986330351
 10
69.8972908549288
 20
180.4261799923441
 10
68.8707423635377
 20
180.7273576491971
 10
67.84263178433999
 20
181.0231862457665
 10
66.81293951689776
 20
181.3134557537498
 10
65.78164596077312
 20
181.5979561448448
 10
64.74873151552816
 20
181.8764773907489
 10
63.714176580725
 20
182.1488094631597
 10
62.67796155592573
 20
182.4147423337748
 10
61.68417298128075
 20
182.6631842701053
 10
60.6888390230777
 20
182.9053352416339
 10
59.69195437481652
 20
183.14096416426
 10
58.69351372999715
 20
183.3698399538832
 10
57.69351178211954
 20
183.5917315264028
 10
56.69194322468365
 20
183.8064077977186
 10
55.68880275118944
 20
184.0136376837299
 10
54.68408505513683
 20
184.2131901003362
 10
53.70668382142748
 20
184.3994249267861
 10
53.21743105151779
 20
184.4896353363514
 10
52.72781430243506
 20
184.5778495919181
 10
52.23783666632698
 20
184.6640240798171
 10
51.74750123534128
 20
184.7481151863793
 10
51.25681110162564
 20
184.8300792979356
 10
50.76576935732778
 20
184.9098728008169
 10
50.27437909459542
 20
184.9874520813541
 10
49.78264340557625
 20
185.0627735258781
 10
49.290565382418
 20
185.1357935207198
 10
48.79814811726835
 20
185.2064684522101
 10
48.30539470227503
 20
185.2747547066799
 10
47.81230822958574
 20
185.34060867046
 10
47.31889179134819
 20
185.4039867298814
 10
46.8251484797101
 20
185.4648452712751
 10
46.37469370340386
 20
185.5180990348117
 10
45.92397962812743
 20
185.5691788440776
 10
45.47301611434816
 20
185.618041476831
 10
45.02181302253337
 20
185.66464371083
 10
44.5703802131504
 20
185.7089423238331
 10
44.11872754666661
 20
185.7508940935984
 10
43.66686488354931
 20
185.7904557978842
 10
43.21480208426585
 20
185.8275842144488
 10
42.76254900928356
 20
185.8622361210505
 10
42.3101155190698
 20
185.8943682954475
 10
41.85751147409188
 20
185.923937515398
 10
41.40474673481715
 20
185.9509005586604
 10
40.95183116171295
 20
185.9752142029928
 10
40.4987746152466
 20
185.9968352261536
 10
40.04558695588546
 20
186.015720405901
 10
39.59227804409685
 20
186.0318265199933
 10
39.16664660767211
 20
186.0443737671811
 10
38.74093826818903
 20
186.0543707921785
 10
38.31517428154548
 20
186.061754382035
 10
37.88937590363935
 20
186.0664613237998
 10
37.4635643903685
 20
186.0684284045224
 10
37.03776099763082
 20
186.067592411252
 10
36.61198698132415
 20
186.0638901310379
 10
36.18626359734638
 20
186.0572583509294
 10
35.76061210159537
 20
186.047633857976
 10
35.335053749969
 20
186.0349534392269
 10
34.90960979836513
 20
186.0191538817314
 10
34.48430150268164
 20
186.0001719725388
 10
34.0591501188164
 20
185.9779444986984
 10
33.63417690266726
 20
185.9524082472598
 10
33.20940311013213
 20
185.923500005272
 10
32.78484999710885
 20
185.8911565597844
 10
32.44525436284427
 20
185.86275385873
 10
32.1058397612581
 20
185.8320726003903
 10
31.76663226877662
 20
185.7990749143735
 10
31.4276579618261
 20
185.7637229302877
 10
31.08894291683281
 20
185.7259787777409
 10
30.75051321022302
 20
185.6858045863414
 10
30.412394918423
 20
185.6431624856972
 10
30.07461411785901
 20
185.5980146054166
 10
29.73719688495732
 20
185.5503230751075
 10
29.40016929614421
 20
185.5000500243782
 10
29.06355742784593
 20
185.4471575828368
 10
28.72738735648877
 20
185.3916078800913
 10
28.39168515849898
 20
185.33336304575
 10
28.05647691030284
 20
185.272385209421
 10
27.72178868832662
 20
185.2086365007123
 10
27.38764656899658
 20
185.1420790492322
 10
27.00330439933158
 20
185.06184401228
 10
26.61978200906735
 20
184.977751148221
 10
26.2371393431037
 20
184.8897228361751
 10
25.8554363463404
 20
184.7976814552621
 10
25.47473296367726
 20
184.7015493846019
 10
25.09508914001406
 20
184.6012490033146
 10
24.71656482025059
 20
184.4967026905199
 10
24.33921994928664
 20
184.3878328253377
 10
23.96969968872916
 20
184.2765882974076
 10
23.60146866714911
 20
184.1610423958137
 10
23.23461978324878
 20
184.0411420344547
 10
22.86924593573048
 20
183.9168341272291
 10
22.50544002329653
 20
183.7880655880357
 10
22.14329494464922
 20
183.654783330773
 10
21.78290359849087
 20
183.5169342693397
 10
21.42435888352379
 20
183.3744653176345
 10
21.06775369845028
 20
183.2273233895559
 10
20.71318094197265
 20
183.0754553990026
 10
20.36073351279321
 20
182.9188082598732
 10
20.01050430961427
 20
182.7573288860663
 10
19.66258623113815
 20
182.5909641914806
 10
19.31707217606713
 20
182.4196610900148
 10
18.97405504310353
 20
182.2433664955674
 10
18.63362773094968
 20
182.062027322037
 10
18.29703279590216
 20
181.8762420810066
 10
17.96322449209235
 20
181.6853921728136
 10
17.63232495774934
 20
181.489475961739
 10
17.30445633110226
 20
181.2884918120638
 10
16.97974075038021
 20
181.082438088069
 10
16.65830035381232
 20
180.8713131540357
 10
16.34025727962769
 20
180.6551153742447
 10
16.02573366605544
 20
180.4338431129771
 10
15.71321576887879
 20
180.2062847555891
 10
15.40450873044899
 20
179.9736103342298
 10
15.09974312620664
 20
179.7358338253821
 10
14.79904953159231
 20
179.4929692055291
 10
14.50255852204658
 20
179.2450304511538
 10
14.21040067301004
 20
178.9920315387394
 10
13.92270655992327
 20
178.7339864447688
 10
13.63960675822683
 20
178.4709091457252
 10
13.35733500657784
 20
178.1990134047913
 10
13.08000891328391
 20
177.9220537114697
 10
12.80771514145333
 20
177.6401267764191
 10
12.5405403541944
 20
177.3533293102981
 10
12.27857121461541
 20
177.0617580237652
 10
12.02189438582466
 20
176.765509627479
 10
11.77059653093044
 20
176.4646808320981
 10
11.52476431304105
 20
176.1593683482811
 10
11.28448439526478
 20
175.8496688866867
 10
11.04984344070992
 20
175.5356791579733
 10
10.82092811248477
 20
175.2174958727995
 10
10.59782507369763
 20
174.8952157418241
 10
10.3806209874568
 20
174.5689354757054
 10
10.16940251687056
 20
174.2387517851022
 10
9.964256325047202
 20
173.9047613806731
  0
POLYLINE
  5
A6E
330
1F
100
AcDbEntity
  8
ACCESSORIES$BACK_PICKGUARD
100
AcDb2dPolyline
 66
     1
 10
0.0
 20
0.0
 30
41.99984890557529
210
-6.510005891261770E-7
220
-5.646356257678958E-7
230
-0.9999999999996287
  0
VERTEX
  5
A6F
330
A6E
100
AcDbEntity
  8
ACCESSORIES$BACK_PICKGUARD
100
AcDbVertex
100
AcDb2dVertex
 10
-83.23363714557813
 20
172.680370048481
 30
41.99984890557529
 42
0.0822630103611882
  0
VERTEX
  5
A70
330
A6E
100
AcDbEntity
  8
ACCESSORIES$BACK_PICKGUARD
100
AcDbVertex
100
AcDb2dVertex
 10
-83.18025593772464
 20
172.3580125724957
 30
41.99984890557529
  0
SEQEND
  5
A71
330
A6E
100
AcDbEntity
  8
ACCESSORIES$BACK_PICKGUARD
  0
POLYLINE
  5
A72
330
1F
100
AcDbEntity
  8
ACCESSORIES$BACK_PICKGUARD
100
AcDb2dPolyline
 66
     1
 10
0.0
 20
0.0
 30
41.99982916824559
210
-6.305087544784144E-7
220
-6.890385769734459E-7
230
-0.9999999999995639
  0
VERTEX
  5
A73
330
A72
100
AcDbEntity
  8
ACCESSORIES$BACK_PICKGUARD
100
AcDbVertex
100
AcDb2dVertex
 10
-83.18025507706867
 20
172.3580177974007
 30
41.99982916824559
 42
1.003664006627801
  0
VERTEX
  5
A74
330
A72
100
AcDbEntity
  8
ACCESSORIES$BACK_PICKGUARD
100
AcDbVertex
100
AcDb2dVertex
 10
-81.28926282175925
 20
173.0096337304209
 30
41.99982916824559
  0
SEQEND
  5
A75
330
A72
100
AcDbEntity
  8
ACCESSORIES$BACK_PICKGUARD
  0
POLYLINE
  5
A76
330
1F
100
AcDbEntity
  8
ACCESSORIES$BACK_PICKGUARD
100
AcDb2dPolyline
 66
     1
 10
0.0
 20
0.0
 30
41.99984234687234
210
-5.999768159444316E-7
220
-6.272113374508233E-7
230
-0.9999999999996234
  0
VERTEX
  5
A77
330
A76
100
AcDbEntity
  8
ACCESSORIES$BACK_PICKGUARD
100
AcDbVertex
100
AcDb2dVertex
 10
-81.28926153941934
 20
173.0096311336887
 30
41.99984234687234
 42
0.8448448308851526
  0
VERTEX
  5
A78
330
A76
100
AcDbEntity
  8
ACCESSORIES$BACK_PICKGUARD
100
AcDbVertex
100
AcDb2dVertex
 10
-83.23363500258226
 20
172.6803726766537
 30
41.99984234687234
  0
SEQEND
  5
A79
330
A76
100
AcDbEntity
  8
ACCESSORIES$BACK_PICKGUARD
  0
POLYLINE
  5
A7A
330
1F
100
AcDbEntity
  8
ACCESSORIES$BACK_PICKGUARD
100
AcDb2dPolyline
 66
     1
 10
0.0
 20
0.0
 30
41.99977440310871
210
-2.047198670792657E-6
220
-1.998548341899687E-6
230
-0.9999999999959075
  0
VERTEX
  5
A7B
330
A7A
100
AcDbEntity
  8
ACCESSORIES$BACK_PICKGUARD
100
AcDbVertex
100
AcDb2dVertex
 10
-100.1148311382298
 20
23.65837197812013
 30
41.99977440310871
 42
0.0434765588752599
  0
VERTEX
  5
A7C
330
A7A
100
AcDbEntity
  8
ACCESSORIES$BACK_PICKGUARD
100
AcDbVertex
100
AcDb2dVertex
 10
-100.0997750000175
 20
23.48547299823107
 30
41.99977440310871
  0
SEQEND
  5
A7D
330
A7A
100
AcDbEntity
  8
ACCESSORIES$BACK_PICKGUARD
  0
POLYLINE
  5
A7E
330
1F
100
AcDbEntity
  8
ACCESSORIES$BACK_PICKGUARD
100
AcDb2dPolyline
 66
     1
 10
0.0
 20
0.0
 30
41.99979313584242
210
-1.843195551372837E-6
220
-2.070419649606529E-6
230
-0.999999999996158
  0
VERTEX
  5
A7F
330
A7E
100
AcDbEntity
  8
ACCESSORIES$BACK_PICKGUARD
100
AcDbVertex
100
AcDb2dVertex
 10
-100.0997664319208
 20
23.485476016852
 30
41.99979313584242
 42
1.002406301893836
  0
VERTEX
  5
A80
330
A7E
100
AcDbEntity
  8
ACCESSORIES$BACK_PICKGUARD
100
AcDbVertex
100
AcDb2dVertex
 10
-98.13072119858398
 20
23.83600640046386
 30
41.99979313584242
  0
SEQEND
  5
A81
330
A7E
100
AcDbEntity
  8
ACCESSORIES$BACK_PICKGUARD
  0
POLYLINE
  5
A82
330
1F
100
AcDbEntity
  8
ACCESSORIES$BACK_PICKGUARD
100
AcDb2dPolyline
 66
     1
 10
0.0
 20
0.0
 30
41.99979981441814
210
-1.821421445116470E-6
220
-1.879873144051192E-6
230
-0.9999999999965743
  0
VERTEX
  5
A83
330
A82
100
AcDbEntity
  8
ACCESSORIES$BACK_PICKGUARD
100
AcDbVertex
100
AcDb2dVertex
 10
-98.13072028407544
 20
23.83599839755365
 30
41.99979981441814
 42
0.9144730267008272
  0
VERTEX
  5
A84
330
A82
100
AcDbEntity
  8
ACCESSORIES$BACK_PICKGUARD
100
AcDbVertex
100
AcDb2dVertex
 10
-100.114821655624
 20
23.65836699383092
 30
41.99979981441814
  0
SEQEND
  5
A85
330
A82
100
AcDbEntity
  8
ACCESSORIES$BACK_PICKGUARD
  0
LWPOLYLINE
  5
A86
330
1F
100
AcDbEntity
  8
ACCESSORIES$BACK_PICKGUARD
100
AcDbPolyline
 90
        2
 70
     0
 43
0.0
 38
-42.00002104656218
 10
147.7424615408382
 20
8.488441159356945
 10
147.7408317446917
 20
8.431345311968363
210
7.239903289335146E-9
220
2.536319736669862E-7
230
0.9999999999999678
  0
POLYLINE
  5
A89
330
1F
100
AcDbEntity
  8
ACCESSORIES$BACK_PICKGUARD
100
AcDb2dPolyline
 66
     1
 10
0.0
 20
0.0
 30
42.00018079989876
210
1.079890607071681E-6
220
-3.556565225878326E-7
230
-0.9999999999993536
  0
VERTEX
  5
A8A
330
A89
100
AcDbEntity
  8
ACCESSORIES$BACK_PICKGUARD
100
AcDbVertex
100
AcDb2dVertex
 10
-147.7407860850977
 20
8.431349597058645
 30
42.00018079989876
 42
1.002352621490186
  0
VERTEX
  5
A8B
330
A89
100
AcDbEntity
  8
ACCESSORIES$BACK_PICKGUARD
100
AcDbVertex
100
AcDb2dVertex
 10
-145.7443248490453
 20
8.550232708845279
 30
42.00018079989876
  0
SEQEND
  5
A8C
330
A89
100
AcDbEntity
  8
ACCESSORIES$BACK_PICKGUARD
  0
POLYLINE
  5
A8D
330
1F
100
AcDbEntity
  8
ACCESSORIES$BACK_PICKGUARD
100
AcDb2dPolyline
 66
     1
 10
0.0
 20
0.0
 30
42.0001835931678
210
1.087834325198763E-6
220
-1.643730777212606E-7
230
-0.9999999999993949
  0
VERTEX
  5
A8E
330
A8D
100
AcDbEntity
  8
ACCESSORIES$BACK_PICKGUARD
100
AcDbVertex
100
AcDb2dVertex
 10
-145.7443245154071
 20
8.550224674906021
 30
42.0001835931678
 42
0.9695545867594179
  0
VERTEX
  5
A8F
330
A8D
100
AcDbEntity
  8
ACCESSORIES$BACK_PICKGUARD
100
AcDbVertex
100
AcDb2dVertex
 10
-147.7424155476067
 20
8.488437410507998
 30
42.0001835931678
  0
SEQEND
  5
A90
330
A8D
100
AcDbEntity
  8
ACCESSORIES$BACK_PICKGUARD
  0
POLYLINE
  5
A91
330
1F
100
AcDbEntity
  8
ACCESSORIES$BACK_PICKGUARD
100
AcDb2dPolyline
 66
     1
 10
0.0
 20
0.0
 30
42.0000295559164
210
1.347022508465004E-7
220
-5.420375122828524E-8
230
-0.9999999999999896
  0
VERTEX
  5
A92
330
A91
100
AcDbEntity
  8
ACCESSORIES$BACK_PICKGUARD
100
AcDbVertex
100
AcDb2dVertex
 10
-188.2594550588793
 20
37.78472948808086
 30
42.0000295559164
 42
0.9821897206690061
  0
VERTEX
  5
A93
330
A91
100
AcDbEntity
  8
ACCESSORIES$BACK_PICKGUARD
100
AcDbVertex
100
AcDb2dVertex
 10
-186.2601001000935
 20
37.74879785577131
 30
42.0000295559164
  0
SEQEND
  5
A94
330
A91
100
AcDbEntity
  8
ACCESSORIES$BACK_PICKGUARD
  0
POLYLINE
  5
A95
330
1F
100
AcDbEntity
  8
ACCESSORIES$BACK_PICKGUARD
100
AcDb2dPolyline
 66
     1
 10
0.0
 20
0.0
 30
42.0000259616995
210
1.376852582499544E-7
220
-1.641365740943430E-7
230
-0.9999999999999771
  0
VERTEX
  5
A96
330
A95
100
AcDbEntity
  8
ACCESSORIES$BACK_PICKGUARD
100
AcDbVertex
100
AcDb2dVertex
 10
-186.2600999748071
 20
37.74880247295299
 30
42.0000259616995
 42
0.9974766684315073
  0
VERTEX
  5
A97
330
A95
100
AcDbEntity
  8
ACCESSORIES$BACK_PICKGUARD
100
AcDbVertex
100
AcDb2dVertex
 10
-188.2586157469038
 20
37.82571503806712
 30
42.0000259616995
  0
SEQEND
  5
A98
330
A95
100
AcDbEntity
  8
ACCESSORIES$BACK_PICKGUARD
  0
LWPOLYLINE
  5
A99
330
1F
100
AcDbEntity
  8
ACCESSORIES$BACK_PICKGUARD
100
AcDbPolyline
 90
        2
 70
     0
 43
0.0
 38
-42.00000224941473
 10
188.2586214284069
 20
37.82571309030565
 10
188.2594606150951
 20
37.78473215750107
210
-2.411458072880683E-9
220
1.177614023682925E-7
230
0.9999999999999931
  0
POLYLINE
  5
A9C
330
1F
100
AcDbEntity
  8
ACCESSORIES$BACK_PICKGUARD
100
AcDb2dPolyline
 66
     1
 10
0.0
 20
0.0
 30
41.99973172447306
210
-1.169442204668160E-6
220
-3.469348129455217E-7
230
-0.9999999999992562
  0
VERTEX
  5
A9D
330
A9C
100
AcDbEntity
  8
ACCESSORIES$BACK_PICKGUARD
100
AcDbVertex
100
AcDb2dVertex
 10
-201.9761467578045
 20
85.91644774498046
 30
41.99973172447306
 42
0.9606613210855669
  0
VERTEX
  5
A9E
330
A9C
100
AcDbEntity
  8
ACCESSORIES$BACK_PICKGUARD
100
AcDbVertex
100
AcDb2dVertex
 10
-199.9793620728354
 20
85.83629089437527
 30
41.99973172447306
  0
SEQEND
  5
A9F
330
A9C
100
AcDbEntity
  8
ACCESSORIES$BACK_PICKGUARD
  0
POLYLINE
  5
AA0
330
1F
100
AcDbEntity
  8
ACCESSORIES$BACK_PICKGUARD
100
AcDb2dPolyline
 66
     1
 10
0.0
 20
0.0
 30
41.99973147640571
210
-1.174700688681698E-6
220
-3.375737264958467E-7
230
-0.999999999999253
  0
VERTEX
  5
AA1
330
AA0
100
AcDbEntity
  8
ACCESSORIES$BACK_PICKGUARD
100
AcDbVertex
100
AcDb2dVertex
 10
-199.9793622936904
 20
85.83629050121174
 30
41.99973147640571
 42
0.9971252388515996
  0
VERTEX
  5
AA2
330
AA0
100
AcDbEntity
  8
ACCESSORIES$BACK_PICKGUARD
100
AcDbVertex
100
AcDb2dVertex
 10
-201.972473808266
 20
86.0023235407537
 30
41.99973147640571
  0
SEQEND
  5
AA3
330
AA0
100
AcDbEntity
  8
ACCESSORIES$BACK_PICKGUARD
  0
LWPOLYLINE
  5
AA4
330
1F
100
AcDbEntity
  8
ACCESSORIES$BACK_PICKGUARD
100
AcDbPolyline
 90
        2
 70
     0
 43
0.0
 38
-41.9999668104115
 10
201.9724237521642
 20
86.00232616813295
 10
201.9760969225577
 20
85.91644997919623
210
-1.711464058827285E-8
220
4.001284860966789E-7
230
0.9999999999999198
  0
POLYLINE
  5
AA7
330
1F
100
AcDbEntity
  8
ACCESSORIES$BACK_PICKGUARD
100
AcDb2dPolyline
 66
     1
 10
0.0
 20
0.0
 30
42.00033742756295
210
8.900082859381527E-7
220
1.472401811595066E-6
230
-0.9999999999985201
  0
VERTEX
  5
AA8
330
AA7
100
AcDbEntity
  8
ACCESSORIES$BACK_PICKGUARD
100
AcDbVertex
100
AcDb2dVertex
 10
-170.5429168732952
 20
124.6917122453078
 30
42.00033742756295
 42
1.005679184871861
  0
VERTEX
  5
AA9
330
AA7
100
AcDbEntity
  8
ACCESSORIES$BACK_PICKGUARD
100
AcDbVertex
100
AcDb2dVertex
 10
-168.5429809289076
 20
124.7030382223049
 30
42.00033742756295
  0
SEQEND
  5
AAA
330
AA7
100
AcDbEntity
  8
ACCESSORIES$BACK_PICKGUARD
  0
POLYLINE
  5
AAB
330
1F
100
AcDbEntity
  8
ACCESSORIES$BACK_PICKGUARD
100
AcDb2dPolyline
 66
     1
 10
0.0
 20
0.0
 30
42.00034097814378
210
8.901683080731759E-7
220
1.500657821117197E-6
230
-0.9999999999984779
  0
VERTEX
  5
AAC
330
AAB
100
AcDbEntity
  8
ACCESSORIES$BACK_PICKGUARD
100
AcDbVertex
100
AcDb2dVertex
 10
-168.5429809221871
 20
124.703037035543
 30
42.00034097814378
 42
0.9943528456002491
  0
VERTEX
  5
AAD
330
AAB
100
AcDbEntity
  8
ACCESSORIES$BACK_PICKGUARD
100
AcDbVertex
100
AcDb2dVertex
 10
-170.5429168665742
 20
124.6917110585458
 30
42.00034097814378
  0
SEQEND
  5
AAE
330
AAB
100
AcDbEntity
  8
ACCESSORIES$BACK_PICKGUARD
  0
LWPOLYLINE
  5
AAF
330
1F
100
AcDbEntity
  8
ACCESSORIES$BACK_PICKGUARD
100
AcDbPolyline
 90
        2
 70
     0
 43
0.0
 38
-42.00023431508207
 10
128.9001286662351
 20
152.3540080345167
 10
128.8885547252839
 20
152.2022769922246
210
-1.047747814047675E-7
220
-1.373567297045865E-6
230
0.9999999999990512
  0
POLYLINE
  5
AB2
330
1F
100
AcDbEntity
  8
ACCESSORIES$BACK_PICKGUARD
100
AcDb2dPolyline
 66
     1
 10
0.0
 20
0.0
 30
42.00019557673518
210
-8.186466028825711E-8
220
1.277099239132820E-6
230
-0.9999999999991813
  0
VERTEX
  5
AB3
330
AB2
100
AcDbEntity
  8
ACCESSORIES$BACK_PICKGUARD
100
AcDbVertex
100
AcDb2dVertex
 10
-128.8885625641429
 20
152.2022810439356
 30
42.00019557673518
 42
1.003522550976799
  0
VERTEX
  5
AB4
330
AB2
100
AcDbEntity
  8
ACCESSORIES$BACK_PICKGUARD
100
AcDbVertex
100
AcDb2dVertex
 10
-126.9128019205978
 20
152.5126906310238
 30
42.00019557673518
  0
SEQEND
  5
AB5
330
AB2
100
AcDbEntity
  8
ACCESSORIES$BACK_PICKGUARD
  0
POLYLINE
  5
AB6
330
1F
100
AcDbEntity
  8
ACCESSORIES$BACK_PICKGUARD
100
AcDb2dPolyline
 66
     1
 10
0.0
 20
0.0
 30
42.00022058761758
210
-6.166091099984905E-8
220
1.424278915345933E-6
230
-0.9999999999989839
  0
VERTEX
  5
AB7
330
AB6
100
AcDbEntity
  8
ACCESSORIES$BACK_PICKGUARD
100
AcDbVertex
100
AcDb2dVertex
 10
-126.9128010720394
 20
152.5126844494432
 30
42.00022058761758
 42
0.9233380781300137
  0
VERTEX
  5
AB8
330
AB6
100
AcDbEntity
  8
ACCESSORIES$BACK_PICKGUARD
100
AcDbVertex
100
AcDb2dVertex
 10
-128.9001356565366
 20
152.3540059046472
 30
42.00022058761758
  0
SEQEND
  5
AB9
330
AB6
100
AcDbEntity
  8
ACCESSORIES$BACK_PICKGUARD
  0
POLYLINE
  5
ABA
330
1F
100
AcDbEntity
  8
ACCESSORIES$BACK_PICKGUARD
100
AcDb2dPolyline
 66
     1
 10
0.0
 20
0.0
 30
42.00003817739467
210
-9.372952590644249E-8
220
5.588362253062335E-7
230
-0.9999999999998395
  0
VERTEX
  5
ABB
330
ABA
100
AcDbEntity
  8
ACCESSORIES$BACK_PICKGUARD
100
AcDbVertex
100
AcDb2dVertex
 10
-61.52503892333467
 20
55.45388884218097
 30
42.00003817739467
 42
0.0712542933926459
  0
VERTEX
  5
ABC
330
ABA
100
AcDbEntity
  8
ACCESSORIES$BACK_PICKGUARD
100
AcDbVertex
100
AcDb2dVertex
 10
-61.48485752063286
 20
55.17326094822143
 30
42.00003817739467
  0
SEQEND
  5
ABD
330
ABA
100
AcDbEntity
  8
ACCESSORIES$BACK_PICKGUARD
  0
POLYLINE
  5
ABE
330
1F
100
AcDbEntity
  8
ACCESSORIES$BACK_PICKGUARD
100
AcDb2dPolyline
 66
     1
 10
0.0
 20
0.0
 30
42.0000405070795
210
3.068342504671960E-8
220
4.624158374511017E-7
230
-0.9999999999998928
  0
VERTEX
  5
ABF
330
ABE
100
AcDbEntity
  8
ACCESSORIES$BACK_PICKGUARD
100
AcDbVertex
100
AcDb2dVertex
 10
-61.48485229528799
 20
55.17326499787761
 30
42.0000405070795
 42
1.002541606940609
  0
VERTEX
  5
AC0
330
ABE
100
AcDbEntity
  8
ACCESSORIES$BACK_PICKGUARD
100
AcDbVertex
100
AcDb2dVertex
 10
-59.5666522836196
 20
55.7393898756235
 30
42.0000405070795
  0
SEQEND
  5
AC1
330
ABE
100
AcDbEntity
  8
ACCESSORIES$BACK_PICKGUARD
  0
POLYLINE
  5
AC2
330
1F
100
AcDbEntity
  8
ACCESSORIES$BACK_PICKGUARD
100
AcDb2dPolyline
 66
     1
 10
0.0
 20
0.0
 30
42.00005087225688
210
6.388430416025336E-8
220
6.128931329604477E-7
230
-0.9999999999998102
  0
VERTEX
  5
AC3
330
AC2
100
AcDbEntity
  8
ACCESSORIES$BACK_PICKGUARD
100
AcDbVertex
100
AcDb2dVertex
 10
-59.56665088918212
 20
55.73938355556916
 30
42.00005087225688
 42
0.8647916393702708
  0
VERTEX
  5
AC4
330
AC2
100
AcDbEntity
  8
ACCESSORIES$BACK_PICKGUARD
100
AcDbVertex
100
AcDb2dVertex
 10
-61.52503230355191
 20
55.45388657178276
 30
42.00005087225688
  0
SEQEND
  5
AC5
330
AC2
100
AcDbEntity
  8
ACCESSORIES$BACK_PICKGUARD
  0
POLYLINE
  5
AC6
330
1F
100
AcDbEntity
  8
ACCESSORIES$BACK_PICKGUARD
100
AcDb2dPolyline
 66
     1
 10
0.0
 20
0.0
 30
42.00005001431786
210
-4.677973459955720E-8
220
4.306707826008322E-7
230
-0.9999999999999063
  0
VERTEX
  5
AC7
330
AC6
100
AcDbEntity
  8
ACCESSORIES$BACK_PICKGUARD
100
AcDbVertex
100
AcDb2dVertex
 10
-31.88046978121799
 20
95.72270200120184
 30
42.00005001431786
 42
0.098649871385171
  0
VERTEX
  5
AC8
330
AC6
100
AcDbEntity
  8
ACCESSORIES$BACK_PICKGUARD
100
AcDbVertex
100
AcDb2dVertex
 10
-31.80410879536164
 20
95.33943830284056
 30
42.00005001431786
  0
SEQEND
  5
AC9
330
AC6
100
AcDbEntity
  8
ACCESSORIES$BACK_PICKGUARD
  0
POLYLINE
  5
ACA
330
1F
100
AcDbEntity
  8
ACCESSORIES$BACK_PICKGUARD
100
AcDb2dPolyline
 66
     1
 10
0.0
 20
0.0
 30
42.0000621294899
210
-2.410853007755706E-7
220
6.225629239810134E-7
230
-0.9999999999997773
  0
VERTEX
  5
ACB
330
ACA
100
AcDbEntity
  8
ACCESSORIES$BACK_PICKGUARD
100
AcDbVertex
100
AcDb2dVertex
 10
-31.80411695619702
 20
95.33943024336322
 30
42.0000621294899
 42
1.002761740776364
  0
VERTEX
  5
ACC
330
ACA
100
AcDbEntity
  8
ACCESSORIES$BACK_PICKGUARD
100
AcDbVertex
100
AcDb2dVertex
 10
-29.95894768436962
 20
96.1110005192445
 30
42.0000621294899
  0
SEQEND
  5
ACD
330
ACA
100
AcDbEntity
  8
ACCESSORIES$BACK_PICKGUARD
  0
POLYLINE
  5
ACE
330
1F
100
AcDbEntity
  8
ACCESSORIES$BACK_PICKGUARD
100
AcDb2dPolyline
 66
     1
 10
0.0
 20
0.0
 30
42.00003425260334
210
-3.249677579813724E-7
220
3.586612405014994E-7
230
-0.999999999999883
  0
VERTEX
  5
ACF
330
ACE
100
AcDbEntity
  8
ACCESSORIES$BACK_PICKGUARD
100
AcDbVertex
100
AcDb2dVertex
 10
-29.95895120743292
 20
96.11101160312916
 30
42.00003425260334
 42
0.8181363647177688
  0
VERTEX
  5
AD0
330
ACE
100
AcDbEntity
  8
ACCESSORIES$BACK_PICKGUARD
100
AcDbVertex
100
AcDb2dVertex
 10
-31.88048146511623
 20
95.72270502560914
 30
42.00003425260334
  0
SEQEND
  5
AD1
330
ACE
100
AcDbEntity
  8
ACCESSORIES$BACK_PICKGUARD
  0
POLYLINE
  5
AD2
330
1F
100
AcDbEntity
  8
ACCESSORIES$BACK_PICKGUARD
100
AcDb2dPolyline
 66
     1
 10
0.0
 20
0.0
 30
42.00013794206583
210
7.209054366042175E-7
220
8.790052573026175E-7
230
-0.9999999999993539
  0
VERTEX
  5
AD3
330
AD2
100
AcDbEntity
  8
ACCESSORIES$BACK_PICKGUARD
100
AcDbVertex
100
AcDb2dVertex
 10
-12.98908399127911
 20
142.0278414738436
 30
42.00013794206583
 42
0.1255222449749525
  0
VERTEX
  5
AD4
330
AD2
100
AcDbEntity
  8
ACCESSORIES$BACK_PICKGUARD
100
AcDbVertex
100
AcDb2dVertex
 10
-12.86693365317897
 20
141.5489013531805
 30
42.00013794206583
  0
SEQEND
  5
AD5
330
AD2
100
AcDbEntity
  8
ACCESSORIES$BACK_PICKGUARD
  0
POLYLINE
  5
AD6
330
1F
100
AcDbEntity
  8
ACCESSORIES$BACK_PICKGUARD
100
AcDb2dPolyline
 66
     1
 10
0.0
 20
0.0
 30
42.00017610467635
210
6.007554186276836E-7
220
1.159534278818382E-6
230
-0.9999999999991473
  0
VERTEX
  5
AD7
330
AD6
100
AcDbEntity
  8
ACCESSORIES$BACK_PICKGUARD
100
AcDbVertex
100
AcDb2dVertex
 10
-12.86693869948127
 20
141.5488895709192
 30
42.00017610467635
 42
1.003013479905296
  0
VERTEX
  5
AD8
330
AD6
100
AcDbEntity
  8
ACCESSORIES$BACK_PICKGUARD
100
AcDbVertex
100
AcDb2dVertex
 10
-11.11413730975396
 20
142.5120439936809
 30
42.00017610467635
  0
SEQEND
  5
AD9
330
AD6
100
AcDbEntity
  8
ACCESSORIES$BACK_PICKGUARD
  0
POLYLINE
  5
ADA
330
1F
100
AcDbEntity
  8
ACCESSORIES$BACK_PICKGUARD
100
AcDb2dPolyline
 66
     1
 10
0.0
 20
0.0
 30
42.00013460438098
210
4.644642307402956E-7
220
8.789577517758238E-7
230
-0.999999999999506
  0
VERTEX
  5
ADB
330
ADA
100
AcDbEntity
  8
ACCESSORIES$BACK_PICKGUARD
100
AcDbVertex
100
AcDb2dVertex
 10
-11.11414303398522
 20
142.5120557779402
 30
42.00013460438098
 42
0.7745571580002367
  0
VERTEX
  5
ADC
330
ADA
100
AcDbEntity
  8
ACCESSORIES$BACK_PICKGUARD
100
AcDbVertex
100
AcDb2dVertex
 10
-12.98909476181264
 20
142.0278414758417
 30
42.00013460438098
  0
SEQEND
  5
ADD
330
ADA
100
AcDbEntity
  8
ACCESSORIES$BACK_PICKGUARD
  0
POLYLINE
  5
ADE
330
1F
100
AcDbEntity
  8
ACCESSORIES$BACK_PICKGUARD
100
AcDb2dPolyline
 66
     1
 10
0.0
 20
0.0
 30
41.99948710247717
210
0.0
220
-2.833805592224336E-6
230
-0.9999999999959848
  0
VERTEX
  5
ADF
330
ADE
100
AcDbEntity
  8
ACCESSORIES$BACK_PICKGUARD
100
AcDbVertex
100
AcDb2dVertex
 10
-34.19872681564209
 20
182.4131016258165
 30
41.99948710247717
 42
0.1267545672357938
  0
VERTEX
  5
AE0
330
ADE
100
AcDbEntity
  8
ACCESSORIES$BACK_PICKGUARD
100
AcDbVertex
100
AcDb2dVertex
 10
-34.07552742852009
 20
181.9318599808089
 30
41.99948710247717
  0
SEQEND
  5
AE1
330
ADE
100
AcDbEntity
  8
ACCESSORIES$BACK_PICKGUARD
  0
POLYLINE
  5
AE2
330
1F
100
AcDbEntity
  8
ACCESSORIES$BACK_PICKGUARD
100
AcDb2dPolyline
 66
     1
 10
0.0
 20
0.0
 30
41.9995019644313
210
-2.588751232798299E-7
220
-2.703702384074234E-6
230
-0.9999999999963116
  0
VERTEX
  5
AE3
330
AE2
100
AcDbEntity
  8
ACCESSORIES$BACK_PICKGUARD
100
AcDbVertex
100
AcDb2dVertex
 10
-34.07553830127438
 20
181.9318545165155
 30
41.9995019644313
 42
1.003493635116627
  0
VERTEX
  5
AE4
330
AE2
100
AcDbEntity
  8
ACCESSORIES$BACK_PICKGUARD
100
AcDbVertex
100
AcDb2dVertex
 10
-32.32532057770898
 20
182.9004387060808
 30
41.9995019644313
  0
SEQEND
  5
AE5
330
AE2
100
AcDbEntity
  8
ACCESSORIES$BACK_PICKGUARD
  0
POLYLINE
  5
AE6
330
1F
100
AcDbEntity
  8
ACCESSORIES$BACK_PICKGUARD
100
AcDb2dPolyline
 66
     1
 10
0.0
 20
0.0
 30
41.99944581560727
210
-3.509248595601864E-7
220
-2.994424949892036E-6
230
-0.9999999999954552
  0
VERTEX
  5
AE7
330
AE6
100
AcDbEntity
  8
ACCESSORIES$BACK_PICKGUARD
100
AcDbVertex
100
AcDb2dVertex
 10
-32.32532444379742
 20
182.9004509162671
 30
41.99944581560727
 42
0.773326119096191
  0
VERTEX
  5
AE8
330
AE6
100
AcDbEntity
  8
ACCESSORIES$BACK_PICKGUARD
100
AcDbVertex
100
AcDb2dVertex
 10
-34.1987415544855
 20
182.4131083717088
 30
41.99944581560727
  0
SEQEND
  5
AE9
330
AE6
100
AcDbEntity
  8
ACCESSORIES$BACK_PICKGUARD
  0
ENDSEC
  0
SECTION
  2
OBJECTS
  0
DICTIONARY
  5
C
330
0
100
AcDbDictionary
  3
ACAD_GROUP
350
D
  3
ACAD_LAYOUT
350
1A
  3
ACAD_MATERIAL
350
43
  3
ACAD_MLEADERSTYLE
350
6B
  3
ACAD_MLINESTYLE
350
17
  3
ACAD_PLOTSETTINGS
350
19
  3
ACAD_SCALELIST
350
47
  3
ACAD_VISUALSTYLE
350
2A
  3
ACDBHEADERROUNDTRIPXREC
350
AEA
  3
ACDBVARIABLEDICTIONARY
350
B0B
  3
DWGPROPS
350
B12
  0
DICTIONARY
  5
B13
330
8
100
AcDbDictionary
280
     1
  3
ACAD_XREC_ROUNDTRIP
360
B14
  0
DICTIONARY
  5
D
102
{ACAD_REACTORS
330
C
102
}
330
C
100
AcDbDictionary
  0
DICTIONARY
  5
1A
102
{ACAD_REACTORS
330
C
102
}
330
C
100
AcDbDictionary
  0
DICTIONARY
  5
43
102
{ACAD_REACTORS
330
C
102
}
330
C
100
AcDbDictionary
  3
BYBLOCK
350
45
  3
BYLAYER
350
44
  3
GLOBAL
350
46
  0
DICTIONARY
  5
6B
102
{ACAD_REACTORS
330
C
102
}
330
C
100
AcDbDictionary
  3
STANDARD
350
6C
  0
DICTIONARY
  5
17
102
{ACAD_REACTORS
330
C
102
}
330
C
100
AcDbDictionary
  3
STANDARD
350
18
  0
DICTIONARY
  5
19
102
{ACAD_REACTORS
330
C
102
}
330
C
100
AcDbDictionary
  0
DICTIONARY
  5
47
102
{ACAD_REACTORS
330
C
102
}
330
C
100
AcDbDictionary
  3
A0
350
48
  3
A1
350
49
  3
A2
350
4A
  3
A3
350
4B
  3
A4
350
4C
  3
A5
350
4D
  3
A6
350
4E
  3
A7
350
4F
  3
A8
350
50
  3
A9
350
51
  3
B0
350
52
  3
B1
350
53
  3
B2
350
54
  3
B3
350
55
  3
B4
350
56
  3
B5
350
57
  3
B6
350
58
  3
B7
350
59
  3
B8
350
5A
  3
B9
350
5B
  3
C0
350
5C
  3
C1
350
5D
  3
C2
350
5E
  3
C3
350
5F
  3
C4
350
60
  3
C5
350
61
  3
C6
350
62
  3
C7
350
63
  3
C8
350
64
  3
C9
350
65
  3
D0
350
66
  3
D1
350
67
  3
D2
350
68
  0
DICTIONARY
  5
2A
102
{ACAD_REACTORS
330
C
102
}
330
C
100
AcDbDictionary
  3
2DWIREFRAME
350
2F
  3
BASIC
350
32
  3
BRIGHTEN
350
36
  3
COLORCHANGE
350
3A
  3
CONCEPTUAL
350
34
  3
DIM
350
35
  3
EDGECOLOROFF
350
3D
  3
FACEPATTERN
350
39
  3
FLAT
350
2B
  3
FLATWITHEDGES
350
2C
  3
GOURAUD
350
2D
  3
GOURAUDWITHEDGES
350
2E
  3
HIDDEN
350
31
  3
JITTEROFF
350
3B
  3
LINEPATTERN
350
38
  3
OVERHANGOFF
350
3C
  3
REALISTIC
350
33
  3
SHADED
350
42
  3
SHADED_WITH_EDGES
350
41
  3
SHADES_OF_GRAY
350
3E
  3
SKETCHY
350
3F
  3
THICKEN
350
37
  3
WIREFRAME
350
30
  3
X-RAY
350
40
  0
DICTIONARY
  5
AEA
102
{ACAD_REACTORS
330
C
102
}
330
C
100
AcDbDictionary
  3
CEPSNID
350
AF4
  3
CEPSNTYPE
350
AF3
  3
DIMSTYLEDATA
350
B0A
  3
FINGERPRINTGUID
350
AF5
  3
HYPERLINKBASE
350
AED
  3
INSUNITS
350
AF2
  3
LAYOUTDICT
350
AEF
  3
LWETCUNION
350
AF1
  3
PLOTSETDICT
350
AF0
  3
PSVPSCALE
350
AF7
  3
PUCSBASE
350
AFA
  3
PUCSORGBACK
350
B00
  3
PUCSORGBOTTOM
350
AFC
  3
PUCSORGFRONT
350
AFF
  3
PUCSORGLEFT
350
AFD
  3
PUCSORGRIGHT
350
AFE
  3
PUCSORGTOP
350
AFB
  3
PUCSORTHOREF
350
AF8
  3
PUCSORTHOVIEW
350
AF9
  3
STYLESHEET
350
AEE
  3
TSTACKALIGN
350
AEB
  3
TSTACKSIZE
350
AEC
  3
UCSBASE
350
B03
  3
UCSORGBACK
350
B09
  3
UCSORGBOTTOM
350
B05
  3
UCSORGFRONT
350
B08
  3
UCSORGLEFT
350
B06
  3
UCSORGRIGHT
350
B07
  3
UCSORGTOP
350
B04
  3
UCSORTHOREF
350
B01
  3
UCSORTHOVIEW
350
B02
  3
VERSIONGUID
350
AF6
  0
DICTIONARY
  5
B0B
102
{ACAD_REACTORS
330
C
102
}
330
C
100
AcDbDictionary
  3
CANNOSCALE
350
B15
  3
CMLEADERSTYLE
350
B0D
  3
CTABLESTYLE
350
B0C
  3
DIMASSOC
350
B10
  3
HIDETEXT
350
B11
  3
MSLTSCALE
350
B16
  0
XRECORD
  5
B12
102
{ACAD_REACTORS
330
C
102
}
330
C
100
AcDbXrecord
  1
DWGPROPS COOKIE
  2

  3

  4

  6

  7

  8
Juampi
  9

300
=
301
=
302
=
303
=
304
=
305
=
306
=
307
=
308
=
309
=
 40
0.0
 41
2459936.608134549
 42
2459936.609759618
  1

 90
        0
  0
XRECORD
  5
B14
102
{ACAD_REACTORS
330
B13
102
}
330
B13
100
AcDbXrecord
102
VTR_0.000_0.000_1.000_1.000_VISUALSTYLE
340
2F
102
VTR_0.000_0.000_1.000_1.000_GRIDDISPLAY
 70
     3
102
VTR_0.000_0.000_1.000_1.000_GRIDMAJOR
 70
     5
102
VTR_0.000_0.000_1.000_1.000_DEFAULTLIGHTING
280
     1
102
VTR_0.000_0.000_1.000_1.000_DEFAULTLIGHTINGTYPE
 70
     1
102
VTR_0.000_0.000_1.000_1.000_BRIGHTNESS
141
0.0
102
VTR_0.000_0.000_1.000_1.000_CONTRAST
142
0.0
  0
MATERIAL
  5
45
102
{ACAD_REACTORS
330
43
102
}
102
{ACAD_XDICTIONARY
360
B19
102
}
330
43
100
AcDbMaterial
  1
BYBLOCK
  0
MATERIAL
  5
44
102
{ACAD_REACTORS
330
43
102
}
102
{ACAD_XDICTIONARY
360
B17
102
}
330
43
100
AcDbMaterial
  1
BYLAYER
  0
MATERIAL
  5
46
102
{ACAD_REACTORS
330
43
102
}
102
{ACAD_XDICTIONARY
360
B1B
102
}
330
43
100
AcDbMaterial
  1
GLOBAL
  0
ACAD_PROXY_OBJECT
  5
6C
102
{ACAD_REACTORS
330
6B
102
}
330
6B
100
AcDbProxyObject
 90
      499
 91
      505
 93
      610
310
40901902A4063FBFFFFFE056BD1B81E855B9FC0AD7A3703D0AD73F4214DD185B99185C9900AD7A3703D0AC73F90141901A02B5E8DC0F42B1CFC02B5E8DC0F42B1CFE5764000000000000300FC0
340
14
340
0
340
11
340
0
 94
        0
1001
ACAD_MLEADERVER
1070
     2
  0
MLINESTYLE
  5
18
102
{ACAD_REACTORS
330
17
102
}
330
17
100
AcDbMlineStyle
  2
Standard
 70
     0
  3

 62
   256
 51
90.0
 52
90.0
 71
     2
 49
0.5
 62
   256
  6
BYLAYER
 49
-0.5
 62
   256
  6
BYLAYER
  0
ACAD_PROXY_OBJECT
  5
48
102
{ACAD_REACTORS
330
47
102
}
330
47
100
AcDbProxyObject
 90
      499
 91
      503
 93
       41
310
903313A31580
  0
ACAD_PROXY_OBJECT
  5
49
102
{ACAD_REACTORS
330
47
102
}
330
47
100
AcDbProxyObject
 90
      499
 91
      503
 93
      105
310
903313A324000000000000004000
  0
ACAD_PROXY_OBJECT
  5
4A
102
{ACAD_REACTORS
330
47
102
}
330
47
100
AcDbProxyObject
 90
      499
 91
      503
 93
      105
310
903313A344000000000000104000
  0
ACAD_PROXY_OBJECT
  5
4B
102
{ACAD_REACTORS
330
47
102
}
330
47
100
AcDbProxyObject
 90
      499
 91
      503
 93
      105
310
903313A354000000000000144000
  0
ACAD_PROXY_OBJECT
  5
4C
102
{ACAD_REACTORS
330
47
102
}
330
47
100
AcDbProxyObject
 90
      499
 91
      503
 93
      105
310
903313A384000000000000204000
  0
ACAD_PROXY_OBJECT
  5
4D
102
{ACAD_REACTORS
330
47
102
}
330
47
100
AcDbProxyObject
 90
      499
 91
      503
 93
      113
310
904313A31304000000000000244000
  0
ACAD_PROXY_OBJECT
  5
4E
102
{ACAD_REACTORS
330
47
102
}
330
47
100
AcDbProxyObject
 90
      499
 91
      503
 93
      113
310
904313A31364000000000000304000
  0
ACAD_PROXY_OBJECT
  5
4F
102
{ACAD_REACTORS
330
47
102
}
330
47
100
AcDbProxyObject
 90
      499
 91
      503
 93
      113
310
904313A32304000000000000344000
  0
ACAD_PROXY_OBJECT
  5
50
102
{ACAD_REACTORS
330
47
102
}
330
47
100
AcDbProxyObject
 90
      499
 91
      503
 93
      113
310
904313A333040000000000003E4000
  0
ACAD_PROXY_OBJECT
  5
51
102
{ACAD_REACTORS
330
47
102
}
330
47
100
AcDbProxyObject
 90
      499
 91
      503
 93
      113
310
904313A34304000000000000444000
  0
ACAD_PROXY_OBJECT
  5
52
102
{ACAD_REACTORS
330
47
102
}
330
47
100
AcDbProxyObject
 90
      499
 91
      503
 93
      113
310
904313A35304000000000000494000
  0
ACAD_PROXY_OBJECT
  5
53
102
{ACAD_REACTORS
330
47
102
}
330
47
100
AcDbProxyObject
 90
      499
 91
      503
 93
      121
310
905313A3130304000000000000594000
  0
ACAD_PROXY_OBJECT
  5
54
102
{ACAD_REACTORS
330
47
102
}
330
47
100
AcDbProxyObject
 90
      499
 91
      503
 93
      105
310
903323A310000000000000010100
  0
ACAD_PROXY_OBJECT
  5
55
102
{ACAD_REACTORS
330
47
102
}
330
47
100
AcDbProxyObject
 90
      499
 91
      503
 93
      105
310
903343A310000000000000410100
  0
ACAD_PROXY_OBJECT
  5
56
102
{ACAD_REACTORS
330
47
102
}
330
47
100
AcDbProxyObject
 90
      499
 91
      503
 93
      105
310
903383A310000000000000810100
  0
ACAD_PROXY_OBJECT
  5
57
102
{ACAD_REACTORS
330
47
102
}
330
47
100
AcDbProxyObject
 90
      499
 91
      503
 93
      113
310
90431303A310000000000000910100
  0
ACAD_PROXY_OBJECT
  5
58
102
{ACAD_REACTORS
330
47
102
}
330
47
100
AcDbProxyObject
 90
      499
 91
      503
 93
      121
310
9053130303A310000000000001650100
  0
ACAD_PROXY_OBJECT
  5
59
102
{ACAD_REACTORS
330
47
102
}
330
47
100
AcDbProxyObject
 90
      499
 91
      503
 93
      257
310
90E312F31323822203D2031272D3022000000000000200FC000000000000284000
  0
ACAD_PROXY_OBJECT
  5
5A
102
{ACAD_REACTORS
330
47
102
}
330
47
100
AcDbProxyObject
 90
      499
 91
      503
 93
      249
310
90D312F363422203D2031272D3022000000000000240FC000000000000284000
  0
ACAD_PROXY_OBJECT
  5
5B
102
{ACAD_REACTORS
330
47
102
}
330
47
100
AcDbProxyObject
 90
      499
 91
      503
 93
      249
310
90D312F333222203D2031272D3022000000000000280FC000000000000284000
  0
ACAD_PROXY_OBJECT
  5
5C
102
{ACAD_REACTORS
330
47
102
}
330
47
100
AcDbProxyObject
 90
      499
 91
      503
 93
      249
310
90D312F313622203D2031272D30220000000000002C0FC000000000000284000
  0
ACAD_PROXY_OBJECT
  5
5D
102
{ACAD_REACTORS
330
47
102
}
330
47
100
AcDbProxyObject
 90
      499
 91
      503
 93
      249
310
90D332F333222203D2031272D30220000000000002E0FC000000000000284000
  0
ACAD_PROXY_OBJECT
  5
5E
102
{ACAD_REACTORS
330
47
102
}
330
47
100
AcDbProxyObject
 90
      499
 91
      503
 93
      241
310
90C312F3822203D2031272D3022000000000000300FC000000000000284000
  0
ACAD_PROXY_OBJECT
  5
5F
102
{ACAD_REACTORS
330
47
102
}
330
47
100
AcDbProxyObject
 90
      499
 91
      503
 93
      249
310
90D332F313622203D2031272D3022000000000000320FC000000000000284000
  0
ACAD_PROXY_OBJECT
  5
60
102
{ACAD_REACTORS
330
47
102
}
330
47
100
AcDbProxyObject
 90
      499
 91
      503
 93
      241
310
90C312F3422203D2031272D3022000000000000340FC000000000000284000
  0
ACAD_PROXY_OBJECT
  5
61
102
{ACAD_REACTORS
330
47
102
}
330
47
100
AcDbProxyObject
 90
      499
 91
      503
 93
      241
310
90C332F3822203D2031272D3022000000000000360FC000000000000284000
  0
ACAD_PROXY_OBJECT
  5
62
102
{ACAD_REACTORS
330
47
102
}
330
47
100
AcDbProxyObject
 90
      499
 91
      503
 93
      241
310
90C312F3222203D2031272D3022000000000000380FC000000000000284000
  0
ACAD_PROXY_OBJECT
  5
63
102
{ACAD_REACTORS
330
47
102
}
330
47
100
AcDbProxyObject
 90
      499
 91
      503
 93
      241
310
90C332F3422203D2031272D30220000000000003A0FC000000000000284000
  0
ACAD_PROXY_OBJECT
  5
64
102
{ACAD_REACTORS
330
47
102
}
330
47
100
AcDbProxyObject
 90
      499
 91
      503
 93
      161
310
90A3122203D2031272D30224000000000000284000
  0
ACAD_PROXY_OBJECT
  5
65
102
{ACAD_REACTORS
330
47
102
}
330
47
100
AcDbProxyObject
 90
      499
 91
      503
 93
      257
310
90E312D312F3222203D2031272D30220000000000003E0FC000000000000284000
  0
ACAD_PROXY_OBJECT
  5
66
102
{ACAD_REACTORS
330
47
102
}
330
47
100
AcDbProxyObject
 90
      499
 91
      503
 93
      225
310
90A3322203D2031272D302200000000000002100000000000000284000
  0
ACAD_PROXY_OBJECT
  5
67
102
{ACAD_REACTORS
330
47
102
}
330
47
100
AcDbProxyObject
 90
      499
 91
      503
 93
      225
310
90A3622203D2031272D302200000000000006100000000000000284000
  0
ACAD_PROXY_OBJECT
  5
68
102
{ACAD_REACTORS
330
47
102
}
330
47
100
AcDbProxyObject
 90
      499
 91
      503
 93
      249
310
90D31272D3022203D2031272D30220000000000000A100000000000000284000
  0
ACAD_PROXY_OBJECT
  5
2F
102
{ACAD_REACTORS
330
2A
102
}
330
2A
100
AcDbProxyObject
 90
      499
 91
      501
 93
      436
310
42CC9915DA5C99599C985B595049028333333333333E33F0000000000000F90107901411070040501600405405064090741402480A0340
1001
ACAD
1000
AcDbSavedByObjectVersion
1070
     0
  0
ACAD_PROXY_OBJECT
  5
32
102
{ACAD_REACTORS
330
2A
102
}
330
2A
100
AcDbProxyObject
 90
      499
 91
      501
 93
      388
310
4150985CDA58D07406404333333333333E33F0000000000000F90107A41107004050150841D405064090741402480A0350
1001
ACAD
1000
AcDbSavedByObjectVersion
1070
     0
  0
ACAD_PROXY_OBJECT
  5
36
102
{ACAD_REACTORS
330
2A
102
}
330
2A
100
AcDbProxyObject
 90
      499
 91
      501
 93
      428
310
42109C9A59DA1D195B90C409028333333333333E33F0000000000000F9010790141107004050150841D405064090741402480A029950
1001
ACAD
1000
AcDbSavedByObjectVersion
1070
     0
  0
ACAD_PROXY_OBJECT
  5
3A
102
{ACAD_REACTORS
330
2A
102
}
330
2A
100
AcDbProxyObject
 90
      499
 91
      501
 93
      452
310
42D0DBDB1BDC90DA185B99D95104090240C333333333333E33F0000000000000F90108901411070040501508421405064090741402480A0350
1001
ACAD
1000
AcDbSavedByObjectVersion
1070
     0
  0
ACAD_PROXY_OBJECT
  5
34
102
{ACAD_REACTORS
330
2A
102
}
330
2A
100
AcDbProxyObject
 90
      499
 91
      501
 93
      500
310
4290DBDB98D95C1D1D585B10940D028333333333333E33F0000000000000F90107902409070040501000000000018199010841D405064090740C02480A0340
1001
ACAD
1000
AcDbSavedByObjectVersion
1070
     0
  0
ACAD_PROXY_OBJECT
  5
35
102
{ACAD_REACTORS
330
2A
102
}
330
2A
100
AcDbProxyObject
 90
      499
 91
      501
 93
      412
310
40D11A5B50B409028333333333333E33F0000000000000F9010790141107004050150841D405064090741402480A02677FFFFFD0
1001
ACAD
1000
AcDbSavedByObjectVersion
1070
     0
  0
ACAD_PROXY_OBJECT
  5
3D
102
{ACAD_REACTORS
330
2A
102
}
330
2A
100
AcDbProxyObject
 90
      499
 91
      501
 93
      452
310
43115919D950DBDB1BDC93D999916409028333333333333E33F0000000000000F9010790141107004050150841D405064090741402480A0350
1001
ACAD
1000
AcDbSavedByObjectVersion
1070
     0
  0
ACAD_PROXY_OBJECT
  5
39
102
{ACAD_REACTORS
330
2A
102
}
330
2A
100
AcDbProxyObject
 90
      499
 91
      501
 93
      444
310
42D19858D95C185D1D195C9B90F409028333333333333E33F0000000000000F9010790141107004050150841D405064090741402480A0350
1001
ACAD
1000
AcDbSavedByObjectVersion
1070
     0
  0
ACAD_PROXY_OBJECT
  5
2B
102
{ACAD_REACTORS
330
2A
102
}
330
2A
100
AcDbProxyObject
 90
      499
 91
      501
 93
      380
310
41119B185D240901404333333333333E33F0000000000000F9010740A907004050150841D405064090741402480A1B50
1001
ACAD
1000
AcDbSavedByObjectVersion
1070
     0
  0
ACAD_PROXY_OBJECT
  5
2C
102
{ACAD_REACTORS
330
2A
102
}
330
2A
100
AcDbProxyObject
 90
      499
 91
      501
 93
      468
310
43519B185D15DA5D1A115919D95CD0140901404333333333333E33F0000000000000F90107409019070040501600405405064090741402480A1B50
1001
ACAD
1000
AcDbSavedByObjectVersion
1070
     0
  0
ACAD_PROXY_OBJECT
  5
2D
102
{ACAD_REACTORS
330
2A
102
}
330
2A
100
AcDbProxyObject
 90
      499
 91
      501
 93
      404
310
41D1DBDD5C985D5910240902404333333333333E33F0000000000000F9010740A9070040501641D405064090741402480A1B50
1001
ACAD
1000
AcDbSavedByObjectVersion
1070
     0
  0
ACAD_PROXY_OBJECT
  5
2E
102
{ACAD_REACTORS
330
2A
102
}
330
2A
100
AcDbProxyObject
 90
      499
 91
      501
 93
      492
310
4411DBDD5C985D5915DA5D1A115919D95CD0340902404333333333333E33F0000000000000F90107409019070040501600405405064090741402480A1B50
1001
ACAD
1000
AcDbSavedByObjectVersion
1070
     0
  0
ACAD_PROXY_OBJECT
  5
31
102
{ACAD_REACTORS
330
2A
102
}
330
2A
100
AcDbProxyObject
 90
      499
 91
      501
 93
      476
310
41921A5919195B90640502408333333333333E33F0000000000000F901079024090700405020000000000001110200405405064090740C02480A0340
1001
ACAD
1000
AcDbSavedByObjectVersion
1070
     0
  0
ACAD_PROXY_OBJECT
  5
3B
102
{ACAD_REACTORS
330
2A
102
}
330
2A
100
AcDbProxyObject
 90
      499
 91
      501
 93
      428
310
42529A5D1D195C93D999914409028333333333333E33F0000000000000F9010790141107004050150A41D405064090741402480A0350
1001
ACAD
1000
AcDbSavedByObjectVersion
1070
     0
  0
ACAD_PROXY_OBJECT
  5
38
102
{ACAD_REACTORS
330
2A
102
}
330
2A
100
AcDbProxyObject
 90
      499
 91
      501
 93
      444
310
42D31A5B995C185D1D195C9B90E409028333333333333E33F0000000000000F9010790141107004050750841D405064090741402483A0350
1001
ACAD
1000
AcDbSavedByObjectVersion
1070
     0
  0
ACAD_PROXY_OBJECT
  5
3C
102
{ACAD_REACTORS
330
2A
102
}
330
2A
100
AcDbProxyObject
 90
      499
 91
      501
 93
      444
310
42D3DD995C9A185B99D3D999915409028333333333333E33F0000000000000F9010790141107004050150941D405064090741402480A0350
1001
ACAD
1000
AcDbSavedByObjectVersion
1070
     0
  0
ACAD_PROXY_OBJECT
  5
33
102
{ACAD_REACTORS
330
2A
102
}
330
2A
100
AcDbProxyObject
 90
      499
 91
      501
 93
      428
310
425499585B1A5CDD1A58D08409038333333333333E33F0000000000000F9010740A907004050150800405405064090740C02480A1B40
1001
ACAD
1000
AcDbSavedByObjectVersion
1070
     0
  0
ACAD_PROXY_OBJECT
  5
42
102
{ACAD_REACTORS
330
2A
102
}
330
2A
100
AcDbProxyObject
 90
      499
 91
      501
 93
      420
310
4194DA1859195911B40902404333333333333E33F0000000000000F9010740A41107004050150800405405064090840C02480A0B40
1001
ACAD
1000
AcDbSavedByObjectVersion
1070
     0
  0
ACAD_PROXY_OBJECT
  5
41
102
{ACAD_REACTORS
330
2A
102
}
330
2A
100
AcDbProxyObject
 90
      499
 91
      501
 93
      516
310
4454DA18591959081DDA5D1A08195919D95CD1A40902404333333333333E33F0000000000000F901074090142907004050250800405405064090740C02480A0B40
1001
ACAD
1000
AcDbSavedByObjectVersion
1070
     0
  0
ACAD_PROXY_OBJECT
  5
3E
102
{ACAD_REACTORS
330
2A
102
}
330
2A
100
AcDbProxyObject
 90
      499
 91
      501
 93
      532
310
4394DA1859195CC81BD98811DC985E5174090240C333333333333E33F0000000000000F901079024090741D01000000000000111010841D405064090740C02480A0340
1001
ACAD
1000
AcDbSavedByObjectVersion
1070
     0
  0
ACAD_PROXY_OBJECT
  5
3F
102
{ACAD_REACTORS
330
2A
102
}
330
2A
100
AcDbProxyObject
 90
      499
 91
      501
 93
      476
310
41D4DAD95D18DA1E51840502408333333333333E33F0000000000000F901079024090741D01000000000000111010B41D405064090741802480A0340
1001
ACAD
1000
AcDbSavedByObjectVersion
1070
     0
  0
ACAD_PROXY_OBJECT
  5
37
102
{ACAD_REACTORS
330
2A
102
}
330
2A
100
AcDbProxyObject
 90
      499
 91
      501
 93
      412
310
41D51A1A58DAD95B90D409028333333333333E33F0000000000000F9010790141107004050150C41D405064090741402480A0350
1001
ACAD
1000
AcDbSavedByObjectVersion
1070
     0
  0
ACAD_PROXY_OBJECT
  5
30
102
{ACAD_REACTORS
330
2A
102
}
330
2A
100
AcDbProxyObject
 90
      499
 91
      501
 93
      420
310
4255DA5C99599C985B595059028333333333333E33F0000000000000F90107901411070040501600405405064090740C02480A0340
1001
ACAD
1000
AcDbSavedByObjectVersion
1070
     0
  0
ACAD_PROXY_OBJECT
  5
40
102
{ACAD_REACTORS
330
2A
102
}
330
2A
100
AcDbProxyObject
 90
      499
 91
      501
 93
      404
310
41560B54985E51940902404000000000000E03F0000000000000F9010740501907004050150841D405064090740C02480A1B40
1001
ACAD
1000
AcDbSavedByObjectVersion
1070
     0
  0
XRECORD
  5
AF4
102
{ACAD_REACTORS
330
AEA
102
}
330
AEA
100
AcDbXrecord
340
0
  0
XRECORD
  5
AF3
102
{ACAD_REACTORS
330
AEA
102
}
330
AEA
100
AcDbXrecord
 90
        0
  0
XRECORD
  5
B0A
102
{ACAD_REACTORS
330
AEA
102
}
330
AEA
100
AcDbXrecord
1000
DSTYLE
1002
{
1070
   171
 70
     2
1070
   143
 40
25.4
1070
   274
 70
     2
1070
    41
 40
0.18
1070
   141
 40
0.09
1070
   271
 70
     4
1070
    43
 40
0.38
1070
   278
 70
    46
1070
    44
 40
0.18
1070
    42
 40
0.0625
1070
   147
 40
0.09
1070
    77
 70
     0
1070
   272
 70
     4
1070
    73
 70
     1
1070
   279
 70
     2
1070
   172
 70
     0
1070
    74
 70
     1
1070
   283
 70
     1
1070
   340
340
11
1070
   140
 40
0.18
1070
   284
 70
     0
1070
    78
 70
     0
1002
}
  0
XRECORD
  5
AF5
102
{ACAD_REACTORS
330
AEA
102
}
330
AEA
100
AcDbXrecord
  1
{97e0a939-6ec2-4fdf-ba7f-cd73821e0cb3}
  0
XRECORD
  5
AED
102
{ACAD_REACTORS
330
AEA
102
}
330
AEA
100
AcDbXrecord
  1

  0
XRECORD
  5
AF2
102
{ACAD_REACTORS
330
AEA
102
}
330
AEA
100
AcDbXrecord
 90
        4
  0
XRECORD
  5
AEF
102
{ACAD_REACTORS
330
AEA
102
}
330
AEA
100
AcDbXrecord
340
1A
  0
XRECORD
  5
AF1
102
{ACAD_REACTORS
330
AEA
102
}
330
AEA
100
AcDbXrecord
 90
    10781
  0
XRECORD
  5
AF0
102
{ACAD_REACTORS
330
AEA
102
}
330
AEA
100
AcDbXrecord
340
19
  0
XRECORD
  5
AF7
102
{ACAD_REACTORS
330
AEA
102
}
330
AEA
100
AcDbXrecord
 40
0.0
  0
XRECORD
  5
AFA
102
{ACAD_REACTORS
330
AEA
102
}
330
AEA
100
AcDbXrecord
340
0
  0
XRECORD
  5
B00
102
{ACAD_REACTORS
330
AEA
102
}
330
AEA
100
AcDbXrecord
 10
0.0
 20
0.0
 30
0.0
  0
XRECORD
  5
AFC
102
{ACAD_REACTORS
330
AEA
102
}
330
AEA
100
AcDbXrecord
 10
0.0
 20
0.0
 30
0.0
  0
XRECORD
  5
AFF
102
{ACAD_REACTORS
330
AEA
102
}
330
AEA
100
AcDbXrecord
 10
0.0
 20
0.0
 30
0.0
  0
XRECORD
  5
AFD
102
{ACAD_REACTORS
330
AEA
102
}
330
AEA
100
AcDbXrecord
 10
0.0
 20
0.0
 30
0.0
  0
XRECORD
  5
AFE
102
{ACAD_REACTORS
330
AEA
102
}
330
AEA
100
AcDbXrecord
 10
0.0
 20
0.0
 30
0.0
  0
XRECORD
  5
AFB
102
{ACAD_REACTORS
330
AEA
102
}
330
AEA
100
AcDbXrecord
 10
0.0
 20
0.0
 30
0.0
  0
XRECORD
  5
AF8
102
{ACAD_REACTORS
330
AEA
102
}
330
AEA
100
AcDbXrecord
340
0
  0
XRECORD
  5
AF9
102
{ACAD_REACTORS
330
AEA
102
}
330
AEA
100
AcDbXrecord
 70
     0
  0
XRECORD
  5
AEE
102
{ACAD_REACTORS
330
AEA
102
}
330
AEA
100
AcDbXrecord
  1

  0
XRECORD
  5
AEB
102
{ACAD_REACTORS
330
AEA
102
}
330
AEA
100
AcDbXrecord
 90
        1
  0
XRECORD
  5
AEC
102
{ACAD_REACTORS
330
AEA
102
}
330
AEA
100
AcDbXrecord
 90
       70
  0
XRECORD
  5
B03
102
{ACAD_REACTORS
330
AEA
102
}
330
AEA
100
AcDbXrecord
340
0
  0
XRECORD
  5
B09
102
{ACAD_REACTORS
330
AEA
102
}
330
AEA
100
AcDbXrecord
 10
0.0
 20
0.0
 30
0.0
  0
XRECORD
  5
B05
102
{ACAD_REACTORS
330
AEA
102
}
330
AEA
100
AcDbXrecord
 10
0.0
 20
0.0
 30
0.0
  0
XRECORD
  5
B08
102
{ACAD_REACTORS
330
AEA
102
}
330
AEA
100
AcDbXrecord
 10
0.0
 20
0.0
 30
0.0
  0
XRECORD
  5
B06
102
{ACAD_REACTORS
330
AEA
102
}
330
AEA
100
AcDbXrecord
 10
0.0
 20
0.0
 30
0.0
  0
XRECORD
  5
B07
102
{ACAD_REACTORS
330
AEA
102
}
330
AEA
100
AcDbXrecord
 10
0.0
 20
0.0
 30
0.0
  0
XRECORD
  5
B04
102
{ACAD_REACTORS
330
AEA
102
}
330
AEA
100
AcDbXrecord
 10
0.0
 20
0.0
 30
0.0
  0
XRECORD
  5
B01
102
{ACAD_REACTORS
330
AEA
102
}
330
AEA
100
AcDbXrecord
340
0
  0
XRECORD
  5
B02
102
{ACAD_REACTORS
330
AEA
102
}
330
AEA
100
AcDbXrecord
 70
     0
  0
XRECORD
  5
AF6
102
{ACAD_REACTORS
330
AEA
102
}
330
AEA
100
AcDbXrecord
  1
{FAEB1C32-E019-11D5-929B-00C0DF256EC4}
  0
DICTIONARYVAR
  5
B15
102
{ACAD_REACTORS
330
B0B
102
}
330
B0B
100
DictionaryVariables
280
     0
  1
1:1
  0
DICTIONARYVAR
  5
B0D
102
{ACAD_REACTORS
330
B0B
102
}
330
B0B
100
DictionaryVariables
280
     0
  1
Standard
  0
DICTIONARYVAR
  5
B0C
102
{ACAD_REACTORS
330
B0B
102
}
330
B0B
100
DictionaryVariables
280
     0
  1
Standard
  0
DICTIONARYVAR
  5
B10
102
{ACAD_REACTORS
330
B0B
102
}
330
B0B
100
DictionaryVariables
280
     0
  1
2
  0
DICTIONARYVAR
  5
B11
102
{ACAD_REACTORS
330
B0B
102
}
330
B0B
100
DictionaryVariables
280
     0
  1
1
  0
DICTIONARYVAR
  5
B16
102
{ACAD_REACTORS
330
B0B
102
}
330
B0B
100
DictionaryVariables
280
     0
  1
1
  0
DICTIONARY
  5
B19
330
45
100
AcDbDictionary
280
     1
  3
ACAD_XREC_ROUNDTRIP
360
B1A
  0
DICTIONARY
  5
B17
330
44
100
AcDbDictionary
280
     1
  3
ACAD_XREC_ROUNDTRIP
360
B18
  0
DICTIONARY
  5
B1B
330
46
100
AcDbDictionary
280
     1
  3
ACAD_XREC_ROUNDTRIP
360
B1C
  0
XRECORD
  5
B1A
102
{ACAD_REACTORS
330
B19
102
}
330
B19
100
AcDbXrecord
102
MATERIAL
148
0.0
149
0.0
149
0.0
 93
        0
 94
      127
282
     0
 72
     1
 77
     1
171
     1
175
     1
179
     1
273
     0
  0
XRECORD
  5
B18
102
{ACAD_REACTORS
330
B17
102
}
330
B17
100
AcDbXrecord
102
MATERIAL
148
0.0
149
0.0
149
0.0
 93
        0
 94
      127
282
     0
 72
     1
 77
     1
171
     1
175
     1
179
     1
273
     0
  0
XRECORD
  5
B1C
102
{ACAD_REACTORS
330
B1B
102
}
330
B1B
100
AcDbXrecord
102
MATERIAL
148
0.0
149
0.0
149
0.0
 93
        0
 94
      127
282
     0
 72
     1
 77
     1
171
     1
175
     1
179
     1
273
     0
  0
ENDSEC
  0
EOF
