<?xml version="1.0" encoding="UTF-8"?><svg id="Blueprints" xmlns="http://www.w3.org/2000/svg" width="100.34" height="126.15" viewBox="0 0 100.34 126.15"><defs><style>.cls-1{fill:none;stroke:#ff00ce;stroke-linecap:round;stroke-linejoin:round;}</style></defs><path class="cls-1" d="m39.74,5.6s.05,0,.08,0h13.79s.02,0,.03,0c.8,0,1.47.62,1.47,1.43,0,3.72,0,7.45,0,11.17,0,.93.81,1.76,1.2,2.13,1.61,1.52,4.23,2.88,6.54,3.57,3.04.92,5.54.7,7.43-.16s3.15-2.35,3.97-3.49,1.23-1.91,2.05-1.22,2.08,2.84,2.65,5.48c.57,2.64.44,5.76-.47,8.69s-2.61,5.65-3.18,9.79c-.57,4.14,0,9.71,1.71,14.71,1.7,5,4.54,9.45,7.77,13.42,3.23,3.98,6.85,7.49,9.69,11.43,2.84,3.94,4.89,8.31,5.29,13.36.4,5.06-.85,10.81-4.12,15.89-3.27,5.08-8.57,9.49-15.3,11.72-6.73,2.24-14.89,2.3-20.76,1.94-5.87-.37-9.45-1.16-15.71-3.31-6.26-2.15-15.19-5.65-22.65-10.2-7.46-4.55-13.45-10.15-16.94-15.5S-.21,86.01.98,80.37c1.19-5.64,4.56-11.83,8.62-18.27,4.05-6.44,8.78-13.13,8.3-20.48-.47-7.36-6.14-15.38-9.88-20.78S2.47,12.69,1.83,10.26c-.64-2.42-.13-4.52,1.29-6.19,1.42-1.67,3.74-2.93,6.66-3.39,2.92-.46,6.44-.13,11.26,1.55,4.41,1.53,9.9,4.19,15.35,7,1.14.45,1.76.29,1.87-.47,0-.56.02-1.12.03-1.68,0-.02,0-.04,0-.05,0-.81.67-1.43,1.46-1.43Z"/></svg>