<?xml version="1.0" standalone="no"?>
 <!DOCTYPE svg PUBLIC "-//W3C//DTD SVG 1.1//EN" 
 "http://www.w3.org/Graphics/SVG/1.1/DTD/svg11.dtd"> 
<svg
  xmlns:svg="http://www.w3.org/2000/svg"
  xmlns="http://www.w3.org/2000/svg"
  xmlns:xlink="http://www.w3.org/1999/xlink"
  version="1.1"
  width="297.0022mm" height="210.0072mm" viewBox="0.0000 0.0000 297.0022 210.0072">
<title>SVG Picture created as wq-Edge_Cuts.svg date 2022/12/25 14:22:28 </title>
  <desc>Picture generated by PCBNEW </desc>
<g style="fill:#000000; fill-opacity:1.0000;stroke:#000000; stroke-opacity:1.0000;
stroke-linecap:round; stroke-linejoin:round;"
 transform="translate(0 0) scale(1 1)">
</g>
<g style="fill:#000000; fill-opacity:0.0; 
stroke:#000000; stroke-width:0.0000; stroke-opacity:1; 
stroke-linecap:round; stroke-linejoin:round;">
</g>
<g style="fill:#D0D2CD; fill-opacity:0.0; 
stroke:#D0D2CD; stroke-width:0.0000; stroke-opacity:1; 
stroke-linecap:round; stroke-linejoin:round;">
</g>
<g style="fill:#D0D2CD; fill-opacity:0.0; 
stroke:#D0D2CD; stroke-width:0.2000; stroke-opacity:1; 
stroke-linecap:round; stroke-linejoin:round;">
<path d="M201.6025 60.8322
L201.8012 60.7927
" />
<path d="M201.4381 60.9393
L201.6025 60.8322
" />
<path d="M201.3263 61.0996
L201.4381 60.9393
" />
<path d="M201.2855 61.2985
L201.3263 61.0996
" />
<path d="M201.2859 61.3173
L201.2855 61.2985
" />
<path d="M201.2769 61.9112
L201.2859 61.3173
" />
<path d="M201.2154 62.0723
L201.2769 61.9112
" />
<path d="M201.0851 62.1535
L201.2154 62.0723
" />
<path d="M200.8861 62.1548
L201.0851 62.1535
" />
<path d="M200.6183 62.0761
L200.8861 62.1548
" />
<path d="M199.1796 61.3473
L200.6183 62.0761
" />
<path d="M197.7726 60.6713
L199.1796 61.3473
" />
<path d="M196.4343 60.0801
L197.7726 60.6713
" />
<path d="M195.2021 59.6056
L196.4343 60.0801
" />
<path d="M194.5864 59.4061
L195.2021 59.6056
" />
<path d="M194.0105 59.2487
L194.5864 59.4061
" />
<path d="M192.9666 59.0507
L194.0105 59.2487
" />
<path d="M192.0477 58.9938
L192.9666 59.0507
" />
<path d="M191.2311 59.0599
L192.0477 58.9938
" />
<path d="M190.4996 59.2321
L191.2311 59.0599
" />
<path d="M189.8576 59.4968
L190.4996 59.2321
" />
<path d="M189.3150 59.8418
L189.8576 59.4968
" />
<path d="M188.8819 60.2545
L189.3150 59.8418
" />
<path d="M188.5679 60.7242
L188.8819 60.2545
" />
<path d="M188.3817 61.2464
L188.5679 60.7242
" />
<path d="M188.3320 61.8183
L188.3817 61.2464
" />
<path d="M188.4272 62.4373
L188.3320 61.8183
" />
<path d="M188.5820 62.8929
L188.4272 62.4373
" />
<path d="M188.8178 63.3942
L188.5820 62.8929
" />
<path d="M189.1427 63.9658
L188.8178 63.3942
" />
<path d="M189.5650 64.6324
L189.1427 63.9658
" />
<path d="M190.0931 65.4188
L189.5650 64.6324
" />
<path d="M190.7353 66.3496
L190.0931 65.4188
" />
<path d="M191.4766 67.4332
L190.7353 66.3496
" />
<path d="M192.2482 68.6395
L191.4766 67.4332
" />
<path d="M192.9735 69.9330
L192.2482 68.6395
" />
<path d="M193.5758 71.2783
L192.9735 69.9330
" />
<path d="M193.8069 71.9592
L193.5758 71.2783
" />
<path d="M193.9785 72.6398
L193.8069 71.9592
" />
<path d="M194.0810 73.3156
L193.9785 72.6398
" />
<path d="M194.1060 73.9824
L194.0810 73.3156
" />
<path d="M194.0555 74.6392
L194.1060 73.9824
" />
<path d="M193.9374 75.2866
L194.0555 74.6392
" />
<path d="M193.7596 75.9250
L193.9374 75.2866
" />
<path d="M193.5298 76.5550
L193.7596 75.9250
" />
<path d="M192.9464 77.7923
L193.5298 76.5550
" />
<path d="M192.2503 79.0028
L192.9464 77.7923
" />
<path d="M190.7711 81.3615
L192.2503 79.0028
" />
<path d="M190.0880 82.5143
L190.7711 81.3615
" />
<path d="M189.4722 83.6467
L190.0880 82.5143
" />
<path d="M188.9399 84.7553
L189.4722 83.6467
" />
<path d="M188.5075 85.8371
L188.9399 84.7553
" />
<path d="M188.1910 86.8889
L188.5075 85.8371
" />
<path d="M188.0060 87.9083
L188.1910 86.8889
" />
<path d="M187.9600 88.9000
L188.0060 87.9083
" />
<path d="M188.0564 89.8725
L187.9600 88.9000
" />
<path d="M188.2986 90.8342
L188.0564 89.8725
" />
<path d="M188.6899 91.7938
L188.2986 90.8342
" />
<path d="M189.2337 92.7598
L188.6899 91.7938
" />
<path d="M189.9313 93.7378
L189.2337 92.7598
" />
<path d="M190.7751 94.7189
L189.9313 93.7378
" />
<path d="M191.7539 95.6889
L190.7751 94.7189
" />
<path d="M192.8567 96.6338
L191.7539 95.6889
" />
<path d="M194.0727 97.5398
L192.8567 96.6338
" />
<path d="M195.3907 98.3929
L194.0727 97.5398
" />
<path d="M196.7925 99.1812
L195.3907 98.3929
" />
<path d="M198.2377 99.9004
L196.7925 99.1812
" />
<path d="M199.6818 100.5471
L198.2377 99.9004
" />
<path d="M201.0801 101.1181
L199.6818 100.5471
" />
<path d="M202.3881 101.6101
L201.0801 101.1181
" />
<path d="M203.5615 102.0200
L202.3881 101.6101
" />
<path d="M204.5883 102.3490
L203.5615 102.0200
" />
<path d="M205.5158 102.6060
L204.5883 102.3490
" />
<path d="M206.3972 102.8010
L205.5158 102.6060
" />
<path d="M207.2860 102.9437
L206.3972 102.8010
" />
<path d="M208.2355 103.0442
L207.2860 102.9437
" />
<path d="M209.2977 103.1119
L208.2355 103.0442
" />
<path d="M210.4824 103.1433
L209.2977 103.1119
" />
<path d="M211.7521 103.1205
L210.4824 103.1433
" />
<path d="M213.0669 103.0248
L211.7521 103.1205
" />
<path d="M214.3868 102.8376
L213.0669 103.0248
" />
<path d="M215.6717 102.5402
L214.3868 102.8376
" />
<path d="M216.8830 102.1153
L215.6717 102.5402
" />
<path d="M218.0011 101.5653
L216.8830 102.1153
" />
<path d="M219.0193 100.9060
L218.0011 101.5653
" />
<path d="M219.9311 100.1533
L219.0193 100.9060
" />
<path d="M220.7303 99.3234
L219.9311 100.1533
" />
<path d="M221.4105 98.4325
L220.7303 99.3234
" />
<path d="M221.9662 97.4964
L221.4105 98.4325
" />
<path d="M222.3987 96.5302
L221.9662 97.4964
" />
<path d="M222.7119 95.5486
L222.3987 96.5302
" />
<path d="M222.9099 94.5664
L222.7119 95.5486
" />
<path d="M222.9965 93.5982
L222.9099 94.5664
" />
<path d="M222.9759 92.6587
L222.9965 93.5982
" />
<path d="M222.8529 91.7596
L222.9759 92.6587
" />
<path d="M222.6359 90.9011
L222.8529 91.7596
" />
<path d="M222.3343 90.0801
L222.6359 90.9011
" />
<path d="M221.9573 89.2939
L222.3343 90.0801
" />
<path d="M221.5142 88.5396
L221.9573 89.2939
" />
<path d="M221.0144 87.8142
L221.5142 88.5396
" />
<path d="M219.8876 86.4271
L221.0144 87.8142
" />
<path d="M218.6748 85.0629
L219.8876 86.4271
" />
<path d="M217.4774 83.6453
L218.6748 85.0629
" />
<path d="M216.3865 82.1164
L217.4774 83.6453
" />
<path d="M215.9021 81.3052
L216.3865 82.1164
" />
<path d="M215.4691 80.4616
L215.9021 81.3052
" />
<path d="M215.0955 79.5845
L215.4691 80.4616
" />
<path d="M214.7890 78.6735
L215.0955 79.5845
" />
<path d="M214.5533 77.7394
L214.7890 78.6735
" />
<path d="M214.3885 76.8032
L214.5533 77.7394
" />
<path d="M214.2947 75.8861
L214.3885 76.8032
" />
<path d="M214.2718 75.0095
L214.2947 75.8861
" />
<path d="M214.3198 74.1946
L214.2718 75.0095
" />
<path d="M214.4375 73.4601
L214.3198 74.1946
" />
<path d="M214.6110 72.8017
L214.4375 73.4601
" />
<path d="M214.8198 72.2020
L214.6110 72.8017
" />
<path d="M215.2603 71.1089
L214.8198 72.2020
" />
<path d="M215.5965 70.0446
L215.2603 71.1089
" />
<path d="M215.7441 68.9624
L215.5965 70.0446
" />
<path d="M215.7069 67.9158
L215.7441 68.9624
" />
<path d="M215.6218 67.4244
L215.7069 67.9158
" />
<path d="M215.4961 66.9649
L215.6218 67.4244
" />
<path d="M215.3404 66.5471
L215.4961 66.9649
" />
<path d="M215.1668 66.1818
L215.3404 66.5471
" />
<path d="M214.9872 65.8792
L215.1668 66.1818
" />
<path d="M214.8137 65.6499
L214.9872 65.8792
" />
<path d="M214.6581 65.5043
L214.8137 65.6499
" />
<path d="M214.5254 65.4455
L214.6581 65.5043
" />
<path d="M214.4078 65.4629
L214.5254 65.4455
" />
<path d="M214.2958 65.5450
L214.4078 65.4629
" />
<path d="M214.0523 65.8554
L214.2958 65.5450
" />
<path d="M213.7246 66.2829
L214.0523 65.8554
" />
<path d="M213.2772 66.7385
L213.7246 66.2829
" />
<path d="M212.6935 67.1359
L213.2772 66.7385
" />
<path d="M212.3457 67.2861
L212.6935 67.1359
" />
<path d="M211.9596 67.3930
L212.3457 67.2861
" />
<path d="M211.5361 67.4512
L211.9596 67.3930
" />
<path d="M211.0763 67.4554
L211.5361 67.4512
" />
<path d="M210.5811 67.4003
L211.0763 67.4554
" />
<path d="M210.0514 67.2805
L210.5811 67.4003
" />
<path d="M209.1699 66.9586
L210.0514 67.2805
" />
<path d="M208.3381 66.5173
L209.1699 66.9586
" />
<path d="M207.9673 66.2623
L208.3381 66.5173
" />
<path d="M207.6453 65.9914
L207.9673 66.2623
" />
<path d="M207.3816 65.6889
L207.6453 65.9914
" />
<path d="M207.2687 65.4766
L207.3816 65.6889
" />
<path d="M207.2221 65.2393
L207.2687 65.4766
" />
<path d="M207.2221 61.2985
L207.2221 65.2393
" />
<path d="M207.1808 61.0989
L207.2221 61.2985
" />
<path d="M207.0680 60.9384
L207.1808 61.0989
" />
<path d="M206.9024 60.8316
L207.0680 60.9384
" />
<path d="M206.7027 60.7932
L206.9024 60.8316
" />
<path d="M206.6929 60.7933
L206.7027 60.7932
" />
<path d="M201.8297 60.7933
L206.6929 60.7933
" />
<path d="M201.8012 60.7927
L201.8297 60.7933
" />
<g >
</g>
<g >
</g>
<g >
</g>
</g> 
</svg>
